<svg width="1824" height="1060" viewBox="0 0 1824 1060" fill="none" xmlns="http://www.w3.org/2000/svg">
<rect width="1824" height="1060" fill="#F72557"/>
<path opacity="0.5" d="M454.742 491H431.109L412.289 428.996H433.258L443.184 473.727H443.527L453.453 428.996H473.562L454.742 491ZM478.16 491V443.562H495.777V491H478.16ZM493.199 438.578C491.538 440.154 489.461 440.941 486.969 440.941C484.477 440.941 482.385 440.154 480.695 438.578C479.034 436.974 478.203 434.983 478.203 432.605C478.203 430.228 479.034 428.251 480.695 426.676C482.385 425.072 484.477 424.27 486.969 424.27C489.461 424.27 491.538 425.072 493.199 426.676C494.889 428.251 495.734 430.228 495.734 432.605C495.734 434.983 494.889 436.974 493.199 438.578ZM519.668 491.688C513.824 491.688 509.284 489.539 506.047 485.242C502.81 480.917 501.191 474.887 501.191 467.152C501.191 459.533 502.839 453.589 506.133 449.32C509.456 445.023 514.068 442.875 519.969 442.875C523.349 442.875 526.271 443.734 528.734 445.453C531.227 447.143 532.945 449.363 533.891 452.113H534.234V428.996H551.852V491H534.234V482.793H533.891C533.06 485.342 531.341 487.462 528.734 489.152C526.156 490.842 523.134 491.688 519.668 491.688ZM532.301 459.332C530.954 457.413 529.107 456.453 526.758 456.453C524.409 456.453 522.561 457.427 521.215 459.375C519.897 461.294 519.238 463.93 519.238 467.281C519.238 470.69 519.897 473.354 521.215 475.273C522.533 477.164 524.38 478.109 526.758 478.109C529.135 478.109 530.983 477.164 532.301 475.273C533.647 473.383 534.32 470.733 534.32 467.324C534.32 463.915 533.647 461.251 532.301 459.332ZM579.309 479.914C581.342 479.914 583.104 479.398 584.594 478.367C586.083 477.307 586.828 475.932 586.828 474.242V471.148L579.352 471.664C577.69 471.779 576.401 472.208 575.484 472.953C574.568 473.698 574.109 474.658 574.109 475.832C574.109 477.092 574.582 478.095 575.527 478.84C576.473 479.556 577.733 479.914 579.309 479.914ZM572.734 491.688C568.323 491.688 564.556 490.327 561.434 487.605C558.311 484.855 556.75 481.389 556.75 477.207C556.75 472.681 558.426 469.186 561.777 466.723C565.158 464.23 570.042 462.784 576.43 462.383L586.828 461.738V459.418C586.828 457.871 586.298 456.668 585.238 455.809C584.178 454.949 582.803 454.52 581.113 454.52C579.366 454.52 577.934 454.935 576.816 455.766C575.699 456.596 575.069 457.642 574.926 458.902H559.199C559.428 453.803 561.577 449.779 565.645 446.828C569.712 443.849 575.184 442.359 582.059 442.359C588.618 442.359 593.918 443.863 597.957 446.871C601.996 449.85 604.016 453.746 604.016 458.559V491H586.828V484.641H586.484C585.281 486.875 583.405 488.608 580.855 489.84C578.335 491.072 575.628 491.688 572.734 491.688ZM609.859 458.301C609.859 453.345 611.836 449.449 615.789 446.613C619.742 443.777 625.171 442.359 632.074 442.359C639.007 442.359 644.421 443.82 648.316 446.742C652.241 449.664 654.203 453.717 654.203 458.902H638.219C638.219 457.355 637.646 456.138 636.5 455.25C635.383 454.333 633.865 453.875 631.945 453.875C630.37 453.875 629.095 454.176 628.121 454.777C627.176 455.35 626.703 456.138 626.703 457.141C626.703 458.63 628.236 459.661 631.301 460.234L642 462.34C646.698 463.257 650.135 464.775 652.312 466.895C654.518 468.986 655.621 471.836 655.621 475.445C655.621 480.573 653.501 484.655 649.262 487.691C645.051 490.699 639.451 492.203 632.461 492.203C625.156 492.203 619.456 490.728 615.359 487.777C611.292 484.798 609.1 480.745 608.785 475.617H625.801C625.973 477.193 626.66 478.439 627.863 479.355C629.095 480.243 630.699 480.688 632.676 480.688C634.395 480.688 635.741 480.415 636.715 479.871C637.689 479.298 638.176 478.525 638.176 477.551C638.176 476.806 637.832 476.204 637.145 475.746C636.457 475.259 635.311 474.872 633.707 474.586L624.555 472.781C619.771 471.836 616.118 470.132 613.598 467.668C611.105 465.176 609.859 462.053 609.859 458.301ZM677.105 491V443.562H694.293V452.887H694.637C695.84 449.535 697.673 446.986 700.137 445.238C702.6 443.491 705.622 442.617 709.203 442.617C714.503 442.617 718.57 444.193 721.406 447.344C724.271 450.466 725.703 454.892 725.703 460.621V491H708.086V464.531C708.086 462.096 707.513 460.206 706.367 458.859C705.25 457.513 703.603 456.84 701.426 456.84C699.363 456.84 697.73 457.556 696.527 458.988C695.324 460.392 694.723 462.225 694.723 464.488V491H677.105ZM755.523 454.477C753.518 454.477 751.828 455.135 750.453 456.453C749.078 457.771 748.305 459.447 748.133 461.48H762.914C762.771 459.361 762.012 457.671 760.637 456.41C759.29 455.121 757.586 454.477 755.523 454.477ZM763.43 475.617H779.113C778.368 480.745 775.905 484.798 771.723 487.777C767.54 490.728 762.198 492.203 755.695 492.203C747.932 492.203 741.859 490.026 737.477 485.672C733.094 481.289 730.902 475.245 730.902 467.539C730.902 459.776 733.079 453.646 737.434 449.148C741.788 444.622 747.689 442.359 755.137 442.359C762.499 442.359 768.371 444.536 772.754 448.891C777.137 453.216 779.328 459.003 779.328 466.25V471.02H747.875V472.137C747.875 474.457 748.634 476.376 750.152 477.895C751.671 479.384 753.604 480.129 755.953 480.129C757.758 480.129 759.319 479.728 760.637 478.926C761.983 478.124 762.914 477.021 763.43 475.617ZM803.477 475.016C804.794 476.792 806.656 477.68 809.062 477.68C811.469 477.68 813.331 476.806 814.648 475.059C815.966 473.283 816.625 470.704 816.625 467.324C816.625 463.944 815.952 461.294 814.605 459.375C813.259 457.427 811.411 456.453 809.062 456.453C806.714 456.453 804.866 457.427 803.52 459.375C802.202 461.294 801.543 463.93 801.543 467.281C801.543 470.661 802.188 473.24 803.477 475.016ZM808.375 508.875C801.328 508.875 795.685 507.486 791.445 504.707C787.234 501.957 784.943 498.333 784.57 493.836H801.5C801.758 494.982 802.546 495.913 803.863 496.629C805.181 497.374 806.814 497.746 808.762 497.746C811.311 497.746 813.245 497.145 814.562 495.941C815.88 494.738 816.539 493.105 816.539 491.043V481.934H816.195C815.422 484.454 813.746 486.503 811.168 488.078C808.59 489.625 805.539 490.398 802.016 490.398C796.372 490.398 791.875 488.365 788.523 484.297C785.172 480.201 783.496 474.486 783.496 467.152C783.496 459.533 785.143 453.589 788.438 449.32C791.76 445.023 796.372 442.875 802.273 442.875C805.654 442.875 808.576 443.734 811.039 445.453C813.531 447.143 815.25 449.363 816.195 452.113H816.539V443.562H834.156V490.613C834.156 496.199 831.779 500.639 827.023 503.934C822.297 507.228 816.081 508.875 808.375 508.875ZM840.816 491V443.562H858.004V452.887H858.348C860.124 446.212 863.819 442.875 869.434 442.875C870.952 442.875 872.327 443.104 873.559 443.562V458.344C872.012 457.685 870.307 457.355 868.445 457.355C861.771 457.355 858.434 460.693 858.434 467.367V491H840.816ZM897.277 479.914C899.311 479.914 901.073 479.398 902.562 478.367C904.052 477.307 904.797 475.932 904.797 474.242V471.148L897.32 471.664C895.659 471.779 894.37 472.208 893.453 472.953C892.536 473.698 892.078 474.658 892.078 475.832C892.078 477.092 892.551 478.095 893.496 478.84C894.441 479.556 895.702 479.914 897.277 479.914ZM890.703 491.688C886.292 491.688 882.525 490.327 879.402 487.605C876.28 484.855 874.719 481.389 874.719 477.207C874.719 472.681 876.395 469.186 879.746 466.723C883.126 464.23 888.01 462.784 894.398 462.383L904.797 461.738V459.418C904.797 457.871 904.267 456.668 903.207 455.809C902.147 454.949 900.772 454.52 899.082 454.52C897.335 454.52 895.902 454.935 894.785 455.766C893.668 456.596 893.038 457.642 892.895 458.902H877.168C877.397 453.803 879.546 449.779 883.613 446.828C887.681 443.849 893.152 442.359 900.027 442.359C906.587 442.359 911.887 443.863 915.926 446.871C919.965 449.85 921.984 453.746 921.984 458.559V491H904.797V484.641H904.453C903.25 486.875 901.374 488.608 898.824 489.84C896.303 491.072 893.596 491.688 890.703 491.688ZM927.828 458.301C927.828 453.345 929.805 449.449 933.758 446.613C937.711 443.777 943.139 442.359 950.043 442.359C956.975 442.359 962.389 443.82 966.285 446.742C970.21 449.664 972.172 453.717 972.172 458.902H956.188C956.188 457.355 955.615 456.138 954.469 455.25C953.352 454.333 951.833 453.875 949.914 453.875C948.339 453.875 947.064 454.176 946.09 454.777C945.145 455.35 944.672 456.138 944.672 457.141C944.672 458.63 946.204 459.661 949.27 460.234L959.969 462.34C964.667 463.257 968.104 464.775 970.281 466.895C972.487 468.986 973.59 471.836 973.59 475.445C973.59 480.573 971.47 484.655 967.23 487.691C963.02 490.699 957.419 492.203 950.43 492.203C943.125 492.203 937.424 490.728 933.328 487.777C929.26 484.798 927.069 480.745 926.754 475.617H943.77C943.941 477.193 944.629 478.439 945.832 479.355C947.064 480.243 948.668 480.688 950.645 480.688C952.363 480.688 953.71 480.415 954.684 479.871C955.658 479.298 956.145 478.525 956.145 477.551C956.145 476.806 955.801 476.204 955.113 475.746C954.426 475.259 953.28 474.872 951.676 474.586L942.523 472.781C937.74 471.836 934.087 470.132 931.566 467.668C929.074 465.176 927.828 462.053 927.828 458.301ZM995.074 491V443.562H1012.69V491H995.074ZM1010.11 438.578C1008.45 440.154 1006.38 440.941 1003.88 440.941C1001.39 440.941 999.299 440.154 997.609 438.578C995.948 436.974 995.117 434.983 995.117 432.605C995.117 430.228 995.948 428.251 997.609 426.676C999.299 425.072 1001.39 424.27 1003.88 424.27C1006.38 424.27 1008.45 425.072 1010.11 426.676C1011.8 428.251 1012.65 430.228 1012.65 432.605C1012.65 434.983 1011.8 436.974 1010.11 438.578ZM1019.31 491V443.562H1036.5V453.145H1036.84C1037.73 449.936 1039.4 447.387 1041.87 445.496C1044.33 443.577 1047.18 442.617 1050.42 442.617C1054.03 442.617 1056.98 443.534 1059.27 445.367C1061.59 447.172 1063.04 449.736 1063.61 453.059H1063.95C1064.76 449.908 1066.47 447.387 1069.11 445.496C1071.77 443.577 1074.91 442.617 1078.52 442.617C1083.13 442.617 1086.88 444.135 1089.78 447.172C1092.67 450.18 1094.12 454.104 1094.12 458.945V491H1076.5V463.5C1076.5 459.003 1074.58 456.754 1070.74 456.754C1068.97 456.754 1067.58 457.355 1066.57 458.559C1065.57 459.733 1065.07 461.366 1065.07 463.457V491H1048.36V463.543C1048.36 459.017 1046.45 456.754 1042.64 456.754C1040.86 456.754 1039.46 457.355 1038.43 458.559C1037.43 459.762 1036.93 461.395 1036.93 463.457V491H1019.31ZM1132.7 442.875C1138.66 442.875 1143.24 444.98 1146.45 449.191C1149.66 453.402 1151.27 459.432 1151.27 467.281C1151.27 475.102 1149.68 481.132 1146.5 485.371C1143.32 489.582 1138.79 491.688 1132.92 491.688C1129.45 491.688 1126.47 490.914 1123.98 489.367C1121.49 487.792 1119.68 485.6 1118.57 482.793H1118.22V506.168H1100.61V443.562H1118.27V452.113H1118.57C1119.71 449.191 1121.5 446.928 1123.94 445.324C1126.4 443.691 1129.32 442.875 1132.7 442.875ZM1120.2 475.23C1121.55 477.15 1123.38 478.109 1125.7 478.109C1128.02 478.109 1129.85 477.135 1131.2 475.188C1132.55 473.24 1133.22 470.604 1133.22 467.281C1133.22 463.987 1132.53 461.366 1131.16 459.418C1129.81 457.441 1127.99 456.453 1125.7 456.453C1123.41 456.453 1121.57 457.441 1120.2 459.418C1118.85 461.366 1118.17 464.001 1118.14 467.324C1118.17 470.647 1118.85 473.283 1120.2 475.23ZM1180.44 492.203C1172.65 492.203 1166.55 490.04 1162.14 485.715C1157.73 481.361 1155.52 475.202 1155.52 467.238C1155.52 459.475 1157.75 453.388 1162.22 448.977C1166.72 444.565 1172.79 442.359 1180.44 442.359C1188.15 442.359 1194.23 444.565 1198.7 448.977C1203.17 453.359 1205.41 459.447 1205.41 467.238C1205.41 475.202 1203.2 481.361 1198.79 485.715C1194.38 490.04 1188.26 492.203 1180.44 492.203ZM1180.44 479.613C1182.65 479.613 1184.38 478.539 1185.64 476.391C1186.9 474.242 1187.53 471.206 1187.53 467.281C1187.53 463.443 1186.89 460.435 1185.6 458.258C1184.34 456.052 1182.62 454.949 1180.44 454.949C1178.26 454.949 1176.55 456.052 1175.29 458.258C1174.02 460.435 1173.39 463.443 1173.39 467.281C1173.39 471.234 1174.01 474.285 1175.24 476.434C1176.47 478.553 1178.21 479.613 1180.44 479.613ZM1210.86 491V443.562H1228.05V452.887H1228.39C1230.17 446.212 1233.87 442.875 1239.48 442.875C1241 442.875 1242.37 443.104 1243.61 443.562V458.344C1242.06 457.685 1240.35 457.355 1238.49 457.355C1231.82 457.355 1228.48 460.693 1228.48 467.367V491H1210.86ZM1252.07 433.164H1269.69V443.562H1278.02V456.324H1269.69V473.855C1269.69 476.863 1271.46 478.367 1275.02 478.367C1276.16 478.367 1277.16 478.296 1278.02 478.152V490.355C1275.93 490.785 1273.51 491 1270.76 491C1264.09 491 1259.3 489.969 1256.41 487.906C1253.52 485.844 1252.07 482.464 1252.07 477.766V456.324H1245.8V443.562H1252.07V433.164ZM1304.62 479.914C1306.65 479.914 1308.42 479.398 1309.91 478.367C1311.4 477.307 1312.14 475.932 1312.14 474.242V471.148L1304.66 471.664C1303 471.779 1301.71 472.208 1300.8 472.953C1299.88 473.698 1299.42 474.658 1299.42 475.832C1299.42 477.092 1299.89 478.095 1300.84 478.84C1301.79 479.556 1303.05 479.914 1304.62 479.914ZM1298.05 491.688C1293.64 491.688 1289.87 490.327 1286.75 487.605C1283.62 484.855 1282.06 481.389 1282.06 477.207C1282.06 472.681 1283.74 469.186 1287.09 466.723C1290.47 464.23 1295.35 462.784 1301.74 462.383L1312.14 461.738V459.418C1312.14 457.871 1311.61 456.668 1310.55 455.809C1309.49 454.949 1308.12 454.52 1306.43 454.52C1304.68 454.52 1303.25 454.935 1302.13 455.766C1301.01 456.596 1300.38 457.642 1300.24 458.902H1284.51C1284.74 453.803 1286.89 449.779 1290.96 446.828C1295.02 443.849 1300.5 442.359 1307.37 442.359C1313.93 442.359 1319.23 443.863 1323.27 446.871C1327.31 449.85 1329.33 453.746 1329.33 458.559V491H1312.14V484.641H1311.8C1310.59 486.875 1308.72 488.608 1306.17 489.84C1303.65 491.072 1300.94 491.688 1298.05 491.688ZM1335.99 491V443.562H1353.18V453.145H1353.52C1354.41 449.936 1356.08 447.387 1358.55 445.496C1361.01 443.577 1363.86 442.617 1367.1 442.617C1370.71 442.617 1373.66 443.534 1375.95 445.367C1378.27 447.172 1379.72 449.736 1380.29 453.059H1380.63C1381.43 449.908 1383.15 447.387 1385.79 445.496C1388.45 443.577 1391.59 442.617 1395.2 442.617C1399.81 442.617 1403.56 444.135 1406.46 447.172C1409.35 450.18 1410.8 454.104 1410.8 458.945V491H1393.18V463.5C1393.18 459.003 1391.26 456.754 1387.42 456.754C1385.65 456.754 1384.26 457.355 1383.25 458.559C1382.25 459.733 1381.75 461.366 1381.75 463.457V491H1365.04V463.543C1365.04 459.017 1363.13 456.754 1359.32 456.754C1357.54 456.754 1356.14 457.355 1355.11 458.559C1354.11 459.762 1353.61 461.395 1353.61 463.457V491H1335.99Z" fill="#28282A"/>
<path opacity="0.2" d="M454.742 699H431.109L412.289 636.996H433.258L443.184 681.727H443.527L453.453 636.996H473.562L454.742 699ZM478.16 699V651.562H495.777V699H478.16ZM493.199 646.578C491.538 648.154 489.461 648.941 486.969 648.941C484.477 648.941 482.385 648.154 480.695 646.578C479.034 644.974 478.203 642.983 478.203 640.605C478.203 638.228 479.034 636.251 480.695 634.676C482.385 633.072 484.477 632.27 486.969 632.27C489.461 632.27 491.538 633.072 493.199 634.676C494.889 636.251 495.734 638.228 495.734 640.605C495.734 642.983 494.889 644.974 493.199 646.578ZM519.668 699.688C513.824 699.688 509.284 697.539 506.047 693.242C502.81 688.917 501.191 682.887 501.191 675.152C501.191 667.533 502.839 661.589 506.133 657.32C509.456 653.023 514.068 650.875 519.969 650.875C523.349 650.875 526.271 651.734 528.734 653.453C531.227 655.143 532.945 657.363 533.891 660.113H534.234V636.996H551.852V699H534.234V690.793H533.891C533.06 693.342 531.341 695.462 528.734 697.152C526.156 698.842 523.134 699.688 519.668 699.688ZM532.301 667.332C530.954 665.413 529.107 664.453 526.758 664.453C524.409 664.453 522.561 665.427 521.215 667.375C519.897 669.294 519.238 671.93 519.238 675.281C519.238 678.69 519.897 681.354 521.215 683.273C522.533 685.164 524.38 686.109 526.758 686.109C529.135 686.109 530.983 685.164 532.301 683.273C533.647 681.383 534.32 678.733 534.32 675.324C534.32 671.915 533.647 669.251 532.301 667.332ZM579.309 687.914C581.342 687.914 583.104 687.398 584.594 686.367C586.083 685.307 586.828 683.932 586.828 682.242V679.148L579.352 679.664C577.69 679.779 576.401 680.208 575.484 680.953C574.568 681.698 574.109 682.658 574.109 683.832C574.109 685.092 574.582 686.095 575.527 686.84C576.473 687.556 577.733 687.914 579.309 687.914ZM572.734 699.688C568.323 699.688 564.556 698.327 561.434 695.605C558.311 692.855 556.75 689.389 556.75 685.207C556.75 680.681 558.426 677.186 561.777 674.723C565.158 672.23 570.042 670.784 576.43 670.383L586.828 669.738V667.418C586.828 665.871 586.298 664.668 585.238 663.809C584.178 662.949 582.803 662.52 581.113 662.52C579.366 662.52 577.934 662.935 576.816 663.766C575.699 664.596 575.069 665.642 574.926 666.902H559.199C559.428 661.803 561.577 657.779 565.645 654.828C569.712 651.849 575.184 650.359 582.059 650.359C588.618 650.359 593.918 651.863 597.957 654.871C601.996 657.85 604.016 661.746 604.016 666.559V699H586.828V692.641H586.484C585.281 694.875 583.405 696.608 580.855 697.84C578.335 699.072 575.628 699.688 572.734 699.688ZM609.859 666.301C609.859 661.345 611.836 657.449 615.789 654.613C619.742 651.777 625.171 650.359 632.074 650.359C639.007 650.359 644.421 651.82 648.316 654.742C652.241 657.664 654.203 661.717 654.203 666.902H638.219C638.219 665.355 637.646 664.138 636.5 663.25C635.383 662.333 633.865 661.875 631.945 661.875C630.37 661.875 629.095 662.176 628.121 662.777C627.176 663.35 626.703 664.138 626.703 665.141C626.703 666.63 628.236 667.661 631.301 668.234L642 670.34C646.698 671.257 650.135 672.775 652.312 674.895C654.518 676.986 655.621 679.836 655.621 683.445C655.621 688.573 653.501 692.655 649.262 695.691C645.051 698.699 639.451 700.203 632.461 700.203C625.156 700.203 619.456 698.728 615.359 695.777C611.292 692.798 609.1 688.745 608.785 683.617H625.801C625.973 685.193 626.66 686.439 627.863 687.355C629.095 688.243 630.699 688.688 632.676 688.688C634.395 688.688 635.741 688.415 636.715 687.871C637.689 687.298 638.176 686.525 638.176 685.551C638.176 684.806 637.832 684.204 637.145 683.746C636.457 683.259 635.311 682.872 633.707 682.586L624.555 680.781C619.771 679.836 616.118 678.132 613.598 675.668C611.105 673.176 609.859 670.053 609.859 666.301ZM677.105 699V651.562H694.293V660.887H694.637C695.84 657.535 697.673 654.986 700.137 653.238C702.6 651.491 705.622 650.617 709.203 650.617C714.503 650.617 718.57 652.193 721.406 655.344C724.271 658.466 725.703 662.892 725.703 668.621V699H708.086V672.531C708.086 670.096 707.513 668.206 706.367 666.859C705.25 665.513 703.603 664.84 701.426 664.84C699.363 664.84 697.73 665.556 696.527 666.988C695.324 668.392 694.723 670.225 694.723 672.488V699H677.105ZM755.523 662.477C753.518 662.477 751.828 663.135 750.453 664.453C749.078 665.771 748.305 667.447 748.133 669.48H762.914C762.771 667.361 762.012 665.671 760.637 664.41C759.29 663.121 757.586 662.477 755.523 662.477ZM763.43 683.617H779.113C778.368 688.745 775.905 692.798 771.723 695.777C767.54 698.728 762.198 700.203 755.695 700.203C747.932 700.203 741.859 698.026 737.477 693.672C733.094 689.289 730.902 683.245 730.902 675.539C730.902 667.776 733.079 661.646 737.434 657.148C741.788 652.622 747.689 650.359 755.137 650.359C762.499 650.359 768.371 652.536 772.754 656.891C777.137 661.216 779.328 667.003 779.328 674.25V679.02H747.875V680.137C747.875 682.457 748.634 684.376 750.152 685.895C751.671 687.384 753.604 688.129 755.953 688.129C757.758 688.129 759.319 687.728 760.637 686.926C761.983 686.124 762.914 685.021 763.43 683.617ZM803.477 683.016C804.794 684.792 806.656 685.68 809.062 685.68C811.469 685.68 813.331 684.806 814.648 683.059C815.966 681.283 816.625 678.704 816.625 675.324C816.625 671.944 815.952 669.294 814.605 667.375C813.259 665.427 811.411 664.453 809.062 664.453C806.714 664.453 804.866 665.427 803.52 667.375C802.202 669.294 801.543 671.93 801.543 675.281C801.543 678.661 802.188 681.24 803.477 683.016ZM808.375 716.875C801.328 716.875 795.685 715.486 791.445 712.707C787.234 709.957 784.943 706.333 784.57 701.836H801.5C801.758 702.982 802.546 703.913 803.863 704.629C805.181 705.374 806.814 705.746 808.762 705.746C811.311 705.746 813.245 705.145 814.562 703.941C815.88 702.738 816.539 701.105 816.539 699.043V689.934H816.195C815.422 692.454 813.746 694.503 811.168 696.078C808.59 697.625 805.539 698.398 802.016 698.398C796.372 698.398 791.875 696.365 788.523 692.297C785.172 688.201 783.496 682.486 783.496 675.152C783.496 667.533 785.143 661.589 788.438 657.32C791.76 653.023 796.372 650.875 802.273 650.875C805.654 650.875 808.576 651.734 811.039 653.453C813.531 655.143 815.25 657.363 816.195 660.113H816.539V651.562H834.156V698.613C834.156 704.199 831.779 708.639 827.023 711.934C822.297 715.228 816.081 716.875 808.375 716.875ZM840.816 699V651.562H858.004V660.887H858.348C860.124 654.212 863.819 650.875 869.434 650.875C870.952 650.875 872.327 651.104 873.559 651.562V666.344C872.012 665.685 870.307 665.355 868.445 665.355C861.771 665.355 858.434 668.693 858.434 675.367V699H840.816ZM897.277 687.914C899.311 687.914 901.073 687.398 902.562 686.367C904.052 685.307 904.797 683.932 904.797 682.242V679.148L897.32 679.664C895.659 679.779 894.37 680.208 893.453 680.953C892.536 681.698 892.078 682.658 892.078 683.832C892.078 685.092 892.551 686.095 893.496 686.84C894.441 687.556 895.702 687.914 897.277 687.914ZM890.703 699.688C886.292 699.688 882.525 698.327 879.402 695.605C876.28 692.855 874.719 689.389 874.719 685.207C874.719 680.681 876.395 677.186 879.746 674.723C883.126 672.23 888.01 670.784 894.398 670.383L904.797 669.738V667.418C904.797 665.871 904.267 664.668 903.207 663.809C902.147 662.949 900.772 662.52 899.082 662.52C897.335 662.52 895.902 662.935 894.785 663.766C893.668 664.596 893.038 665.642 892.895 666.902H877.168C877.397 661.803 879.546 657.779 883.613 654.828C887.681 651.849 893.152 650.359 900.027 650.359C906.587 650.359 911.887 651.863 915.926 654.871C919.965 657.85 921.984 661.746 921.984 666.559V699H904.797V692.641H904.453C903.25 694.875 901.374 696.608 898.824 697.84C896.303 699.072 893.596 699.688 890.703 699.688ZM927.828 666.301C927.828 661.345 929.805 657.449 933.758 654.613C937.711 651.777 943.139 650.359 950.043 650.359C956.975 650.359 962.389 651.82 966.285 654.742C970.21 657.664 972.172 661.717 972.172 666.902H956.188C956.188 665.355 955.615 664.138 954.469 663.25C953.352 662.333 951.833 661.875 949.914 661.875C948.339 661.875 947.064 662.176 946.09 662.777C945.145 663.35 944.672 664.138 944.672 665.141C944.672 666.63 946.204 667.661 949.27 668.234L959.969 670.34C964.667 671.257 968.104 672.775 970.281 674.895C972.487 676.986 973.59 679.836 973.59 683.445C973.59 688.573 971.47 692.655 967.23 695.691C963.02 698.699 957.419 700.203 950.43 700.203C943.125 700.203 937.424 698.728 933.328 695.777C929.26 692.798 927.069 688.745 926.754 683.617H943.77C943.941 685.193 944.629 686.439 945.832 687.355C947.064 688.243 948.668 688.688 950.645 688.688C952.363 688.688 953.71 688.415 954.684 687.871C955.658 687.298 956.145 686.525 956.145 685.551C956.145 684.806 955.801 684.204 955.113 683.746C954.426 683.259 953.28 682.872 951.676 682.586L942.523 680.781C937.74 679.836 934.087 678.132 931.566 675.668C929.074 673.176 927.828 670.053 927.828 666.301ZM995.074 699V651.562H1012.69V699H995.074ZM1010.11 646.578C1008.45 648.154 1006.38 648.941 1003.88 648.941C1001.39 648.941 999.299 648.154 997.609 646.578C995.948 644.974 995.117 642.983 995.117 640.605C995.117 638.228 995.948 636.251 997.609 634.676C999.299 633.072 1001.39 632.27 1003.88 632.27C1006.38 632.27 1008.45 633.072 1010.11 634.676C1011.8 636.251 1012.65 638.228 1012.65 640.605C1012.65 642.983 1011.8 644.974 1010.11 646.578ZM1019.31 699V651.562H1036.5V661.145H1036.84C1037.73 657.936 1039.4 655.387 1041.87 653.496C1044.33 651.577 1047.18 650.617 1050.42 650.617C1054.03 650.617 1056.98 651.534 1059.27 653.367C1061.59 655.172 1063.04 657.736 1063.61 661.059H1063.95C1064.76 657.908 1066.47 655.387 1069.11 653.496C1071.77 651.577 1074.91 650.617 1078.52 650.617C1083.13 650.617 1086.88 652.135 1089.78 655.172C1092.67 658.18 1094.12 662.104 1094.12 666.945V699H1076.5V671.5C1076.5 667.003 1074.58 664.754 1070.74 664.754C1068.97 664.754 1067.58 665.355 1066.57 666.559C1065.57 667.733 1065.07 669.366 1065.07 671.457V699H1048.36V671.543C1048.36 667.017 1046.45 664.754 1042.64 664.754C1040.86 664.754 1039.46 665.355 1038.43 666.559C1037.43 667.762 1036.93 669.395 1036.93 671.457V699H1019.31ZM1132.7 650.875C1138.66 650.875 1143.24 652.98 1146.45 657.191C1149.66 661.402 1151.27 667.432 1151.27 675.281C1151.27 683.102 1149.68 689.132 1146.5 693.371C1143.32 697.582 1138.79 699.688 1132.92 699.688C1129.45 699.688 1126.47 698.914 1123.98 697.367C1121.49 695.792 1119.68 693.6 1118.57 690.793H1118.22V714.168H1100.61V651.562H1118.27V660.113H1118.57C1119.71 657.191 1121.5 654.928 1123.94 653.324C1126.4 651.691 1129.32 650.875 1132.7 650.875ZM1120.2 683.23C1121.55 685.15 1123.38 686.109 1125.7 686.109C1128.02 686.109 1129.85 685.135 1131.2 683.188C1132.55 681.24 1133.22 678.604 1133.22 675.281C1133.22 671.987 1132.53 669.366 1131.16 667.418C1129.81 665.441 1127.99 664.453 1125.7 664.453C1123.41 664.453 1121.57 665.441 1120.2 667.418C1118.85 669.366 1118.17 672.001 1118.14 675.324C1118.17 678.647 1118.85 681.283 1120.2 683.23ZM1180.44 700.203C1172.65 700.203 1166.55 698.04 1162.14 693.715C1157.73 689.361 1155.52 683.202 1155.52 675.238C1155.52 667.475 1157.75 661.388 1162.22 656.977C1166.72 652.565 1172.79 650.359 1180.44 650.359C1188.15 650.359 1194.23 652.565 1198.7 656.977C1203.17 661.359 1205.41 667.447 1205.41 675.238C1205.41 683.202 1203.2 689.361 1198.79 693.715C1194.38 698.04 1188.26 700.203 1180.44 700.203ZM1180.44 687.613C1182.65 687.613 1184.38 686.539 1185.64 684.391C1186.9 682.242 1187.53 679.206 1187.53 675.281C1187.53 671.443 1186.89 668.435 1185.6 666.258C1184.34 664.052 1182.62 662.949 1180.44 662.949C1178.26 662.949 1176.55 664.052 1175.29 666.258C1174.02 668.435 1173.39 671.443 1173.39 675.281C1173.39 679.234 1174.01 682.285 1175.24 684.434C1176.47 686.553 1178.21 687.613 1180.44 687.613ZM1210.86 699V651.562H1228.05V660.887H1228.39C1230.17 654.212 1233.87 650.875 1239.48 650.875C1241 650.875 1242.37 651.104 1243.61 651.562V666.344C1242.06 665.685 1240.35 665.355 1238.49 665.355C1231.82 665.355 1228.48 668.693 1228.48 675.367V699H1210.86ZM1252.07 641.164H1269.69V651.562H1278.02V664.324H1269.69V681.855C1269.69 684.863 1271.46 686.367 1275.02 686.367C1276.16 686.367 1277.16 686.296 1278.02 686.152V698.355C1275.93 698.785 1273.51 699 1270.76 699C1264.09 699 1259.3 697.969 1256.41 695.906C1253.52 693.844 1252.07 690.464 1252.07 685.766V664.324H1245.8V651.562H1252.07V641.164ZM1304.62 687.914C1306.65 687.914 1308.42 687.398 1309.91 686.367C1311.4 685.307 1312.14 683.932 1312.14 682.242V679.148L1304.66 679.664C1303 679.779 1301.71 680.208 1300.8 680.953C1299.88 681.698 1299.42 682.658 1299.42 683.832C1299.42 685.092 1299.89 686.095 1300.84 686.84C1301.79 687.556 1303.05 687.914 1304.62 687.914ZM1298.05 699.688C1293.64 699.688 1289.87 698.327 1286.75 695.605C1283.62 692.855 1282.06 689.389 1282.06 685.207C1282.06 680.681 1283.74 677.186 1287.09 674.723C1290.47 672.23 1295.35 670.784 1301.74 670.383L1312.14 669.738V667.418C1312.14 665.871 1311.61 664.668 1310.55 663.809C1309.49 662.949 1308.12 662.52 1306.43 662.52C1304.68 662.52 1303.25 662.935 1302.13 663.766C1301.01 664.596 1300.38 665.642 1300.24 666.902H1284.51C1284.74 661.803 1286.89 657.779 1290.96 654.828C1295.02 651.849 1300.5 650.359 1307.37 650.359C1313.93 650.359 1319.23 651.863 1323.27 654.871C1327.31 657.85 1329.33 661.746 1329.33 666.559V699H1312.14V692.641H1311.8C1310.59 694.875 1308.72 696.608 1306.17 697.84C1303.65 699.072 1300.94 699.688 1298.05 699.688ZM1335.99 699V651.562H1353.18V661.145H1353.52C1354.41 657.936 1356.08 655.387 1358.55 653.496C1361.01 651.577 1363.86 650.617 1367.1 650.617C1370.71 650.617 1373.66 651.534 1375.95 653.367C1378.27 655.172 1379.72 657.736 1380.29 661.059H1380.63C1381.43 657.908 1383.15 655.387 1385.79 653.496C1388.45 651.577 1391.59 650.617 1395.2 650.617C1399.81 650.617 1403.56 652.135 1406.46 655.172C1409.35 658.18 1410.8 662.104 1410.8 666.945V699H1393.18V671.5C1393.18 667.003 1391.26 664.754 1387.42 664.754C1385.65 664.754 1384.26 665.355 1383.25 666.559C1382.25 667.733 1381.75 669.366 1381.75 671.457V699H1365.04V671.543C1365.04 667.017 1363.13 664.754 1359.32 664.754C1357.54 664.754 1356.14 665.355 1355.11 666.559C1354.11 667.762 1353.61 669.395 1353.61 671.457V699H1335.99Z" fill="#28282A"/>
<path opacity="0.2" d="M454.742 422H431.109L412.289 359.996H433.258L443.184 404.727H443.527L453.453 359.996H473.562L454.742 422ZM478.16 422V374.562H495.777V422H478.16ZM493.199 369.578C491.538 371.154 489.461 371.941 486.969 371.941C484.477 371.941 482.385 371.154 480.695 369.578C479.034 367.974 478.203 365.983 478.203 363.605C478.203 361.228 479.034 359.251 480.695 357.676C482.385 356.072 484.477 355.27 486.969 355.27C489.461 355.27 491.538 356.072 493.199 357.676C494.889 359.251 495.734 361.228 495.734 363.605C495.734 365.983 494.889 367.974 493.199 369.578ZM519.668 422.688C513.824 422.688 509.284 420.539 506.047 416.242C502.81 411.917 501.191 405.887 501.191 398.152C501.191 390.533 502.839 384.589 506.133 380.32C509.456 376.023 514.068 373.875 519.969 373.875C523.349 373.875 526.271 374.734 528.734 376.453C531.227 378.143 532.945 380.363 533.891 383.113H534.234V359.996H551.852V422H534.234V413.793H533.891C533.06 416.342 531.341 418.462 528.734 420.152C526.156 421.842 523.134 422.688 519.668 422.688ZM532.301 390.332C530.954 388.413 529.107 387.453 526.758 387.453C524.409 387.453 522.561 388.427 521.215 390.375C519.897 392.294 519.238 394.93 519.238 398.281C519.238 401.69 519.897 404.354 521.215 406.273C522.533 408.164 524.38 409.109 526.758 409.109C529.135 409.109 530.983 408.164 532.301 406.273C533.647 404.383 534.32 401.733 534.32 398.324C534.32 394.915 533.647 392.251 532.301 390.332ZM579.309 410.914C581.342 410.914 583.104 410.398 584.594 409.367C586.083 408.307 586.828 406.932 586.828 405.242V402.148L579.352 402.664C577.69 402.779 576.401 403.208 575.484 403.953C574.568 404.698 574.109 405.658 574.109 406.832C574.109 408.092 574.582 409.095 575.527 409.84C576.473 410.556 577.733 410.914 579.309 410.914ZM572.734 422.688C568.323 422.688 564.556 421.327 561.434 418.605C558.311 415.855 556.75 412.389 556.75 408.207C556.75 403.681 558.426 400.186 561.777 397.723C565.158 395.23 570.042 393.784 576.43 393.383L586.828 392.738V390.418C586.828 388.871 586.298 387.668 585.238 386.809C584.178 385.949 582.803 385.52 581.113 385.52C579.366 385.52 577.934 385.935 576.816 386.766C575.699 387.596 575.069 388.642 574.926 389.902H559.199C559.428 384.803 561.577 380.779 565.645 377.828C569.712 374.849 575.184 373.359 582.059 373.359C588.618 373.359 593.918 374.863 597.957 377.871C601.996 380.85 604.016 384.746 604.016 389.559V422H586.828V415.641H586.484C585.281 417.875 583.405 419.608 580.855 420.84C578.335 422.072 575.628 422.688 572.734 422.688ZM609.859 389.301C609.859 384.345 611.836 380.449 615.789 377.613C619.742 374.777 625.171 373.359 632.074 373.359C639.007 373.359 644.421 374.82 648.316 377.742C652.241 380.664 654.203 384.717 654.203 389.902H638.219C638.219 388.355 637.646 387.138 636.5 386.25C635.383 385.333 633.865 384.875 631.945 384.875C630.37 384.875 629.095 385.176 628.121 385.777C627.176 386.35 626.703 387.138 626.703 388.141C626.703 389.63 628.236 390.661 631.301 391.234L642 393.34C646.698 394.257 650.135 395.775 652.312 397.895C654.518 399.986 655.621 402.836 655.621 406.445C655.621 411.573 653.501 415.655 649.262 418.691C645.051 421.699 639.451 423.203 632.461 423.203C625.156 423.203 619.456 421.728 615.359 418.777C611.292 415.798 609.1 411.745 608.785 406.617H625.801C625.973 408.193 626.66 409.439 627.863 410.355C629.095 411.243 630.699 411.688 632.676 411.688C634.395 411.688 635.741 411.415 636.715 410.871C637.689 410.298 638.176 409.525 638.176 408.551C638.176 407.806 637.832 407.204 637.145 406.746C636.457 406.259 635.311 405.872 633.707 405.586L624.555 403.781C619.771 402.836 616.118 401.132 613.598 398.668C611.105 396.176 609.859 393.053 609.859 389.301ZM677.105 422V374.562H694.293V383.887H694.637C695.84 380.535 697.673 377.986 700.137 376.238C702.6 374.491 705.622 373.617 709.203 373.617C714.503 373.617 718.57 375.193 721.406 378.344C724.271 381.466 725.703 385.892 725.703 391.621V422H708.086V395.531C708.086 393.096 707.513 391.206 706.367 389.859C705.25 388.513 703.603 387.84 701.426 387.84C699.363 387.84 697.73 388.556 696.527 389.988C695.324 391.392 694.723 393.225 694.723 395.488V422H677.105ZM755.523 385.477C753.518 385.477 751.828 386.135 750.453 387.453C749.078 388.771 748.305 390.447 748.133 392.48H762.914C762.771 390.361 762.012 388.671 760.637 387.41C759.29 386.121 757.586 385.477 755.523 385.477ZM763.43 406.617H779.113C778.368 411.745 775.905 415.798 771.723 418.777C767.54 421.728 762.198 423.203 755.695 423.203C747.932 423.203 741.859 421.026 737.477 416.672C733.094 412.289 730.902 406.245 730.902 398.539C730.902 390.776 733.079 384.646 737.434 380.148C741.788 375.622 747.689 373.359 755.137 373.359C762.499 373.359 768.371 375.536 772.754 379.891C777.137 384.216 779.328 390.003 779.328 397.25V402.02H747.875V403.137C747.875 405.457 748.634 407.376 750.152 408.895C751.671 410.384 753.604 411.129 755.953 411.129C757.758 411.129 759.319 410.728 760.637 409.926C761.983 409.124 762.914 408.021 763.43 406.617ZM803.477 406.016C804.794 407.792 806.656 408.68 809.062 408.68C811.469 408.68 813.331 407.806 814.648 406.059C815.966 404.283 816.625 401.704 816.625 398.324C816.625 394.944 815.952 392.294 814.605 390.375C813.259 388.427 811.411 387.453 809.062 387.453C806.714 387.453 804.866 388.427 803.52 390.375C802.202 392.294 801.543 394.93 801.543 398.281C801.543 401.661 802.188 404.24 803.477 406.016ZM808.375 439.875C801.328 439.875 795.685 438.486 791.445 435.707C787.234 432.957 784.943 429.333 784.57 424.836H801.5C801.758 425.982 802.546 426.913 803.863 427.629C805.181 428.374 806.814 428.746 808.762 428.746C811.311 428.746 813.245 428.145 814.562 426.941C815.88 425.738 816.539 424.105 816.539 422.043V412.934H816.195C815.422 415.454 813.746 417.503 811.168 419.078C808.59 420.625 805.539 421.398 802.016 421.398C796.372 421.398 791.875 419.365 788.523 415.297C785.172 411.201 783.496 405.486 783.496 398.152C783.496 390.533 785.143 384.589 788.438 380.32C791.76 376.023 796.372 373.875 802.273 373.875C805.654 373.875 808.576 374.734 811.039 376.453C813.531 378.143 815.25 380.363 816.195 383.113H816.539V374.562H834.156V421.613C834.156 427.199 831.779 431.639 827.023 434.934C822.297 438.228 816.081 439.875 808.375 439.875ZM840.816 422V374.562H858.004V383.887H858.348C860.124 377.212 863.819 373.875 869.434 373.875C870.952 373.875 872.327 374.104 873.559 374.562V389.344C872.012 388.685 870.307 388.355 868.445 388.355C861.771 388.355 858.434 391.693 858.434 398.367V422H840.816ZM897.277 410.914C899.311 410.914 901.073 410.398 902.562 409.367C904.052 408.307 904.797 406.932 904.797 405.242V402.148L897.32 402.664C895.659 402.779 894.37 403.208 893.453 403.953C892.536 404.698 892.078 405.658 892.078 406.832C892.078 408.092 892.551 409.095 893.496 409.84C894.441 410.556 895.702 410.914 897.277 410.914ZM890.703 422.688C886.292 422.688 882.525 421.327 879.402 418.605C876.28 415.855 874.719 412.389 874.719 408.207C874.719 403.681 876.395 400.186 879.746 397.723C883.126 395.23 888.01 393.784 894.398 393.383L904.797 392.738V390.418C904.797 388.871 904.267 387.668 903.207 386.809C902.147 385.949 900.772 385.52 899.082 385.52C897.335 385.52 895.902 385.935 894.785 386.766C893.668 387.596 893.038 388.642 892.895 389.902H877.168C877.397 384.803 879.546 380.779 883.613 377.828C887.681 374.849 893.152 373.359 900.027 373.359C906.587 373.359 911.887 374.863 915.926 377.871C919.965 380.85 921.984 384.746 921.984 389.559V422H904.797V415.641H904.453C903.25 417.875 901.374 419.608 898.824 420.84C896.303 422.072 893.596 422.688 890.703 422.688ZM927.828 389.301C927.828 384.345 929.805 380.449 933.758 377.613C937.711 374.777 943.139 373.359 950.043 373.359C956.975 373.359 962.389 374.82 966.285 377.742C970.21 380.664 972.172 384.717 972.172 389.902H956.188C956.188 388.355 955.615 387.138 954.469 386.25C953.352 385.333 951.833 384.875 949.914 384.875C948.339 384.875 947.064 385.176 946.09 385.777C945.145 386.35 944.672 387.138 944.672 388.141C944.672 389.63 946.204 390.661 949.27 391.234L959.969 393.34C964.667 394.257 968.104 395.775 970.281 397.895C972.487 399.986 973.59 402.836 973.59 406.445C973.59 411.573 971.47 415.655 967.23 418.691C963.02 421.699 957.419 423.203 950.43 423.203C943.125 423.203 937.424 421.728 933.328 418.777C929.26 415.798 927.069 411.745 926.754 406.617H943.77C943.941 408.193 944.629 409.439 945.832 410.355C947.064 411.243 948.668 411.688 950.645 411.688C952.363 411.688 953.71 411.415 954.684 410.871C955.658 410.298 956.145 409.525 956.145 408.551C956.145 407.806 955.801 407.204 955.113 406.746C954.426 406.259 953.28 405.872 951.676 405.586L942.523 403.781C937.74 402.836 934.087 401.132 931.566 398.668C929.074 396.176 927.828 393.053 927.828 389.301ZM995.074 422V374.562H1012.69V422H995.074ZM1010.11 369.578C1008.45 371.154 1006.38 371.941 1003.88 371.941C1001.39 371.941 999.299 371.154 997.609 369.578C995.948 367.974 995.117 365.983 995.117 363.605C995.117 361.228 995.948 359.251 997.609 357.676C999.299 356.072 1001.39 355.27 1003.88 355.27C1006.38 355.27 1008.45 356.072 1010.11 357.676C1011.8 359.251 1012.65 361.228 1012.65 363.605C1012.65 365.983 1011.8 367.974 1010.11 369.578ZM1019.31 422V374.562H1036.5V384.145H1036.84C1037.73 380.936 1039.4 378.387 1041.87 376.496C1044.33 374.577 1047.18 373.617 1050.42 373.617C1054.03 373.617 1056.98 374.534 1059.27 376.367C1061.59 378.172 1063.04 380.736 1063.61 384.059H1063.95C1064.76 380.908 1066.47 378.387 1069.11 376.496C1071.77 374.577 1074.91 373.617 1078.52 373.617C1083.13 373.617 1086.88 375.135 1089.78 378.172C1092.67 381.18 1094.12 385.104 1094.12 389.945V422H1076.5V394.5C1076.5 390.003 1074.58 387.754 1070.74 387.754C1068.97 387.754 1067.58 388.355 1066.57 389.559C1065.57 390.733 1065.07 392.366 1065.07 394.457V422H1048.36V394.543C1048.36 390.017 1046.45 387.754 1042.64 387.754C1040.86 387.754 1039.46 388.355 1038.43 389.559C1037.43 390.762 1036.93 392.395 1036.93 394.457V422H1019.31ZM1132.7 373.875C1138.66 373.875 1143.24 375.98 1146.45 380.191C1149.66 384.402 1151.27 390.432 1151.27 398.281C1151.27 406.102 1149.68 412.132 1146.5 416.371C1143.32 420.582 1138.79 422.688 1132.92 422.688C1129.45 422.688 1126.47 421.914 1123.98 420.367C1121.49 418.792 1119.68 416.6 1118.57 413.793H1118.22V437.168H1100.61V374.562H1118.27V383.113H1118.57C1119.71 380.191 1121.5 377.928 1123.94 376.324C1126.4 374.691 1129.32 373.875 1132.7 373.875ZM1120.2 406.23C1121.55 408.15 1123.38 409.109 1125.7 409.109C1128.02 409.109 1129.85 408.135 1131.2 406.188C1132.55 404.24 1133.22 401.604 1133.22 398.281C1133.22 394.987 1132.53 392.366 1131.16 390.418C1129.81 388.441 1127.99 387.453 1125.7 387.453C1123.41 387.453 1121.57 388.441 1120.2 390.418C1118.85 392.366 1118.17 395.001 1118.14 398.324C1118.17 401.647 1118.85 404.283 1120.2 406.23ZM1180.44 423.203C1172.65 423.203 1166.55 421.04 1162.14 416.715C1157.73 412.361 1155.52 406.202 1155.52 398.238C1155.52 390.475 1157.75 384.388 1162.22 379.977C1166.72 375.565 1172.79 373.359 1180.44 373.359C1188.15 373.359 1194.23 375.565 1198.7 379.977C1203.17 384.359 1205.41 390.447 1205.41 398.238C1205.41 406.202 1203.2 412.361 1198.79 416.715C1194.38 421.04 1188.26 423.203 1180.44 423.203ZM1180.44 410.613C1182.65 410.613 1184.38 409.539 1185.64 407.391C1186.9 405.242 1187.53 402.206 1187.53 398.281C1187.53 394.443 1186.89 391.435 1185.6 389.258C1184.34 387.052 1182.62 385.949 1180.44 385.949C1178.26 385.949 1176.55 387.052 1175.29 389.258C1174.02 391.435 1173.39 394.443 1173.39 398.281C1173.39 402.234 1174.01 405.285 1175.24 407.434C1176.47 409.553 1178.21 410.613 1180.44 410.613ZM1210.86 422V374.562H1228.05V383.887H1228.39C1230.17 377.212 1233.87 373.875 1239.48 373.875C1241 373.875 1242.37 374.104 1243.61 374.562V389.344C1242.06 388.685 1240.35 388.355 1238.49 388.355C1231.82 388.355 1228.48 391.693 1228.48 398.367V422H1210.86ZM1252.07 364.164H1269.69V374.562H1278.02V387.324H1269.69V404.855C1269.69 407.863 1271.46 409.367 1275.02 409.367C1276.16 409.367 1277.16 409.296 1278.02 409.152V421.355C1275.93 421.785 1273.51 422 1270.76 422C1264.09 422 1259.3 420.969 1256.41 418.906C1253.52 416.844 1252.07 413.464 1252.07 408.766V387.324H1245.8V374.562H1252.07V364.164ZM1304.62 410.914C1306.65 410.914 1308.42 410.398 1309.91 409.367C1311.4 408.307 1312.14 406.932 1312.14 405.242V402.148L1304.66 402.664C1303 402.779 1301.71 403.208 1300.8 403.953C1299.88 404.698 1299.42 405.658 1299.42 406.832C1299.42 408.092 1299.89 409.095 1300.84 409.84C1301.79 410.556 1303.05 410.914 1304.62 410.914ZM1298.05 422.688C1293.64 422.688 1289.87 421.327 1286.75 418.605C1283.62 415.855 1282.06 412.389 1282.06 408.207C1282.06 403.681 1283.74 400.186 1287.09 397.723C1290.47 395.23 1295.35 393.784 1301.74 393.383L1312.14 392.738V390.418C1312.14 388.871 1311.61 387.668 1310.55 386.809C1309.49 385.949 1308.12 385.52 1306.43 385.52C1304.68 385.52 1303.25 385.935 1302.13 386.766C1301.01 387.596 1300.38 388.642 1300.24 389.902H1284.51C1284.74 384.803 1286.89 380.779 1290.96 377.828C1295.02 374.849 1300.5 373.359 1307.37 373.359C1313.93 373.359 1319.23 374.863 1323.27 377.871C1327.31 380.85 1329.33 384.746 1329.33 389.559V422H1312.14V415.641H1311.8C1310.59 417.875 1308.72 419.608 1306.17 420.84C1303.65 422.072 1300.94 422.688 1298.05 422.688ZM1335.99 422V374.562H1353.18V384.145H1353.52C1354.41 380.936 1356.08 378.387 1358.55 376.496C1361.01 374.577 1363.86 373.617 1367.1 373.617C1370.71 373.617 1373.66 374.534 1375.95 376.367C1378.27 378.172 1379.72 380.736 1380.29 384.059H1380.63C1381.43 380.908 1383.15 378.387 1385.79 376.496C1388.45 374.577 1391.59 373.617 1395.2 373.617C1399.81 373.617 1403.56 375.135 1406.46 378.172C1409.35 381.18 1410.8 385.104 1410.8 389.945V422H1393.18V394.5C1393.18 390.003 1391.26 387.754 1387.42 387.754C1385.65 387.754 1384.26 388.355 1383.25 389.559C1382.25 390.733 1381.75 392.366 1381.75 394.457V422H1365.04V394.543C1365.04 390.017 1363.13 387.754 1359.32 387.754C1357.54 387.754 1356.14 388.355 1355.11 389.559C1354.11 390.762 1353.61 392.395 1353.61 394.457V422H1335.99Z" fill="#28282A"/>
<path opacity="0.5" d="M454.742 630H431.109L412.289 567.996H433.258L443.184 612.727H443.527L453.453 567.996H473.562L454.742 630ZM478.16 630V582.562H495.777V630H478.16ZM493.199 577.578C491.538 579.154 489.461 579.941 486.969 579.941C484.477 579.941 482.385 579.154 480.695 577.578C479.034 575.974 478.203 573.983 478.203 571.605C478.203 569.228 479.034 567.251 480.695 565.676C482.385 564.072 484.477 563.27 486.969 563.27C489.461 563.27 491.538 564.072 493.199 565.676C494.889 567.251 495.734 569.228 495.734 571.605C495.734 573.983 494.889 575.974 493.199 577.578ZM519.668 630.688C513.824 630.688 509.284 628.539 506.047 624.242C502.81 619.917 501.191 613.887 501.191 606.152C501.191 598.533 502.839 592.589 506.133 588.32C509.456 584.023 514.068 581.875 519.969 581.875C523.349 581.875 526.271 582.734 528.734 584.453C531.227 586.143 532.945 588.363 533.891 591.113H534.234V567.996H551.852V630H534.234V621.793H533.891C533.06 624.342 531.341 626.462 528.734 628.152C526.156 629.842 523.134 630.688 519.668 630.688ZM532.301 598.332C530.954 596.413 529.107 595.453 526.758 595.453C524.409 595.453 522.561 596.427 521.215 598.375C519.897 600.294 519.238 602.93 519.238 606.281C519.238 609.69 519.897 612.354 521.215 614.273C522.533 616.164 524.38 617.109 526.758 617.109C529.135 617.109 530.983 616.164 532.301 614.273C533.647 612.383 534.32 609.733 534.32 606.324C534.32 602.915 533.647 600.251 532.301 598.332ZM579.309 618.914C581.342 618.914 583.104 618.398 584.594 617.367C586.083 616.307 586.828 614.932 586.828 613.242V610.148L579.352 610.664C577.69 610.779 576.401 611.208 575.484 611.953C574.568 612.698 574.109 613.658 574.109 614.832C574.109 616.092 574.582 617.095 575.527 617.84C576.473 618.556 577.733 618.914 579.309 618.914ZM572.734 630.688C568.323 630.688 564.556 629.327 561.434 626.605C558.311 623.855 556.75 620.389 556.75 616.207C556.75 611.681 558.426 608.186 561.777 605.723C565.158 603.23 570.042 601.784 576.43 601.383L586.828 600.738V598.418C586.828 596.871 586.298 595.668 585.238 594.809C584.178 593.949 582.803 593.52 581.113 593.52C579.366 593.52 577.934 593.935 576.816 594.766C575.699 595.596 575.069 596.642 574.926 597.902H559.199C559.428 592.803 561.577 588.779 565.645 585.828C569.712 582.849 575.184 581.359 582.059 581.359C588.618 581.359 593.918 582.863 597.957 585.871C601.996 588.85 604.016 592.746 604.016 597.559V630H586.828V623.641H586.484C585.281 625.875 583.405 627.608 580.855 628.84C578.335 630.072 575.628 630.688 572.734 630.688ZM609.859 597.301C609.859 592.345 611.836 588.449 615.789 585.613C619.742 582.777 625.171 581.359 632.074 581.359C639.007 581.359 644.421 582.82 648.316 585.742C652.241 588.664 654.203 592.717 654.203 597.902H638.219C638.219 596.355 637.646 595.138 636.5 594.25C635.383 593.333 633.865 592.875 631.945 592.875C630.37 592.875 629.095 593.176 628.121 593.777C627.176 594.35 626.703 595.138 626.703 596.141C626.703 597.63 628.236 598.661 631.301 599.234L642 601.34C646.698 602.257 650.135 603.775 652.312 605.895C654.518 607.986 655.621 610.836 655.621 614.445C655.621 619.573 653.501 623.655 649.262 626.691C645.051 629.699 639.451 631.203 632.461 631.203C625.156 631.203 619.456 629.728 615.359 626.777C611.292 623.798 609.1 619.745 608.785 614.617H625.801C625.973 616.193 626.66 617.439 627.863 618.355C629.095 619.243 630.699 619.688 632.676 619.688C634.395 619.688 635.741 619.415 636.715 618.871C637.689 618.298 638.176 617.525 638.176 616.551C638.176 615.806 637.832 615.204 637.145 614.746C636.457 614.259 635.311 613.872 633.707 613.586L624.555 611.781C619.771 610.836 616.118 609.132 613.598 606.668C611.105 604.176 609.859 601.053 609.859 597.301ZM677.105 630V582.562H694.293V591.887H694.637C695.84 588.535 697.673 585.986 700.137 584.238C702.6 582.491 705.622 581.617 709.203 581.617C714.503 581.617 718.57 583.193 721.406 586.344C724.271 589.466 725.703 593.892 725.703 599.621V630H708.086V603.531C708.086 601.096 707.513 599.206 706.367 597.859C705.25 596.513 703.603 595.84 701.426 595.84C699.363 595.84 697.73 596.556 696.527 597.988C695.324 599.392 694.723 601.225 694.723 603.488V630H677.105ZM755.523 593.477C753.518 593.477 751.828 594.135 750.453 595.453C749.078 596.771 748.305 598.447 748.133 600.48H762.914C762.771 598.361 762.012 596.671 760.637 595.41C759.29 594.121 757.586 593.477 755.523 593.477ZM763.43 614.617H779.113C778.368 619.745 775.905 623.798 771.723 626.777C767.54 629.728 762.198 631.203 755.695 631.203C747.932 631.203 741.859 629.026 737.477 624.672C733.094 620.289 730.902 614.245 730.902 606.539C730.902 598.776 733.079 592.646 737.434 588.148C741.788 583.622 747.689 581.359 755.137 581.359C762.499 581.359 768.371 583.536 772.754 587.891C777.137 592.216 779.328 598.003 779.328 605.25V610.02H747.875V611.137C747.875 613.457 748.634 615.376 750.152 616.895C751.671 618.384 753.604 619.129 755.953 619.129C757.758 619.129 759.319 618.728 760.637 617.926C761.983 617.124 762.914 616.021 763.43 614.617ZM803.477 614.016C804.794 615.792 806.656 616.68 809.062 616.68C811.469 616.68 813.331 615.806 814.648 614.059C815.966 612.283 816.625 609.704 816.625 606.324C816.625 602.944 815.952 600.294 814.605 598.375C813.259 596.427 811.411 595.453 809.062 595.453C806.714 595.453 804.866 596.427 803.52 598.375C802.202 600.294 801.543 602.93 801.543 606.281C801.543 609.661 802.188 612.24 803.477 614.016ZM808.375 647.875C801.328 647.875 795.685 646.486 791.445 643.707C787.234 640.957 784.943 637.333 784.57 632.836H801.5C801.758 633.982 802.546 634.913 803.863 635.629C805.181 636.374 806.814 636.746 808.762 636.746C811.311 636.746 813.245 636.145 814.562 634.941C815.88 633.738 816.539 632.105 816.539 630.043V620.934H816.195C815.422 623.454 813.746 625.503 811.168 627.078C808.59 628.625 805.539 629.398 802.016 629.398C796.372 629.398 791.875 627.365 788.523 623.297C785.172 619.201 783.496 613.486 783.496 606.152C783.496 598.533 785.143 592.589 788.438 588.32C791.76 584.023 796.372 581.875 802.273 581.875C805.654 581.875 808.576 582.734 811.039 584.453C813.531 586.143 815.25 588.363 816.195 591.113H816.539V582.562H834.156V629.613C834.156 635.199 831.779 639.639 827.023 642.934C822.297 646.228 816.081 647.875 808.375 647.875ZM840.816 630V582.562H858.004V591.887H858.348C860.124 585.212 863.819 581.875 869.434 581.875C870.952 581.875 872.327 582.104 873.559 582.562V597.344C872.012 596.685 870.307 596.355 868.445 596.355C861.771 596.355 858.434 599.693 858.434 606.367V630H840.816ZM897.277 618.914C899.311 618.914 901.073 618.398 902.562 617.367C904.052 616.307 904.797 614.932 904.797 613.242V610.148L897.32 610.664C895.659 610.779 894.37 611.208 893.453 611.953C892.536 612.698 892.078 613.658 892.078 614.832C892.078 616.092 892.551 617.095 893.496 617.84C894.441 618.556 895.702 618.914 897.277 618.914ZM890.703 630.688C886.292 630.688 882.525 629.327 879.402 626.605C876.28 623.855 874.719 620.389 874.719 616.207C874.719 611.681 876.395 608.186 879.746 605.723C883.126 603.23 888.01 601.784 894.398 601.383L904.797 600.738V598.418C904.797 596.871 904.267 595.668 903.207 594.809C902.147 593.949 900.772 593.52 899.082 593.52C897.335 593.52 895.902 593.935 894.785 594.766C893.668 595.596 893.038 596.642 892.895 597.902H877.168C877.397 592.803 879.546 588.779 883.613 585.828C887.681 582.849 893.152 581.359 900.027 581.359C906.587 581.359 911.887 582.863 915.926 585.871C919.965 588.85 921.984 592.746 921.984 597.559V630H904.797V623.641H904.453C903.25 625.875 901.374 627.608 898.824 628.84C896.303 630.072 893.596 630.688 890.703 630.688ZM927.828 597.301C927.828 592.345 929.805 588.449 933.758 585.613C937.711 582.777 943.139 581.359 950.043 581.359C956.975 581.359 962.389 582.82 966.285 585.742C970.21 588.664 972.172 592.717 972.172 597.902H956.188C956.188 596.355 955.615 595.138 954.469 594.25C953.352 593.333 951.833 592.875 949.914 592.875C948.339 592.875 947.064 593.176 946.09 593.777C945.145 594.35 944.672 595.138 944.672 596.141C944.672 597.63 946.204 598.661 949.27 599.234L959.969 601.34C964.667 602.257 968.104 603.775 970.281 605.895C972.487 607.986 973.59 610.836 973.59 614.445C973.59 619.573 971.47 623.655 967.23 626.691C963.02 629.699 957.419 631.203 950.43 631.203C943.125 631.203 937.424 629.728 933.328 626.777C929.26 623.798 927.069 619.745 926.754 614.617H943.77C943.941 616.193 944.629 617.439 945.832 618.355C947.064 619.243 948.668 619.688 950.645 619.688C952.363 619.688 953.71 619.415 954.684 618.871C955.658 618.298 956.145 617.525 956.145 616.551C956.145 615.806 955.801 615.204 955.113 614.746C954.426 614.259 953.28 613.872 951.676 613.586L942.523 611.781C937.74 610.836 934.087 609.132 931.566 606.668C929.074 604.176 927.828 601.053 927.828 597.301ZM995.074 630V582.562H1012.69V630H995.074ZM1010.11 577.578C1008.45 579.154 1006.38 579.941 1003.88 579.941C1001.39 579.941 999.299 579.154 997.609 577.578C995.948 575.974 995.117 573.983 995.117 571.605C995.117 569.228 995.948 567.251 997.609 565.676C999.299 564.072 1001.39 563.27 1003.88 563.27C1006.38 563.27 1008.45 564.072 1010.11 565.676C1011.8 567.251 1012.65 569.228 1012.65 571.605C1012.65 573.983 1011.8 575.974 1010.11 577.578ZM1019.31 630V582.562H1036.5V592.145H1036.84C1037.73 588.936 1039.4 586.387 1041.87 584.496C1044.33 582.577 1047.18 581.617 1050.42 581.617C1054.03 581.617 1056.98 582.534 1059.27 584.367C1061.59 586.172 1063.04 588.736 1063.61 592.059H1063.95C1064.76 588.908 1066.47 586.387 1069.11 584.496C1071.77 582.577 1074.91 581.617 1078.52 581.617C1083.13 581.617 1086.88 583.135 1089.78 586.172C1092.67 589.18 1094.12 593.104 1094.12 597.945V630H1076.5V602.5C1076.5 598.003 1074.58 595.754 1070.74 595.754C1068.97 595.754 1067.58 596.355 1066.57 597.559C1065.57 598.733 1065.07 600.366 1065.07 602.457V630H1048.36V602.543C1048.36 598.017 1046.45 595.754 1042.64 595.754C1040.86 595.754 1039.46 596.355 1038.43 597.559C1037.43 598.762 1036.93 600.395 1036.93 602.457V630H1019.31ZM1132.7 581.875C1138.66 581.875 1143.24 583.98 1146.45 588.191C1149.66 592.402 1151.27 598.432 1151.27 606.281C1151.27 614.102 1149.68 620.132 1146.5 624.371C1143.32 628.582 1138.79 630.688 1132.92 630.688C1129.45 630.688 1126.47 629.914 1123.98 628.367C1121.49 626.792 1119.68 624.6 1118.57 621.793H1118.22V645.168H1100.61V582.562H1118.27V591.113H1118.57C1119.71 588.191 1121.5 585.928 1123.94 584.324C1126.4 582.691 1129.32 581.875 1132.7 581.875ZM1120.2 614.23C1121.55 616.15 1123.38 617.109 1125.7 617.109C1128.02 617.109 1129.85 616.135 1131.2 614.188C1132.55 612.24 1133.22 609.604 1133.22 606.281C1133.22 602.987 1132.53 600.366 1131.16 598.418C1129.81 596.441 1127.99 595.453 1125.7 595.453C1123.41 595.453 1121.57 596.441 1120.2 598.418C1118.85 600.366 1118.17 603.001 1118.14 606.324C1118.17 609.647 1118.85 612.283 1120.2 614.23ZM1180.44 631.203C1172.65 631.203 1166.55 629.04 1162.14 624.715C1157.73 620.361 1155.52 614.202 1155.52 606.238C1155.52 598.475 1157.75 592.388 1162.22 587.977C1166.72 583.565 1172.79 581.359 1180.44 581.359C1188.15 581.359 1194.23 583.565 1198.7 587.977C1203.17 592.359 1205.41 598.447 1205.41 606.238C1205.41 614.202 1203.2 620.361 1198.79 624.715C1194.38 629.04 1188.26 631.203 1180.44 631.203ZM1180.44 618.613C1182.65 618.613 1184.38 617.539 1185.64 615.391C1186.9 613.242 1187.53 610.206 1187.53 606.281C1187.53 602.443 1186.89 599.435 1185.6 597.258C1184.34 595.052 1182.62 593.949 1180.44 593.949C1178.26 593.949 1176.55 595.052 1175.29 597.258C1174.02 599.435 1173.39 602.443 1173.39 606.281C1173.39 610.234 1174.01 613.285 1175.24 615.434C1176.47 617.553 1178.21 618.613 1180.44 618.613ZM1210.86 630V582.562H1228.05V591.887H1228.39C1230.17 585.212 1233.87 581.875 1239.48 581.875C1241 581.875 1242.37 582.104 1243.61 582.562V597.344C1242.06 596.685 1240.35 596.355 1238.49 596.355C1231.82 596.355 1228.48 599.693 1228.48 606.367V630H1210.86ZM1252.07 572.164H1269.69V582.562H1278.02V595.324H1269.69V612.855C1269.69 615.863 1271.46 617.367 1275.02 617.367C1276.16 617.367 1277.16 617.296 1278.02 617.152V629.355C1275.93 629.785 1273.51 630 1270.76 630C1264.09 630 1259.3 628.969 1256.41 626.906C1253.52 624.844 1252.07 621.464 1252.07 616.766V595.324H1245.8V582.562H1252.07V572.164ZM1304.62 618.914C1306.65 618.914 1308.42 618.398 1309.91 617.367C1311.4 616.307 1312.14 614.932 1312.14 613.242V610.148L1304.66 610.664C1303 610.779 1301.71 611.208 1300.8 611.953C1299.88 612.698 1299.42 613.658 1299.42 614.832C1299.42 616.092 1299.89 617.095 1300.84 617.84C1301.79 618.556 1303.05 618.914 1304.62 618.914ZM1298.05 630.688C1293.64 630.688 1289.87 629.327 1286.75 626.605C1283.62 623.855 1282.06 620.389 1282.06 616.207C1282.06 611.681 1283.74 608.186 1287.09 605.723C1290.47 603.23 1295.35 601.784 1301.74 601.383L1312.14 600.738V598.418C1312.14 596.871 1311.61 595.668 1310.55 594.809C1309.49 593.949 1308.12 593.52 1306.43 593.52C1304.68 593.52 1303.25 593.935 1302.13 594.766C1301.01 595.596 1300.38 596.642 1300.24 597.902H1284.51C1284.74 592.803 1286.89 588.779 1290.96 585.828C1295.02 582.849 1300.5 581.359 1307.37 581.359C1313.93 581.359 1319.23 582.863 1323.27 585.871C1327.31 588.85 1329.33 592.746 1329.33 597.559V630H1312.14V623.641H1311.8C1310.59 625.875 1308.72 627.608 1306.17 628.84C1303.65 630.072 1300.94 630.688 1298.05 630.688ZM1335.99 630V582.562H1353.18V592.145H1353.52C1354.41 588.936 1356.08 586.387 1358.55 584.496C1361.01 582.577 1363.86 581.617 1367.1 581.617C1370.71 581.617 1373.66 582.534 1375.95 584.367C1378.27 586.172 1379.72 588.736 1380.29 592.059H1380.63C1381.43 588.908 1383.15 586.387 1385.79 584.496C1388.45 582.577 1391.59 581.617 1395.2 581.617C1399.81 581.617 1403.56 583.135 1406.46 586.172C1409.35 589.18 1410.8 593.104 1410.8 597.945V630H1393.18V602.5C1393.18 598.003 1391.26 595.754 1387.42 595.754C1385.65 595.754 1384.26 596.355 1383.25 597.559C1382.25 598.733 1381.75 600.366 1381.75 602.457V630H1365.04V602.543C1365.04 598.017 1363.13 595.754 1359.32 595.754C1357.54 595.754 1356.14 596.355 1355.11 597.559C1354.11 598.762 1353.61 600.395 1353.61 602.457V630H1335.99Z" fill="#28282A"/>
<path opacity="0.05" d="M454.742 769H431.109L412.289 706.996H433.258L443.184 751.727H443.527L453.453 706.996H473.562L454.742 769ZM478.16 769V721.562H495.777V769H478.16ZM493.199 716.578C491.538 718.154 489.461 718.941 486.969 718.941C484.477 718.941 482.385 718.154 480.695 716.578C479.034 714.974 478.203 712.983 478.203 710.605C478.203 708.228 479.034 706.251 480.695 704.676C482.385 703.072 484.477 702.27 486.969 702.27C489.461 702.27 491.538 703.072 493.199 704.676C494.889 706.251 495.734 708.228 495.734 710.605C495.734 712.983 494.889 714.974 493.199 716.578ZM519.668 769.688C513.824 769.688 509.284 767.539 506.047 763.242C502.81 758.917 501.191 752.887 501.191 745.152C501.191 737.533 502.839 731.589 506.133 727.32C509.456 723.023 514.068 720.875 519.969 720.875C523.349 720.875 526.271 721.734 528.734 723.453C531.227 725.143 532.945 727.363 533.891 730.113H534.234V706.996H551.852V769H534.234V760.793H533.891C533.06 763.342 531.341 765.462 528.734 767.152C526.156 768.842 523.134 769.688 519.668 769.688ZM532.301 737.332C530.954 735.413 529.107 734.453 526.758 734.453C524.409 734.453 522.561 735.427 521.215 737.375C519.897 739.294 519.238 741.93 519.238 745.281C519.238 748.69 519.897 751.354 521.215 753.273C522.533 755.164 524.38 756.109 526.758 756.109C529.135 756.109 530.983 755.164 532.301 753.273C533.647 751.383 534.32 748.733 534.32 745.324C534.32 741.915 533.647 739.251 532.301 737.332ZM579.309 757.914C581.342 757.914 583.104 757.398 584.594 756.367C586.083 755.307 586.828 753.932 586.828 752.242V749.148L579.352 749.664C577.69 749.779 576.401 750.208 575.484 750.953C574.568 751.698 574.109 752.658 574.109 753.832C574.109 755.092 574.582 756.095 575.527 756.84C576.473 757.556 577.733 757.914 579.309 757.914ZM572.734 769.688C568.323 769.688 564.556 768.327 561.434 765.605C558.311 762.855 556.75 759.389 556.75 755.207C556.75 750.681 558.426 747.186 561.777 744.723C565.158 742.23 570.042 740.784 576.43 740.383L586.828 739.738V737.418C586.828 735.871 586.298 734.668 585.238 733.809C584.178 732.949 582.803 732.52 581.113 732.52C579.366 732.52 577.934 732.935 576.816 733.766C575.699 734.596 575.069 735.642 574.926 736.902H559.199C559.428 731.803 561.577 727.779 565.645 724.828C569.712 721.849 575.184 720.359 582.059 720.359C588.618 720.359 593.918 721.863 597.957 724.871C601.996 727.85 604.016 731.746 604.016 736.559V769H586.828V762.641H586.484C585.281 764.875 583.405 766.608 580.855 767.84C578.335 769.072 575.628 769.688 572.734 769.688ZM609.859 736.301C609.859 731.345 611.836 727.449 615.789 724.613C619.742 721.777 625.171 720.359 632.074 720.359C639.007 720.359 644.421 721.82 648.316 724.742C652.241 727.664 654.203 731.717 654.203 736.902H638.219C638.219 735.355 637.646 734.138 636.5 733.25C635.383 732.333 633.865 731.875 631.945 731.875C630.37 731.875 629.095 732.176 628.121 732.777C627.176 733.35 626.703 734.138 626.703 735.141C626.703 736.63 628.236 737.661 631.301 738.234L642 740.34C646.698 741.257 650.135 742.775 652.312 744.895C654.518 746.986 655.621 749.836 655.621 753.445C655.621 758.573 653.501 762.655 649.262 765.691C645.051 768.699 639.451 770.203 632.461 770.203C625.156 770.203 619.456 768.728 615.359 765.777C611.292 762.798 609.1 758.745 608.785 753.617H625.801C625.973 755.193 626.66 756.439 627.863 757.355C629.095 758.243 630.699 758.688 632.676 758.688C634.395 758.688 635.741 758.415 636.715 757.871C637.689 757.298 638.176 756.525 638.176 755.551C638.176 754.806 637.832 754.204 637.145 753.746C636.457 753.259 635.311 752.872 633.707 752.586L624.555 750.781C619.771 749.836 616.118 748.132 613.598 745.668C611.105 743.176 609.859 740.053 609.859 736.301ZM677.105 769V721.562H694.293V730.887H694.637C695.84 727.535 697.673 724.986 700.137 723.238C702.6 721.491 705.622 720.617 709.203 720.617C714.503 720.617 718.57 722.193 721.406 725.344C724.271 728.466 725.703 732.892 725.703 738.621V769H708.086V742.531C708.086 740.096 707.513 738.206 706.367 736.859C705.25 735.513 703.603 734.84 701.426 734.84C699.363 734.84 697.73 735.556 696.527 736.988C695.324 738.392 694.723 740.225 694.723 742.488V769H677.105ZM755.523 732.477C753.518 732.477 751.828 733.135 750.453 734.453C749.078 735.771 748.305 737.447 748.133 739.48H762.914C762.771 737.361 762.012 735.671 760.637 734.41C759.29 733.121 757.586 732.477 755.523 732.477ZM763.43 753.617H779.113C778.368 758.745 775.905 762.798 771.723 765.777C767.54 768.728 762.198 770.203 755.695 770.203C747.932 770.203 741.859 768.026 737.477 763.672C733.094 759.289 730.902 753.245 730.902 745.539C730.902 737.776 733.079 731.646 737.434 727.148C741.788 722.622 747.689 720.359 755.137 720.359C762.499 720.359 768.371 722.536 772.754 726.891C777.137 731.216 779.328 737.003 779.328 744.25V749.02H747.875V750.137C747.875 752.457 748.634 754.376 750.152 755.895C751.671 757.384 753.604 758.129 755.953 758.129C757.758 758.129 759.319 757.728 760.637 756.926C761.983 756.124 762.914 755.021 763.43 753.617ZM803.477 753.016C804.794 754.792 806.656 755.68 809.062 755.68C811.469 755.68 813.331 754.806 814.648 753.059C815.966 751.283 816.625 748.704 816.625 745.324C816.625 741.944 815.952 739.294 814.605 737.375C813.259 735.427 811.411 734.453 809.062 734.453C806.714 734.453 804.866 735.427 803.52 737.375C802.202 739.294 801.543 741.93 801.543 745.281C801.543 748.661 802.188 751.24 803.477 753.016ZM808.375 786.875C801.328 786.875 795.685 785.486 791.445 782.707C787.234 779.957 784.943 776.333 784.57 771.836H801.5C801.758 772.982 802.546 773.913 803.863 774.629C805.181 775.374 806.814 775.746 808.762 775.746C811.311 775.746 813.245 775.145 814.562 773.941C815.88 772.738 816.539 771.105 816.539 769.043V759.934H816.195C815.422 762.454 813.746 764.503 811.168 766.078C808.59 767.625 805.539 768.398 802.016 768.398C796.372 768.398 791.875 766.365 788.523 762.297C785.172 758.201 783.496 752.486 783.496 745.152C783.496 737.533 785.143 731.589 788.438 727.32C791.76 723.023 796.372 720.875 802.273 720.875C805.654 720.875 808.576 721.734 811.039 723.453C813.531 725.143 815.25 727.363 816.195 730.113H816.539V721.562H834.156V768.613C834.156 774.199 831.779 778.639 827.023 781.934C822.297 785.228 816.081 786.875 808.375 786.875ZM840.816 769V721.562H858.004V730.887H858.348C860.124 724.212 863.819 720.875 869.434 720.875C870.952 720.875 872.327 721.104 873.559 721.562V736.344C872.012 735.685 870.307 735.355 868.445 735.355C861.771 735.355 858.434 738.693 858.434 745.367V769H840.816ZM897.277 757.914C899.311 757.914 901.073 757.398 902.562 756.367C904.052 755.307 904.797 753.932 904.797 752.242V749.148L897.32 749.664C895.659 749.779 894.37 750.208 893.453 750.953C892.536 751.698 892.078 752.658 892.078 753.832C892.078 755.092 892.551 756.095 893.496 756.84C894.441 757.556 895.702 757.914 897.277 757.914ZM890.703 769.688C886.292 769.688 882.525 768.327 879.402 765.605C876.28 762.855 874.719 759.389 874.719 755.207C874.719 750.681 876.395 747.186 879.746 744.723C883.126 742.23 888.01 740.784 894.398 740.383L904.797 739.738V737.418C904.797 735.871 904.267 734.668 903.207 733.809C902.147 732.949 900.772 732.52 899.082 732.52C897.335 732.52 895.902 732.935 894.785 733.766C893.668 734.596 893.038 735.642 892.895 736.902H877.168C877.397 731.803 879.546 727.779 883.613 724.828C887.681 721.849 893.152 720.359 900.027 720.359C906.587 720.359 911.887 721.863 915.926 724.871C919.965 727.85 921.984 731.746 921.984 736.559V769H904.797V762.641H904.453C903.25 764.875 901.374 766.608 898.824 767.84C896.303 769.072 893.596 769.688 890.703 769.688ZM927.828 736.301C927.828 731.345 929.805 727.449 933.758 724.613C937.711 721.777 943.139 720.359 950.043 720.359C956.975 720.359 962.389 721.82 966.285 724.742C970.21 727.664 972.172 731.717 972.172 736.902H956.188C956.188 735.355 955.615 734.138 954.469 733.25C953.352 732.333 951.833 731.875 949.914 731.875C948.339 731.875 947.064 732.176 946.09 732.777C945.145 733.35 944.672 734.138 944.672 735.141C944.672 736.63 946.204 737.661 949.27 738.234L959.969 740.34C964.667 741.257 968.104 742.775 970.281 744.895C972.487 746.986 973.59 749.836 973.59 753.445C973.59 758.573 971.47 762.655 967.23 765.691C963.02 768.699 957.419 770.203 950.43 770.203C943.125 770.203 937.424 768.728 933.328 765.777C929.26 762.798 927.069 758.745 926.754 753.617H943.77C943.941 755.193 944.629 756.439 945.832 757.355C947.064 758.243 948.668 758.688 950.645 758.688C952.363 758.688 953.71 758.415 954.684 757.871C955.658 757.298 956.145 756.525 956.145 755.551C956.145 754.806 955.801 754.204 955.113 753.746C954.426 753.259 953.28 752.872 951.676 752.586L942.523 750.781C937.74 749.836 934.087 748.132 931.566 745.668C929.074 743.176 927.828 740.053 927.828 736.301ZM995.074 769V721.562H1012.69V769H995.074ZM1010.11 716.578C1008.45 718.154 1006.38 718.941 1003.88 718.941C1001.39 718.941 999.299 718.154 997.609 716.578C995.948 714.974 995.117 712.983 995.117 710.605C995.117 708.228 995.948 706.251 997.609 704.676C999.299 703.072 1001.39 702.27 1003.88 702.27C1006.38 702.27 1008.45 703.072 1010.11 704.676C1011.8 706.251 1012.65 708.228 1012.65 710.605C1012.65 712.983 1011.8 714.974 1010.11 716.578ZM1019.31 769V721.562H1036.5V731.145H1036.84C1037.73 727.936 1039.4 725.387 1041.87 723.496C1044.33 721.577 1047.18 720.617 1050.42 720.617C1054.03 720.617 1056.98 721.534 1059.27 723.367C1061.59 725.172 1063.04 727.736 1063.61 731.059H1063.95C1064.76 727.908 1066.47 725.387 1069.11 723.496C1071.77 721.577 1074.91 720.617 1078.52 720.617C1083.13 720.617 1086.88 722.135 1089.78 725.172C1092.67 728.18 1094.12 732.104 1094.12 736.945V769H1076.5V741.5C1076.5 737.003 1074.58 734.754 1070.74 734.754C1068.97 734.754 1067.58 735.355 1066.57 736.559C1065.57 737.733 1065.07 739.366 1065.07 741.457V769H1048.36V741.543C1048.36 737.017 1046.45 734.754 1042.64 734.754C1040.86 734.754 1039.46 735.355 1038.43 736.559C1037.43 737.762 1036.93 739.395 1036.93 741.457V769H1019.31ZM1132.7 720.875C1138.66 720.875 1143.24 722.98 1146.45 727.191C1149.66 731.402 1151.27 737.432 1151.27 745.281C1151.27 753.102 1149.68 759.132 1146.5 763.371C1143.32 767.582 1138.79 769.688 1132.92 769.688C1129.45 769.688 1126.47 768.914 1123.98 767.367C1121.49 765.792 1119.68 763.6 1118.57 760.793H1118.22V784.168H1100.61V721.562H1118.27V730.113H1118.57C1119.71 727.191 1121.5 724.928 1123.94 723.324C1126.4 721.691 1129.32 720.875 1132.7 720.875ZM1120.2 753.23C1121.55 755.15 1123.38 756.109 1125.7 756.109C1128.02 756.109 1129.85 755.135 1131.2 753.188C1132.55 751.24 1133.22 748.604 1133.22 745.281C1133.22 741.987 1132.53 739.366 1131.16 737.418C1129.81 735.441 1127.99 734.453 1125.7 734.453C1123.41 734.453 1121.57 735.441 1120.2 737.418C1118.85 739.366 1118.17 742.001 1118.14 745.324C1118.17 748.647 1118.85 751.283 1120.2 753.23ZM1180.44 770.203C1172.65 770.203 1166.55 768.04 1162.14 763.715C1157.73 759.361 1155.52 753.202 1155.52 745.238C1155.52 737.475 1157.75 731.388 1162.22 726.977C1166.72 722.565 1172.79 720.359 1180.44 720.359C1188.15 720.359 1194.23 722.565 1198.7 726.977C1203.17 731.359 1205.41 737.447 1205.41 745.238C1205.41 753.202 1203.2 759.361 1198.79 763.715C1194.38 768.04 1188.26 770.203 1180.44 770.203ZM1180.44 757.613C1182.65 757.613 1184.38 756.539 1185.64 754.391C1186.9 752.242 1187.53 749.206 1187.53 745.281C1187.53 741.443 1186.89 738.435 1185.6 736.258C1184.34 734.052 1182.62 732.949 1180.44 732.949C1178.26 732.949 1176.55 734.052 1175.29 736.258C1174.02 738.435 1173.39 741.443 1173.39 745.281C1173.39 749.234 1174.01 752.285 1175.24 754.434C1176.47 756.553 1178.21 757.613 1180.44 757.613ZM1210.86 769V721.562H1228.05V730.887H1228.39C1230.17 724.212 1233.87 720.875 1239.48 720.875C1241 720.875 1242.37 721.104 1243.61 721.562V736.344C1242.06 735.685 1240.35 735.355 1238.49 735.355C1231.82 735.355 1228.48 738.693 1228.48 745.367V769H1210.86ZM1252.07 711.164H1269.69V721.562H1278.02V734.324H1269.69V751.855C1269.69 754.863 1271.46 756.367 1275.02 756.367C1276.16 756.367 1277.16 756.296 1278.02 756.152V768.355C1275.93 768.785 1273.51 769 1270.76 769C1264.09 769 1259.3 767.969 1256.41 765.906C1253.52 763.844 1252.07 760.464 1252.07 755.766V734.324H1245.8V721.562H1252.07V711.164ZM1304.62 757.914C1306.65 757.914 1308.42 757.398 1309.91 756.367C1311.4 755.307 1312.14 753.932 1312.14 752.242V749.148L1304.66 749.664C1303 749.779 1301.71 750.208 1300.8 750.953C1299.88 751.698 1299.42 752.658 1299.42 753.832C1299.42 755.092 1299.89 756.095 1300.84 756.84C1301.79 757.556 1303.05 757.914 1304.62 757.914ZM1298.05 769.688C1293.64 769.688 1289.87 768.327 1286.75 765.605C1283.62 762.855 1282.06 759.389 1282.06 755.207C1282.06 750.681 1283.74 747.186 1287.09 744.723C1290.47 742.23 1295.35 740.784 1301.74 740.383L1312.14 739.738V737.418C1312.14 735.871 1311.61 734.668 1310.55 733.809C1309.49 732.949 1308.12 732.52 1306.43 732.52C1304.68 732.52 1303.25 732.935 1302.13 733.766C1301.01 734.596 1300.38 735.642 1300.24 736.902H1284.51C1284.74 731.803 1286.89 727.779 1290.96 724.828C1295.02 721.849 1300.5 720.359 1307.37 720.359C1313.93 720.359 1319.23 721.863 1323.27 724.871C1327.31 727.85 1329.33 731.746 1329.33 736.559V769H1312.14V762.641H1311.8C1310.59 764.875 1308.72 766.608 1306.17 767.84C1303.65 769.072 1300.94 769.688 1298.05 769.688ZM1335.99 769V721.562H1353.18V731.145H1353.52C1354.41 727.936 1356.08 725.387 1358.55 723.496C1361.01 721.577 1363.86 720.617 1367.1 720.617C1370.71 720.617 1373.66 721.534 1375.95 723.367C1378.27 725.172 1379.72 727.736 1380.29 731.059H1380.63C1381.43 727.908 1383.15 725.387 1385.79 723.496C1388.45 721.577 1391.59 720.617 1395.2 720.617C1399.81 720.617 1403.56 722.135 1406.46 725.172C1409.35 728.18 1410.8 732.104 1410.8 736.945V769H1393.18V741.5C1393.18 737.003 1391.26 734.754 1387.42 734.754C1385.65 734.754 1384.26 735.355 1383.25 736.559C1382.25 737.733 1381.75 739.366 1381.75 741.457V769H1365.04V741.543C1365.04 737.017 1363.13 734.754 1359.32 734.754C1357.54 734.754 1356.14 735.355 1355.11 736.559C1354.11 737.762 1353.61 739.395 1353.61 741.457V769H1335.99Z" fill="#28282A"/>
<path opacity="0.05" d="M454.742 353H431.109L412.289 290.996H433.258L443.184 335.727H443.527L453.453 290.996H473.562L454.742 353ZM478.16 353V305.562H495.777V353H478.16ZM493.199 300.578C491.538 302.154 489.461 302.941 486.969 302.941C484.477 302.941 482.385 302.154 480.695 300.578C479.034 298.974 478.203 296.983 478.203 294.605C478.203 292.228 479.034 290.251 480.695 288.676C482.385 287.072 484.477 286.27 486.969 286.27C489.461 286.27 491.538 287.072 493.199 288.676C494.889 290.251 495.734 292.228 495.734 294.605C495.734 296.983 494.889 298.974 493.199 300.578ZM519.668 353.688C513.824 353.688 509.284 351.539 506.047 347.242C502.81 342.917 501.191 336.887 501.191 329.152C501.191 321.533 502.839 315.589 506.133 311.32C509.456 307.023 514.068 304.875 519.969 304.875C523.349 304.875 526.271 305.734 528.734 307.453C531.227 309.143 532.945 311.363 533.891 314.113H534.234V290.996H551.852V353H534.234V344.793H533.891C533.06 347.342 531.341 349.462 528.734 351.152C526.156 352.842 523.134 353.688 519.668 353.688ZM532.301 321.332C530.954 319.413 529.107 318.453 526.758 318.453C524.409 318.453 522.561 319.427 521.215 321.375C519.897 323.294 519.238 325.93 519.238 329.281C519.238 332.69 519.897 335.354 521.215 337.273C522.533 339.164 524.38 340.109 526.758 340.109C529.135 340.109 530.983 339.164 532.301 337.273C533.647 335.383 534.32 332.733 534.32 329.324C534.32 325.915 533.647 323.251 532.301 321.332ZM579.309 341.914C581.342 341.914 583.104 341.398 584.594 340.367C586.083 339.307 586.828 337.932 586.828 336.242V333.148L579.352 333.664C577.69 333.779 576.401 334.208 575.484 334.953C574.568 335.698 574.109 336.658 574.109 337.832C574.109 339.092 574.582 340.095 575.527 340.84C576.473 341.556 577.733 341.914 579.309 341.914ZM572.734 353.688C568.323 353.688 564.556 352.327 561.434 349.605C558.311 346.855 556.75 343.389 556.75 339.207C556.75 334.681 558.426 331.186 561.777 328.723C565.158 326.23 570.042 324.784 576.43 324.383L586.828 323.738V321.418C586.828 319.871 586.298 318.668 585.238 317.809C584.178 316.949 582.803 316.52 581.113 316.52C579.366 316.52 577.934 316.935 576.816 317.766C575.699 318.596 575.069 319.642 574.926 320.902H559.199C559.428 315.803 561.577 311.779 565.645 308.828C569.712 305.849 575.184 304.359 582.059 304.359C588.618 304.359 593.918 305.863 597.957 308.871C601.996 311.85 604.016 315.746 604.016 320.559V353H586.828V346.641H586.484C585.281 348.875 583.405 350.608 580.855 351.84C578.335 353.072 575.628 353.688 572.734 353.688ZM609.859 320.301C609.859 315.345 611.836 311.449 615.789 308.613C619.742 305.777 625.171 304.359 632.074 304.359C639.007 304.359 644.421 305.82 648.316 308.742C652.241 311.664 654.203 315.717 654.203 320.902H638.219C638.219 319.355 637.646 318.138 636.5 317.25C635.383 316.333 633.865 315.875 631.945 315.875C630.37 315.875 629.095 316.176 628.121 316.777C627.176 317.35 626.703 318.138 626.703 319.141C626.703 320.63 628.236 321.661 631.301 322.234L642 324.34C646.698 325.257 650.135 326.775 652.312 328.895C654.518 330.986 655.621 333.836 655.621 337.445C655.621 342.573 653.501 346.655 649.262 349.691C645.051 352.699 639.451 354.203 632.461 354.203C625.156 354.203 619.456 352.728 615.359 349.777C611.292 346.798 609.1 342.745 608.785 337.617H625.801C625.973 339.193 626.66 340.439 627.863 341.355C629.095 342.243 630.699 342.688 632.676 342.688C634.395 342.688 635.741 342.415 636.715 341.871C637.689 341.298 638.176 340.525 638.176 339.551C638.176 338.806 637.832 338.204 637.145 337.746C636.457 337.259 635.311 336.872 633.707 336.586L624.555 334.781C619.771 333.836 616.118 332.132 613.598 329.668C611.105 327.176 609.859 324.053 609.859 320.301ZM677.105 353V305.562H694.293V314.887H694.637C695.84 311.535 697.673 308.986 700.137 307.238C702.6 305.491 705.622 304.617 709.203 304.617C714.503 304.617 718.57 306.193 721.406 309.344C724.271 312.466 725.703 316.892 725.703 322.621V353H708.086V326.531C708.086 324.096 707.513 322.206 706.367 320.859C705.25 319.513 703.603 318.84 701.426 318.84C699.363 318.84 697.73 319.556 696.527 320.988C695.324 322.392 694.723 324.225 694.723 326.488V353H677.105ZM755.523 316.477C753.518 316.477 751.828 317.135 750.453 318.453C749.078 319.771 748.305 321.447 748.133 323.48H762.914C762.771 321.361 762.012 319.671 760.637 318.41C759.29 317.121 757.586 316.477 755.523 316.477ZM763.43 337.617H779.113C778.368 342.745 775.905 346.798 771.723 349.777C767.54 352.728 762.198 354.203 755.695 354.203C747.932 354.203 741.859 352.026 737.477 347.672C733.094 343.289 730.902 337.245 730.902 329.539C730.902 321.776 733.079 315.646 737.434 311.148C741.788 306.622 747.689 304.359 755.137 304.359C762.499 304.359 768.371 306.536 772.754 310.891C777.137 315.216 779.328 321.003 779.328 328.25V333.02H747.875V334.137C747.875 336.457 748.634 338.376 750.152 339.895C751.671 341.384 753.604 342.129 755.953 342.129C757.758 342.129 759.319 341.728 760.637 340.926C761.983 340.124 762.914 339.021 763.43 337.617ZM803.477 337.016C804.794 338.792 806.656 339.68 809.062 339.68C811.469 339.68 813.331 338.806 814.648 337.059C815.966 335.283 816.625 332.704 816.625 329.324C816.625 325.944 815.952 323.294 814.605 321.375C813.259 319.427 811.411 318.453 809.062 318.453C806.714 318.453 804.866 319.427 803.52 321.375C802.202 323.294 801.543 325.93 801.543 329.281C801.543 332.661 802.188 335.24 803.477 337.016ZM808.375 370.875C801.328 370.875 795.685 369.486 791.445 366.707C787.234 363.957 784.943 360.333 784.57 355.836H801.5C801.758 356.982 802.546 357.913 803.863 358.629C805.181 359.374 806.814 359.746 808.762 359.746C811.311 359.746 813.245 359.145 814.562 357.941C815.88 356.738 816.539 355.105 816.539 353.043V343.934H816.195C815.422 346.454 813.746 348.503 811.168 350.078C808.59 351.625 805.539 352.398 802.016 352.398C796.372 352.398 791.875 350.365 788.523 346.297C785.172 342.201 783.496 336.486 783.496 329.152C783.496 321.533 785.143 315.589 788.438 311.32C791.76 307.023 796.372 304.875 802.273 304.875C805.654 304.875 808.576 305.734 811.039 307.453C813.531 309.143 815.25 311.363 816.195 314.113H816.539V305.562H834.156V352.613C834.156 358.199 831.779 362.639 827.023 365.934C822.297 369.228 816.081 370.875 808.375 370.875ZM840.816 353V305.562H858.004V314.887H858.348C860.124 308.212 863.819 304.875 869.434 304.875C870.952 304.875 872.327 305.104 873.559 305.562V320.344C872.012 319.685 870.307 319.355 868.445 319.355C861.771 319.355 858.434 322.693 858.434 329.367V353H840.816ZM897.277 341.914C899.311 341.914 901.073 341.398 902.562 340.367C904.052 339.307 904.797 337.932 904.797 336.242V333.148L897.32 333.664C895.659 333.779 894.37 334.208 893.453 334.953C892.536 335.698 892.078 336.658 892.078 337.832C892.078 339.092 892.551 340.095 893.496 340.84C894.441 341.556 895.702 341.914 897.277 341.914ZM890.703 353.688C886.292 353.688 882.525 352.327 879.402 349.605C876.28 346.855 874.719 343.389 874.719 339.207C874.719 334.681 876.395 331.186 879.746 328.723C883.126 326.23 888.01 324.784 894.398 324.383L904.797 323.738V321.418C904.797 319.871 904.267 318.668 903.207 317.809C902.147 316.949 900.772 316.52 899.082 316.52C897.335 316.52 895.902 316.935 894.785 317.766C893.668 318.596 893.038 319.642 892.895 320.902H877.168C877.397 315.803 879.546 311.779 883.613 308.828C887.681 305.849 893.152 304.359 900.027 304.359C906.587 304.359 911.887 305.863 915.926 308.871C919.965 311.85 921.984 315.746 921.984 320.559V353H904.797V346.641H904.453C903.25 348.875 901.374 350.608 898.824 351.84C896.303 353.072 893.596 353.688 890.703 353.688ZM927.828 320.301C927.828 315.345 929.805 311.449 933.758 308.613C937.711 305.777 943.139 304.359 950.043 304.359C956.975 304.359 962.389 305.82 966.285 308.742C970.21 311.664 972.172 315.717 972.172 320.902H956.188C956.188 319.355 955.615 318.138 954.469 317.25C953.352 316.333 951.833 315.875 949.914 315.875C948.339 315.875 947.064 316.176 946.09 316.777C945.145 317.35 944.672 318.138 944.672 319.141C944.672 320.63 946.204 321.661 949.27 322.234L959.969 324.34C964.667 325.257 968.104 326.775 970.281 328.895C972.487 330.986 973.59 333.836 973.59 337.445C973.59 342.573 971.47 346.655 967.23 349.691C963.02 352.699 957.419 354.203 950.43 354.203C943.125 354.203 937.424 352.728 933.328 349.777C929.26 346.798 927.069 342.745 926.754 337.617H943.77C943.941 339.193 944.629 340.439 945.832 341.355C947.064 342.243 948.668 342.688 950.645 342.688C952.363 342.688 953.71 342.415 954.684 341.871C955.658 341.298 956.145 340.525 956.145 339.551C956.145 338.806 955.801 338.204 955.113 337.746C954.426 337.259 953.28 336.872 951.676 336.586L942.523 334.781C937.74 333.836 934.087 332.132 931.566 329.668C929.074 327.176 927.828 324.053 927.828 320.301ZM995.074 353V305.562H1012.69V353H995.074ZM1010.11 300.578C1008.45 302.154 1006.38 302.941 1003.88 302.941C1001.39 302.941 999.299 302.154 997.609 300.578C995.948 298.974 995.117 296.983 995.117 294.605C995.117 292.228 995.948 290.251 997.609 288.676C999.299 287.072 1001.39 286.27 1003.88 286.27C1006.38 286.27 1008.45 287.072 1010.11 288.676C1011.8 290.251 1012.65 292.228 1012.65 294.605C1012.65 296.983 1011.8 298.974 1010.11 300.578ZM1019.31 353V305.562H1036.5V315.145H1036.84C1037.73 311.936 1039.4 309.387 1041.87 307.496C1044.33 305.577 1047.18 304.617 1050.42 304.617C1054.03 304.617 1056.98 305.534 1059.27 307.367C1061.59 309.172 1063.04 311.736 1063.61 315.059H1063.95C1064.76 311.908 1066.47 309.387 1069.11 307.496C1071.77 305.577 1074.91 304.617 1078.52 304.617C1083.13 304.617 1086.88 306.135 1089.78 309.172C1092.67 312.18 1094.12 316.104 1094.12 320.945V353H1076.5V325.5C1076.5 321.003 1074.58 318.754 1070.74 318.754C1068.97 318.754 1067.58 319.355 1066.57 320.559C1065.57 321.733 1065.07 323.366 1065.07 325.457V353H1048.36V325.543C1048.36 321.017 1046.45 318.754 1042.64 318.754C1040.86 318.754 1039.46 319.355 1038.43 320.559C1037.43 321.762 1036.93 323.395 1036.93 325.457V353H1019.31ZM1132.7 304.875C1138.66 304.875 1143.24 306.98 1146.45 311.191C1149.66 315.402 1151.27 321.432 1151.27 329.281C1151.27 337.102 1149.68 343.132 1146.5 347.371C1143.32 351.582 1138.79 353.688 1132.92 353.688C1129.45 353.688 1126.47 352.914 1123.98 351.367C1121.49 349.792 1119.68 347.6 1118.57 344.793H1118.22V368.168H1100.61V305.562H1118.27V314.113H1118.57C1119.71 311.191 1121.5 308.928 1123.94 307.324C1126.4 305.691 1129.32 304.875 1132.7 304.875ZM1120.2 337.23C1121.55 339.15 1123.38 340.109 1125.7 340.109C1128.02 340.109 1129.85 339.135 1131.2 337.188C1132.55 335.24 1133.22 332.604 1133.22 329.281C1133.22 325.987 1132.53 323.366 1131.16 321.418C1129.81 319.441 1127.99 318.453 1125.7 318.453C1123.41 318.453 1121.57 319.441 1120.2 321.418C1118.85 323.366 1118.17 326.001 1118.14 329.324C1118.17 332.647 1118.85 335.283 1120.2 337.23ZM1180.44 354.203C1172.65 354.203 1166.55 352.04 1162.14 347.715C1157.73 343.361 1155.52 337.202 1155.52 329.238C1155.52 321.475 1157.75 315.388 1162.22 310.977C1166.72 306.565 1172.79 304.359 1180.44 304.359C1188.15 304.359 1194.23 306.565 1198.7 310.977C1203.17 315.359 1205.41 321.447 1205.41 329.238C1205.41 337.202 1203.2 343.361 1198.79 347.715C1194.38 352.04 1188.26 354.203 1180.44 354.203ZM1180.44 341.613C1182.65 341.613 1184.38 340.539 1185.64 338.391C1186.9 336.242 1187.53 333.206 1187.53 329.281C1187.53 325.443 1186.89 322.435 1185.6 320.258C1184.34 318.052 1182.62 316.949 1180.44 316.949C1178.26 316.949 1176.55 318.052 1175.29 320.258C1174.02 322.435 1173.39 325.443 1173.39 329.281C1173.39 333.234 1174.01 336.285 1175.24 338.434C1176.47 340.553 1178.21 341.613 1180.44 341.613ZM1210.86 353V305.562H1228.05V314.887H1228.39C1230.17 308.212 1233.87 304.875 1239.48 304.875C1241 304.875 1242.37 305.104 1243.61 305.562V320.344C1242.06 319.685 1240.35 319.355 1238.49 319.355C1231.82 319.355 1228.48 322.693 1228.48 329.367V353H1210.86ZM1252.07 295.164H1269.69V305.562H1278.02V318.324H1269.69V335.855C1269.69 338.863 1271.46 340.367 1275.02 340.367C1276.16 340.367 1277.16 340.296 1278.02 340.152V352.355C1275.93 352.785 1273.51 353 1270.76 353C1264.09 353 1259.3 351.969 1256.41 349.906C1253.52 347.844 1252.07 344.464 1252.07 339.766V318.324H1245.8V305.562H1252.07V295.164ZM1304.62 341.914C1306.65 341.914 1308.42 341.398 1309.91 340.367C1311.4 339.307 1312.14 337.932 1312.14 336.242V333.148L1304.66 333.664C1303 333.779 1301.71 334.208 1300.8 334.953C1299.88 335.698 1299.42 336.658 1299.42 337.832C1299.42 339.092 1299.89 340.095 1300.84 340.84C1301.79 341.556 1303.05 341.914 1304.62 341.914ZM1298.05 353.688C1293.64 353.688 1289.87 352.327 1286.75 349.605C1283.62 346.855 1282.06 343.389 1282.06 339.207C1282.06 334.681 1283.74 331.186 1287.09 328.723C1290.47 326.23 1295.35 324.784 1301.74 324.383L1312.14 323.738V321.418C1312.14 319.871 1311.61 318.668 1310.55 317.809C1309.49 316.949 1308.12 316.52 1306.43 316.52C1304.68 316.52 1303.25 316.935 1302.13 317.766C1301.01 318.596 1300.38 319.642 1300.24 320.902H1284.51C1284.74 315.803 1286.89 311.779 1290.96 308.828C1295.02 305.849 1300.5 304.359 1307.37 304.359C1313.93 304.359 1319.23 305.863 1323.27 308.871C1327.31 311.85 1329.33 315.746 1329.33 320.559V353H1312.14V346.641H1311.8C1310.59 348.875 1308.72 350.608 1306.17 351.84C1303.65 353.072 1300.94 353.688 1298.05 353.688ZM1335.99 353V305.562H1353.18V315.145H1353.52C1354.41 311.936 1356.08 309.387 1358.55 307.496C1361.01 305.577 1363.86 304.617 1367.1 304.617C1370.71 304.617 1373.66 305.534 1375.95 307.367C1378.27 309.172 1379.72 311.736 1380.29 315.059H1380.63C1381.43 311.908 1383.15 309.387 1385.79 307.496C1388.45 305.577 1391.59 304.617 1395.2 304.617C1399.81 304.617 1403.56 306.135 1406.46 309.172C1409.35 312.18 1410.8 316.104 1410.8 320.945V353H1393.18V325.5C1393.18 321.003 1391.26 318.754 1387.42 318.754C1385.65 318.754 1384.26 319.355 1383.25 320.559C1382.25 321.733 1381.75 323.366 1381.75 325.457V353H1365.04V325.543C1365.04 321.017 1363.13 318.754 1359.32 318.754C1357.54 318.754 1356.14 319.355 1355.11 320.559C1354.11 321.762 1353.61 323.395 1353.61 325.457V353H1335.99Z" fill="#28282A"/>
<path d="M454.742 561H431.109L412.289 498.996H433.258L443.184 543.727H443.527L453.453 498.996H473.562L454.742 561ZM478.16 561V513.562H495.777V561H478.16ZM493.199 508.578C491.538 510.154 489.461 510.941 486.969 510.941C484.477 510.941 482.385 510.154 480.695 508.578C479.034 506.974 478.203 504.983 478.203 502.605C478.203 500.228 479.034 498.251 480.695 496.676C482.385 495.072 484.477 494.27 486.969 494.27C489.461 494.27 491.538 495.072 493.199 496.676C494.889 498.251 495.734 500.228 495.734 502.605C495.734 504.983 494.889 506.974 493.199 508.578ZM519.668 561.688C513.824 561.688 509.284 559.539 506.047 555.242C502.81 550.917 501.191 544.887 501.191 537.152C501.191 529.533 502.839 523.589 506.133 519.32C509.456 515.023 514.068 512.875 519.969 512.875C523.349 512.875 526.271 513.734 528.734 515.453C531.227 517.143 532.945 519.363 533.891 522.113H534.234V498.996H551.852V561H534.234V552.793H533.891C533.06 555.342 531.341 557.462 528.734 559.152C526.156 560.842 523.134 561.688 519.668 561.688ZM532.301 529.332C530.954 527.413 529.107 526.453 526.758 526.453C524.409 526.453 522.561 527.427 521.215 529.375C519.897 531.294 519.238 533.93 519.238 537.281C519.238 540.69 519.897 543.354 521.215 545.273C522.533 547.164 524.38 548.109 526.758 548.109C529.135 548.109 530.983 547.164 532.301 545.273C533.647 543.383 534.32 540.733 534.32 537.324C534.32 533.915 533.647 531.251 532.301 529.332ZM579.309 549.914C581.342 549.914 583.104 549.398 584.594 548.367C586.083 547.307 586.828 545.932 586.828 544.242V541.148L579.352 541.664C577.69 541.779 576.401 542.208 575.484 542.953C574.568 543.698 574.109 544.658 574.109 545.832C574.109 547.092 574.582 548.095 575.527 548.84C576.473 549.556 577.733 549.914 579.309 549.914ZM572.734 561.688C568.323 561.688 564.556 560.327 561.434 557.605C558.311 554.855 556.75 551.389 556.75 547.207C556.75 542.681 558.426 539.186 561.777 536.723C565.158 534.23 570.042 532.784 576.43 532.383L586.828 531.738V529.418C586.828 527.871 586.298 526.668 585.238 525.809C584.178 524.949 582.803 524.52 581.113 524.52C579.366 524.52 577.934 524.935 576.816 525.766C575.699 526.596 575.069 527.642 574.926 528.902H559.199C559.428 523.803 561.577 519.779 565.645 516.828C569.712 513.849 575.184 512.359 582.059 512.359C588.618 512.359 593.918 513.863 597.957 516.871C601.996 519.85 604.016 523.746 604.016 528.559V561H586.828V554.641H586.484C585.281 556.875 583.405 558.608 580.855 559.84C578.335 561.072 575.628 561.688 572.734 561.688ZM609.859 528.301C609.859 523.345 611.836 519.449 615.789 516.613C619.742 513.777 625.171 512.359 632.074 512.359C639.007 512.359 644.421 513.82 648.316 516.742C652.241 519.664 654.203 523.717 654.203 528.902H638.219C638.219 527.355 637.646 526.138 636.5 525.25C635.383 524.333 633.865 523.875 631.945 523.875C630.37 523.875 629.095 524.176 628.121 524.777C627.176 525.35 626.703 526.138 626.703 527.141C626.703 528.63 628.236 529.661 631.301 530.234L642 532.34C646.698 533.257 650.135 534.775 652.312 536.895C654.518 538.986 655.621 541.836 655.621 545.445C655.621 550.573 653.501 554.655 649.262 557.691C645.051 560.699 639.451 562.203 632.461 562.203C625.156 562.203 619.456 560.728 615.359 557.777C611.292 554.798 609.1 550.745 608.785 545.617H625.801C625.973 547.193 626.66 548.439 627.863 549.355C629.095 550.243 630.699 550.688 632.676 550.688C634.395 550.688 635.741 550.415 636.715 549.871C637.689 549.298 638.176 548.525 638.176 547.551C638.176 546.806 637.832 546.204 637.145 545.746C636.457 545.259 635.311 544.872 633.707 544.586L624.555 542.781C619.771 541.836 616.118 540.132 613.598 537.668C611.105 535.176 609.859 532.053 609.859 528.301ZM677.105 561V513.562H694.293V522.887H694.637C695.84 519.535 697.673 516.986 700.137 515.238C702.6 513.491 705.622 512.617 709.203 512.617C714.503 512.617 718.57 514.193 721.406 517.344C724.271 520.466 725.703 524.892 725.703 530.621V561H708.086V534.531C708.086 532.096 707.513 530.206 706.367 528.859C705.25 527.513 703.603 526.84 701.426 526.84C699.363 526.84 697.73 527.556 696.527 528.988C695.324 530.392 694.723 532.225 694.723 534.488V561H677.105ZM755.523 524.477C753.518 524.477 751.828 525.135 750.453 526.453C749.078 527.771 748.305 529.447 748.133 531.48H762.914C762.771 529.361 762.012 527.671 760.637 526.41C759.29 525.121 757.586 524.477 755.523 524.477ZM763.43 545.617H779.113C778.368 550.745 775.905 554.798 771.723 557.777C767.54 560.728 762.198 562.203 755.695 562.203C747.932 562.203 741.859 560.026 737.477 555.672C733.094 551.289 730.902 545.245 730.902 537.539C730.902 529.776 733.079 523.646 737.434 519.148C741.788 514.622 747.689 512.359 755.137 512.359C762.499 512.359 768.371 514.536 772.754 518.891C777.137 523.216 779.328 529.003 779.328 536.25V541.02H747.875V542.137C747.875 544.457 748.634 546.376 750.152 547.895C751.671 549.384 753.604 550.129 755.953 550.129C757.758 550.129 759.319 549.728 760.637 548.926C761.983 548.124 762.914 547.021 763.43 545.617ZM803.477 545.016C804.794 546.792 806.656 547.68 809.062 547.68C811.469 547.68 813.331 546.806 814.648 545.059C815.966 543.283 816.625 540.704 816.625 537.324C816.625 533.944 815.952 531.294 814.605 529.375C813.259 527.427 811.411 526.453 809.062 526.453C806.714 526.453 804.866 527.427 803.52 529.375C802.202 531.294 801.543 533.93 801.543 537.281C801.543 540.661 802.188 543.24 803.477 545.016ZM808.375 578.875C801.328 578.875 795.685 577.486 791.445 574.707C787.234 571.957 784.943 568.333 784.57 563.836H801.5C801.758 564.982 802.546 565.913 803.863 566.629C805.181 567.374 806.814 567.746 808.762 567.746C811.311 567.746 813.245 567.145 814.562 565.941C815.88 564.738 816.539 563.105 816.539 561.043V551.934H816.195C815.422 554.454 813.746 556.503 811.168 558.078C808.59 559.625 805.539 560.398 802.016 560.398C796.372 560.398 791.875 558.365 788.523 554.297C785.172 550.201 783.496 544.486 783.496 537.152C783.496 529.533 785.143 523.589 788.438 519.32C791.76 515.023 796.372 512.875 802.273 512.875C805.654 512.875 808.576 513.734 811.039 515.453C813.531 517.143 815.25 519.363 816.195 522.113H816.539V513.562H834.156V560.613C834.156 566.199 831.779 570.639 827.023 573.934C822.297 577.228 816.081 578.875 808.375 578.875ZM840.816 561V513.562H858.004V522.887H858.348C860.124 516.212 863.819 512.875 869.434 512.875C870.952 512.875 872.327 513.104 873.559 513.562V528.344C872.012 527.685 870.307 527.355 868.445 527.355C861.771 527.355 858.434 530.693 858.434 537.367V561H840.816ZM897.277 549.914C899.311 549.914 901.073 549.398 902.562 548.367C904.052 547.307 904.797 545.932 904.797 544.242V541.148L897.32 541.664C895.659 541.779 894.37 542.208 893.453 542.953C892.536 543.698 892.078 544.658 892.078 545.832C892.078 547.092 892.551 548.095 893.496 548.84C894.441 549.556 895.702 549.914 897.277 549.914ZM890.703 561.688C886.292 561.688 882.525 560.327 879.402 557.605C876.28 554.855 874.719 551.389 874.719 547.207C874.719 542.681 876.395 539.186 879.746 536.723C883.126 534.23 888.01 532.784 894.398 532.383L904.797 531.738V529.418C904.797 527.871 904.267 526.668 903.207 525.809C902.147 524.949 900.772 524.52 899.082 524.52C897.335 524.52 895.902 524.935 894.785 525.766C893.668 526.596 893.038 527.642 892.895 528.902H877.168C877.397 523.803 879.546 519.779 883.613 516.828C887.681 513.849 893.152 512.359 900.027 512.359C906.587 512.359 911.887 513.863 915.926 516.871C919.965 519.85 921.984 523.746 921.984 528.559V561H904.797V554.641H904.453C903.25 556.875 901.374 558.608 898.824 559.84C896.303 561.072 893.596 561.688 890.703 561.688ZM927.828 528.301C927.828 523.345 929.805 519.449 933.758 516.613C937.711 513.777 943.139 512.359 950.043 512.359C956.975 512.359 962.389 513.82 966.285 516.742C970.21 519.664 972.172 523.717 972.172 528.902H956.188C956.188 527.355 955.615 526.138 954.469 525.25C953.352 524.333 951.833 523.875 949.914 523.875C948.339 523.875 947.064 524.176 946.09 524.777C945.145 525.35 944.672 526.138 944.672 527.141C944.672 528.63 946.204 529.661 949.27 530.234L959.969 532.34C964.667 533.257 968.104 534.775 970.281 536.895C972.487 538.986 973.59 541.836 973.59 545.445C973.59 550.573 971.47 554.655 967.23 557.691C963.02 560.699 957.419 562.203 950.43 562.203C943.125 562.203 937.424 560.728 933.328 557.777C929.26 554.798 927.069 550.745 926.754 545.617H943.77C943.941 547.193 944.629 548.439 945.832 549.355C947.064 550.243 948.668 550.688 950.645 550.688C952.363 550.688 953.71 550.415 954.684 549.871C955.658 549.298 956.145 548.525 956.145 547.551C956.145 546.806 955.801 546.204 955.113 545.746C954.426 545.259 953.28 544.872 951.676 544.586L942.523 542.781C937.74 541.836 934.087 540.132 931.566 537.668C929.074 535.176 927.828 532.053 927.828 528.301ZM995.074 561V513.562H1012.69V561H995.074ZM1010.11 508.578C1008.45 510.154 1006.38 510.941 1003.88 510.941C1001.39 510.941 999.299 510.154 997.609 508.578C995.948 506.974 995.117 504.983 995.117 502.605C995.117 500.228 995.948 498.251 997.609 496.676C999.299 495.072 1001.39 494.27 1003.88 494.27C1006.38 494.27 1008.45 495.072 1010.11 496.676C1011.8 498.251 1012.65 500.228 1012.65 502.605C1012.65 504.983 1011.8 506.974 1010.11 508.578ZM1019.31 561V513.562H1036.5V523.145H1036.84C1037.73 519.936 1039.4 517.387 1041.87 515.496C1044.33 513.577 1047.18 512.617 1050.42 512.617C1054.03 512.617 1056.98 513.534 1059.27 515.367C1061.59 517.172 1063.04 519.736 1063.61 523.059H1063.95C1064.76 519.908 1066.47 517.387 1069.11 515.496C1071.77 513.577 1074.91 512.617 1078.52 512.617C1083.13 512.617 1086.88 514.135 1089.78 517.172C1092.67 520.18 1094.12 524.104 1094.12 528.945V561H1076.5V533.5C1076.5 529.003 1074.58 526.754 1070.74 526.754C1068.97 526.754 1067.58 527.355 1066.57 528.559C1065.57 529.733 1065.07 531.366 1065.07 533.457V561H1048.36V533.543C1048.36 529.017 1046.45 526.754 1042.64 526.754C1040.86 526.754 1039.46 527.355 1038.43 528.559C1037.43 529.762 1036.93 531.395 1036.93 533.457V561H1019.31ZM1132.7 512.875C1138.66 512.875 1143.24 514.98 1146.45 519.191C1149.66 523.402 1151.27 529.432 1151.27 537.281C1151.27 545.102 1149.68 551.132 1146.5 555.371C1143.32 559.582 1138.79 561.688 1132.92 561.688C1129.45 561.688 1126.47 560.914 1123.98 559.367C1121.49 557.792 1119.68 555.6 1118.57 552.793H1118.22V576.168H1100.61V513.562H1118.27V522.113H1118.57C1119.71 519.191 1121.5 516.928 1123.94 515.324C1126.4 513.691 1129.32 512.875 1132.7 512.875ZM1120.2 545.23C1121.55 547.15 1123.38 548.109 1125.7 548.109C1128.02 548.109 1129.85 547.135 1131.2 545.188C1132.55 543.24 1133.22 540.604 1133.22 537.281C1133.22 533.987 1132.53 531.366 1131.16 529.418C1129.81 527.441 1127.99 526.453 1125.7 526.453C1123.41 526.453 1121.57 527.441 1120.2 529.418C1118.85 531.366 1118.17 534.001 1118.14 537.324C1118.17 540.647 1118.85 543.283 1120.2 545.23ZM1180.44 562.203C1172.65 562.203 1166.55 560.04 1162.14 555.715C1157.73 551.361 1155.52 545.202 1155.52 537.238C1155.52 529.475 1157.75 523.388 1162.22 518.977C1166.72 514.565 1172.79 512.359 1180.44 512.359C1188.15 512.359 1194.23 514.565 1198.7 518.977C1203.17 523.359 1205.41 529.447 1205.41 537.238C1205.41 545.202 1203.2 551.361 1198.79 555.715C1194.38 560.04 1188.26 562.203 1180.44 562.203ZM1180.44 549.613C1182.65 549.613 1184.38 548.539 1185.64 546.391C1186.9 544.242 1187.53 541.206 1187.53 537.281C1187.53 533.443 1186.89 530.435 1185.6 528.258C1184.34 526.052 1182.62 524.949 1180.44 524.949C1178.26 524.949 1176.55 526.052 1175.29 528.258C1174.02 530.435 1173.39 533.443 1173.39 537.281C1173.39 541.234 1174.01 544.285 1175.24 546.434C1176.47 548.553 1178.21 549.613 1180.44 549.613ZM1210.86 561V513.562H1228.05V522.887H1228.39C1230.17 516.212 1233.87 512.875 1239.48 512.875C1241 512.875 1242.37 513.104 1243.61 513.562V528.344C1242.06 527.685 1240.35 527.355 1238.49 527.355C1231.82 527.355 1228.48 530.693 1228.48 537.367V561H1210.86ZM1252.07 503.164H1269.69V513.562H1278.02V526.324H1269.69V543.855C1269.69 546.863 1271.46 548.367 1275.02 548.367C1276.16 548.367 1277.16 548.296 1278.02 548.152V560.355C1275.93 560.785 1273.51 561 1270.76 561C1264.09 561 1259.3 559.969 1256.41 557.906C1253.52 555.844 1252.07 552.464 1252.07 547.766V526.324H1245.8V513.562H1252.07V503.164ZM1304.62 549.914C1306.65 549.914 1308.42 549.398 1309.91 548.367C1311.4 547.307 1312.14 545.932 1312.14 544.242V541.148L1304.66 541.664C1303 541.779 1301.71 542.208 1300.8 542.953C1299.88 543.698 1299.42 544.658 1299.42 545.832C1299.42 547.092 1299.89 548.095 1300.84 548.84C1301.79 549.556 1303.05 549.914 1304.62 549.914ZM1298.05 561.688C1293.64 561.688 1289.87 560.327 1286.75 557.605C1283.62 554.855 1282.06 551.389 1282.06 547.207C1282.06 542.681 1283.74 539.186 1287.09 536.723C1290.47 534.23 1295.35 532.784 1301.74 532.383L1312.14 531.738V529.418C1312.14 527.871 1311.61 526.668 1310.55 525.809C1309.49 524.949 1308.12 524.52 1306.43 524.52C1304.68 524.52 1303.25 524.935 1302.13 525.766C1301.01 526.596 1300.38 527.642 1300.24 528.902H1284.51C1284.74 523.803 1286.89 519.779 1290.96 516.828C1295.02 513.849 1300.5 512.359 1307.37 512.359C1313.93 512.359 1319.23 513.863 1323.27 516.871C1327.31 519.85 1329.33 523.746 1329.33 528.559V561H1312.14V554.641H1311.8C1310.59 556.875 1308.72 558.608 1306.17 559.84C1303.65 561.072 1300.94 561.688 1298.05 561.688ZM1335.99 561V513.562H1353.18V523.145H1353.52C1354.41 519.936 1356.08 517.387 1358.55 515.496C1361.01 513.577 1363.86 512.617 1367.1 512.617C1370.71 512.617 1373.66 513.534 1375.95 515.367C1378.27 517.172 1379.72 519.736 1380.29 523.059H1380.63C1381.43 519.908 1383.15 517.387 1385.79 515.496C1388.45 513.577 1391.59 512.617 1395.2 512.617C1399.81 512.617 1403.56 514.135 1406.46 517.172C1409.35 520.18 1410.8 524.104 1410.8 528.945V561H1393.18V533.5C1393.18 529.003 1391.26 526.754 1387.42 526.754C1385.65 526.754 1384.26 527.355 1383.25 528.559C1382.25 529.733 1381.75 531.366 1381.75 533.457V561H1365.04V533.543C1365.04 529.017 1363.13 526.754 1359.32 526.754C1357.54 526.754 1356.14 527.355 1355.11 528.559C1354.11 529.762 1353.61 531.395 1353.61 533.457V561H1335.99Z" fill="#28282A"/>
</svg>
