<svg width="375" height="528" viewBox="0 0 375 528" fill="none" xmlns="http://www.w3.org/2000/svg">
<rect x="15" width="343" height="528" fill="#F72557"/>
<g opacity="0.5">
<path d="M4.00663 240.605H-5.46062L-13 214.955H-4.59997L-0.623719 233.46H-0.486013L3.49023 214.955H11.546L4.00663 240.605Z" fill="#28282A"/>
<path d="M13.3878 240.605V220.981H20.4452V240.605H13.3878ZM19.4124 218.919C18.7469 219.571 17.9149 219.897 16.9165 219.897C15.9182 219.897 15.0804 219.571 14.4034 218.919C13.7378 218.256 13.405 217.432 13.405 216.448C13.405 215.465 13.7378 214.647 14.4034 213.995C15.0804 213.332 15.9182 213 16.9165 213C17.9149 213 18.7469 213.332 19.4124 213.995C20.0895 214.647 20.428 215.465 20.428 216.448C20.428 217.432 20.0895 218.256 19.4124 218.919Z" fill="#28282A"/>
<path d="M30.0158 240.89C27.6748 240.89 25.8559 240.001 24.5592 238.223C23.2624 236.434 22.6141 233.94 22.6141 230.74C22.6141 227.588 23.2739 225.129 24.5936 223.363C25.9248 221.586 27.7723 220.697 30.1362 220.697C31.4903 220.697 32.6608 221.052 33.6477 221.763C34.6461 222.463 35.3346 223.381 35.7133 224.519H35.851V214.955H42.9084V240.605H35.851V237.21H35.7133C35.3805 238.265 34.692 239.142 33.6477 239.841C32.6149 240.54 31.4043 240.89 30.0158 240.89ZM35.0764 227.505C34.5371 226.711 33.7969 226.314 32.8559 226.314C31.9149 226.314 31.1748 226.717 30.6354 227.523C30.1076 228.317 29.8436 229.407 29.8436 230.793C29.8436 232.203 30.1076 233.306 30.6354 234.1C31.1633 234.882 31.9035 235.273 32.8559 235.273C33.8084 235.273 34.5486 234.882 35.0764 234.1C35.6158 233.317 35.8854 232.221 35.8854 230.811C35.8854 229.401 35.6158 228.299 35.0764 227.505Z" fill="#28282A"/>
<path d="M53.9077 236.019C54.7224 236.019 55.4282 235.806 56.0249 235.379C56.6216 234.941 56.92 234.372 56.92 233.673V232.393L53.9249 232.606C53.2593 232.654 52.7429 232.832 52.3757 233.14C52.0085 233.448 51.8249 233.845 51.8249 234.331C51.8249 234.852 52.0142 235.267 52.3929 235.575C52.7716 235.871 53.2765 236.019 53.9077 236.019ZM51.274 240.89C49.5068 240.89 47.9978 240.327 46.747 239.201C45.4961 238.063 44.8707 236.63 44.8707 234.899C44.8707 233.027 45.542 231.581 46.8847 230.562C48.2388 229.531 50.1953 228.933 52.7544 228.767L56.92 228.5V227.54C56.92 226.9 56.7077 226.403 56.2831 226.047C55.8585 225.692 55.3077 225.514 54.6306 225.514C53.9306 225.514 53.3568 225.686 52.9093 226.029C52.4617 226.373 52.2093 226.806 52.1519 227.327H45.8519C45.9437 225.218 46.8043 223.553 48.4339 222.332C50.0634 221.1 52.2552 220.483 55.0093 220.483C57.6372 220.483 59.7601 221.106 61.3782 222.35C62.9962 223.582 63.8052 225.194 63.8052 227.185V240.605H56.92V237.975H56.7823C56.3003 238.899 55.5486 239.616 54.5273 240.125C53.5175 240.635 52.4331 240.89 51.274 240.89Z" fill="#28282A"/>
<path d="M66.1462 227.078C66.1462 225.028 66.938 223.416 68.5217 222.243C70.1053 221.07 72.2799 220.483 75.0454 220.483C77.8225 220.483 79.9914 221.088 81.552 222.297C83.1242 223.505 83.9102 225.182 83.9102 227.327H77.5069C77.5069 226.687 77.2774 226.184 76.8184 225.816C76.3709 225.437 75.7627 225.247 74.9938 225.247C74.3627 225.247 73.852 225.372 73.4618 225.621C73.0831 225.858 72.8938 226.184 72.8938 226.598C72.8938 227.214 73.5077 227.641 74.7356 227.878L79.0217 228.749C80.9037 229.128 82.2807 229.756 83.1529 230.633C84.0365 231.498 84.4783 232.678 84.4783 234.171C84.4783 236.292 83.6291 237.981 81.9307 239.237C80.2438 240.481 78.0004 241.103 75.2004 241.103C72.2741 241.103 69.9905 240.493 68.3495 239.272C66.72 238.04 65.8421 236.363 65.7159 234.242H72.5323C72.6012 234.894 72.8766 235.409 73.3586 235.788C73.852 236.156 74.4946 236.339 75.2864 236.339C75.975 236.339 76.5143 236.227 76.9045 236.002C77.2946 235.765 77.4897 235.445 77.4897 235.042C77.4897 234.734 77.352 234.485 77.0766 234.295C76.8012 234.094 76.3422 233.934 75.6995 233.815L72.0331 233.069C70.1167 232.678 68.6536 231.972 67.6438 230.953C66.6454 229.922 66.1462 228.631 66.1462 227.078Z" fill="#28282A"/>
<path d="M93.0849 240.605V220.981H99.9701V224.838H100.108C100.59 223.452 101.324 222.397 102.311 221.674C103.298 220.952 104.509 220.59 105.943 220.59C108.066 220.59 109.696 221.242 110.832 222.545C111.979 223.837 112.553 225.668 112.553 228.038V240.605H105.496V229.656C105.496 228.648 105.266 227.866 104.807 227.309C104.36 226.752 103.7 226.474 102.828 226.474C102.001 226.474 101.347 226.77 100.865 227.363C100.383 227.943 100.142 228.702 100.142 229.638V240.605H93.0849Z" fill="#28282A"/>
<path d="M124.499 225.496C123.696 225.496 123.019 225.769 122.468 226.314C121.917 226.859 121.607 227.552 121.538 228.394H127.46C127.402 227.517 127.098 226.818 126.547 226.296C126.008 225.763 125.325 225.496 124.499 225.496ZM127.666 234.242H133.949C133.651 236.363 132.664 238.04 130.988 239.272C129.313 240.493 127.173 241.103 124.568 241.103C121.458 241.103 119.025 240.202 117.269 238.401C115.514 236.588 114.636 234.088 114.636 230.9C114.636 227.689 115.508 225.153 117.252 223.292C118.996 221.42 121.36 220.483 124.344 220.483C127.293 220.483 129.646 221.384 131.401 223.185C133.157 224.975 134.035 227.369 134.035 230.367V232.34H121.435V232.802C121.435 233.762 121.739 234.556 122.347 235.184C122.955 235.8 123.73 236.108 124.671 236.108C125.394 236.108 126.019 235.942 126.547 235.61C127.087 235.279 127.46 234.822 127.666 234.242Z" fill="#28282A"/>
<path d="M143.709 233.993C144.237 234.728 144.983 235.095 145.947 235.095C146.91 235.095 147.656 234.734 148.184 234.011C148.712 233.276 148.976 232.209 148.976 230.811C148.976 229.413 148.706 228.317 148.167 227.523C147.628 226.717 146.888 226.314 145.947 226.314C145.006 226.314 144.265 226.717 143.726 227.523C143.198 228.317 142.934 229.407 142.934 230.793C142.934 232.192 143.192 233.258 143.709 233.993ZM145.671 248C142.848 248 140.588 247.425 138.889 246.276C137.202 245.138 136.284 243.639 136.135 241.779H142.917C143.02 242.253 143.336 242.638 143.864 242.934C144.392 243.242 145.046 243.396 145.826 243.396C146.847 243.396 147.622 243.147 148.15 242.65C148.678 242.152 148.942 241.476 148.942 240.623V236.855H148.804C148.494 237.898 147.823 238.745 146.79 239.397C145.757 240.037 144.535 240.357 143.124 240.357C140.863 240.357 139.061 239.515 137.719 237.832C136.376 236.138 135.705 233.774 135.705 230.74C135.705 227.588 136.365 225.129 137.684 223.363C139.015 221.586 140.863 220.697 143.227 220.697C144.581 220.697 145.751 221.052 146.738 221.763C147.737 222.463 148.425 223.381 148.804 224.519H148.942V220.981H155.999V240.445C155.999 242.756 155.047 244.593 153.142 245.956C151.248 247.319 148.758 248 145.671 248Z" fill="#28282A"/>
<path d="M158.667 240.605V220.981H165.552V224.838H165.69C166.402 222.077 167.882 220.697 170.131 220.697C170.739 220.697 171.29 220.792 171.784 220.981V227.096C171.164 226.823 170.481 226.687 169.735 226.687C167.061 226.687 165.725 228.068 165.725 230.829V240.605H158.667Z" fill="#28282A"/>
<path d="M181.285 236.019C182.1 236.019 182.806 235.806 183.402 235.379C183.999 234.941 184.298 234.372 184.298 233.673V232.393L181.302 232.606C180.637 232.654 180.12 232.832 179.753 233.14C179.386 233.448 179.202 233.845 179.202 234.331C179.202 234.852 179.392 235.267 179.77 235.575C180.149 235.871 180.654 236.019 181.285 236.019ZM178.652 240.89C176.884 240.89 175.375 240.327 174.125 239.201C172.874 238.063 172.248 236.63 172.248 234.899C172.248 233.027 172.92 231.581 174.262 230.562C175.616 229.531 177.573 228.933 180.132 228.767L184.298 228.5V227.54C184.298 226.9 184.085 226.403 183.661 226.047C183.236 225.692 182.685 225.514 182.008 225.514C181.308 225.514 180.734 225.686 180.287 226.029C179.839 226.373 179.587 226.806 179.529 227.327H173.229C173.321 225.218 174.182 223.553 175.811 222.332C177.441 221.1 179.633 220.483 182.387 220.483C185.015 220.483 187.138 221.106 188.756 222.35C190.374 223.582 191.183 225.194 191.183 227.185V240.605H184.298V237.975H184.16C183.678 238.899 182.926 239.616 181.905 240.125C180.895 240.635 179.811 240.89 178.652 240.89Z" fill="#28282A"/>
<path d="M193.524 227.078C193.524 225.028 194.316 223.416 195.899 222.243C197.483 221.07 199.657 220.483 202.423 220.483C205.2 220.483 207.369 221.088 208.93 222.297C210.502 223.505 211.288 225.182 211.288 227.327H204.885C204.885 226.687 204.655 226.184 204.196 225.816C203.748 225.437 203.14 225.247 202.371 225.247C201.74 225.247 201.23 225.372 200.839 225.621C200.461 225.858 200.271 226.184 200.271 226.598C200.271 227.214 200.885 227.641 202.113 227.878L206.399 228.749C208.281 229.128 209.658 229.756 210.53 230.633C211.414 231.498 211.856 232.678 211.856 234.171C211.856 236.292 211.007 237.981 209.308 239.237C207.621 240.481 205.378 241.103 202.578 241.103C199.652 241.103 197.368 240.493 195.727 239.272C194.098 238.04 193.22 236.363 193.093 234.242H199.91C199.979 234.894 200.254 235.409 200.736 235.788C201.23 236.156 201.872 236.339 202.664 236.339C203.353 236.339 203.892 236.227 204.282 236.002C204.672 235.765 204.867 235.445 204.867 235.042C204.867 234.734 204.73 234.485 204.454 234.295C204.179 234.094 203.72 233.934 203.077 233.815L199.411 233.069C197.494 232.678 196.031 231.972 195.021 230.953C194.023 229.922 193.524 228.631 193.524 227.078Z" fill="#28282A"/>
<path d="M220.462 240.605V220.981H227.52V240.605H220.462ZM226.487 218.919C225.821 219.571 224.99 219.897 223.991 219.897C222.993 219.897 222.155 219.571 221.478 218.919C220.812 218.256 220.48 217.432 220.48 216.448C220.48 215.465 220.812 214.647 221.478 213.995C222.155 213.332 222.993 213 223.991 213C224.99 213 225.821 213.332 226.487 213.995C227.164 214.647 227.503 215.465 227.503 216.448C227.503 217.432 227.164 218.256 226.487 218.919Z" fill="#28282A"/>
<path d="M230.171 240.605V220.981H237.056V224.945H237.194C237.549 223.618 238.221 222.563 239.208 221.781C240.194 220.987 241.336 220.59 242.633 220.59C244.079 220.59 245.261 220.969 246.179 221.728C247.108 222.474 247.688 223.535 247.917 224.91H248.055C248.376 223.606 249.065 222.563 250.121 221.781C251.188 220.987 252.445 220.59 253.89 220.59C255.738 220.59 257.241 221.218 258.4 222.474C259.559 223.719 260.139 225.342 260.139 227.345V240.605H253.081V229.229C253.081 227.369 252.313 226.438 250.775 226.438C250.063 226.438 249.507 226.687 249.105 227.185C248.704 227.671 248.503 228.346 248.503 229.211V240.605H241.807V229.247C241.807 227.374 241.044 226.438 239.517 226.438C238.806 226.438 238.244 226.687 237.831 227.185C237.429 227.683 237.228 228.358 237.228 229.211V240.605H230.171Z" fill="#28282A"/>
<path d="M275.596 220.697C277.983 220.697 279.819 221.568 281.104 223.31C282.39 225.052 283.032 227.546 283.032 230.793C283.032 234.028 282.395 236.523 281.122 238.277C279.848 240.019 278.035 240.89 275.682 240.89C274.294 240.89 273.1 240.57 272.102 239.93C271.104 239.278 270.381 238.372 269.933 237.21H269.795V246.88H262.738V220.981H269.813V224.519H269.933C270.392 223.31 271.109 222.374 272.085 221.71C273.072 221.035 274.242 220.697 275.596 220.697ZM270.587 234.082C271.127 234.876 271.861 235.273 272.791 235.273C273.72 235.273 274.454 234.87 274.994 234.064C275.533 233.258 275.803 232.168 275.803 230.793C275.803 229.431 275.527 228.346 274.977 227.54C274.437 226.723 273.709 226.314 272.791 226.314C271.872 226.314 271.138 226.723 270.587 227.54C270.048 228.346 269.772 229.436 269.761 230.811C269.772 232.186 270.048 233.276 270.587 234.082Z" fill="#28282A"/>
<path d="M294.72 241.103C291.599 241.103 289.155 240.208 287.387 238.419C285.62 236.618 284.736 234.07 284.736 230.776C284.736 227.564 285.632 225.046 287.422 223.221C289.223 221.396 291.656 220.483 294.72 220.483C297.807 220.483 300.246 221.396 302.036 223.221C303.826 225.034 304.721 227.552 304.721 230.776C304.721 234.07 303.837 236.618 302.07 238.419C300.303 240.208 297.853 241.103 294.72 241.103ZM294.72 235.895C295.604 235.895 296.298 235.45 296.803 234.562C297.308 233.673 297.56 232.417 297.56 230.793C297.56 229.205 297.302 227.961 296.786 227.06C296.281 226.148 295.592 225.692 294.72 225.692C293.848 225.692 293.159 226.148 292.655 227.06C292.15 227.961 291.897 229.205 291.897 230.793C291.897 232.429 292.144 233.691 292.637 234.579C293.131 235.456 293.825 235.895 294.72 235.895Z" fill="#28282A"/>
<path d="M306.907 240.605V220.981H313.792V224.838H313.93C314.642 222.077 316.122 220.697 318.371 220.697C318.979 220.697 319.53 220.792 320.023 220.981V227.096C319.404 226.823 318.721 226.687 317.975 226.687C315.301 226.687 313.964 228.068 313.964 230.829V240.605H306.907Z" fill="#28282A"/>
<path d="M323.415 216.68H330.472V220.981H333.811V226.261H330.472V233.513C330.472 234.757 331.183 235.379 332.606 235.379C333.065 235.379 333.467 235.35 333.811 235.291V240.339C332.974 240.517 332.004 240.605 330.902 240.605C328.228 240.605 326.312 240.179 325.153 239.326C323.994 238.472 323.415 237.074 323.415 235.131V226.261H320.901V220.981H323.415V216.68Z" fill="#28282A"/>
<path d="M344.466 236.019C345.281 236.019 345.987 235.806 346.583 235.379C347.18 234.941 347.479 234.372 347.479 233.673V232.393L344.483 232.606C343.818 232.654 343.301 232.832 342.934 233.14C342.567 233.448 342.383 233.845 342.383 234.331C342.383 234.852 342.573 235.267 342.951 235.575C343.33 235.871 343.835 236.019 344.466 236.019ZM341.833 240.89C340.065 240.89 338.556 240.327 337.306 239.201C336.055 238.063 335.429 236.63 335.429 234.899C335.429 233.027 336.101 231.581 337.443 230.562C338.797 229.531 340.754 228.933 343.313 228.767L347.479 228.5V227.54C347.479 226.9 347.266 226.403 346.842 226.047C346.417 225.692 345.866 225.514 345.189 225.514C344.489 225.514 343.915 225.686 343.468 226.029C343.02 226.373 342.768 226.806 342.71 227.327H336.41C336.502 225.218 337.363 223.553 338.992 222.332C340.622 221.1 342.814 220.483 345.568 220.483C348.196 220.483 350.319 221.106 351.937 222.35C353.555 223.582 354.364 225.194 354.364 227.185V240.605H347.479V237.975H347.341C346.859 238.899 346.107 239.616 345.086 240.125C344.076 240.635 342.992 240.89 341.833 240.89Z" fill="#28282A"/>
<path d="M357.032 240.605V220.981H363.917V224.945H364.055C364.411 223.618 365.082 222.563 366.069 221.781C367.056 220.987 368.197 220.59 369.494 220.59C370.94 220.59 372.122 220.969 373.04 221.728C373.97 222.474 374.549 223.535 374.779 224.91H374.916C375.238 223.606 375.926 222.563 376.982 221.781C378.049 220.987 379.306 220.59 380.752 220.59C382.599 220.59 384.102 221.218 385.261 222.474C386.421 223.719 387 225.342 387 227.345V240.605H379.943V229.229C379.943 227.369 379.174 226.438 377.636 226.438C376.925 226.438 376.368 226.687 375.966 227.185C375.565 227.671 375.364 228.346 375.364 229.211V240.605H368.668V229.247C368.668 227.374 367.905 226.438 366.379 226.438C365.667 226.438 365.105 226.687 364.692 227.185C364.29 227.683 364.089 228.358 364.089 229.211V240.605H357.032Z" fill="#28282A"/>
</g>
<g opacity="0.2">
<path d="M4.00663 337.45H-5.46062L-13 314.732H-4.59997L-0.623719 331.121H-0.486013L3.49023 314.732H11.546L4.00663 337.45Z" fill="#28282A"/>
<path d="M13.3878 337.45V320.069H20.4452V337.45H13.3878ZM19.4124 318.243C18.7469 318.82 17.9149 319.109 16.9165 319.109C15.9182 319.109 15.0804 318.82 14.4034 318.243C13.7378 317.655 13.405 316.926 13.405 316.054C13.405 315.183 13.7378 314.459 14.4034 313.882C15.0804 313.294 15.9182 313 16.9165 313C17.9149 313 18.7469 313.294 19.4124 313.882C20.0895 314.459 20.428 315.183 20.428 316.054C20.428 316.926 20.0895 317.655 19.4124 318.243Z" fill="#28282A"/>
<path d="M30.0158 337.702C27.6748 337.702 25.8559 336.915 24.5592 335.341C23.2624 333.756 22.6141 331.546 22.6141 328.713C22.6141 325.921 23.2739 323.743 24.5936 322.179C25.9248 320.604 27.7723 319.817 30.1362 319.817C31.4903 319.817 32.6608 320.132 33.6477 320.762C34.6461 321.381 35.3346 322.195 35.7133 323.202H35.851V314.732H42.9084V337.45H35.851V334.443H35.7133C35.3805 335.378 34.692 336.154 33.6477 336.773C32.6149 337.393 31.4043 337.702 30.0158 337.702ZM35.0764 325.847C34.5371 325.144 33.7969 324.792 32.8559 324.792C31.9149 324.792 31.1748 325.149 30.6354 325.863C30.1076 326.566 29.8436 327.532 29.8436 328.76C29.8436 330.009 30.1076 330.985 30.6354 331.688C31.1633 332.381 31.9035 332.727 32.8559 332.727C33.8084 332.727 34.5486 332.381 35.0764 331.688C35.6158 330.995 35.8854 330.025 35.8854 328.776C35.8854 327.526 35.6158 326.55 35.0764 325.847Z" fill="#28282A"/>
<path d="M53.9077 333.389C54.7224 333.389 55.4282 333.2 56.0249 332.822C56.6216 332.433 56.92 331.93 56.92 331.31V330.177L53.9249 330.366C53.2593 330.408 52.7429 330.565 52.3757 330.838C52.0085 331.111 51.8249 331.463 51.8249 331.893C51.8249 332.355 52.0142 332.722 52.3929 332.995C52.7716 333.257 53.2765 333.389 53.9077 333.389ZM51.274 337.702C49.5068 337.702 47.9978 337.204 46.747 336.207C45.4961 335.199 44.8707 333.929 44.8707 332.397C44.8707 330.738 45.542 329.458 46.8847 328.555C48.2388 327.642 50.1953 327.112 52.7544 326.965L56.92 326.729V325.879C56.92 325.312 56.7077 324.871 56.2831 324.556C55.8585 324.241 55.3077 324.084 54.6306 324.084C53.9306 324.084 53.3568 324.236 52.9093 324.54C52.4617 324.845 52.2093 325.228 52.1519 325.69H45.8519C45.9437 323.821 46.8043 322.347 48.4339 321.266C50.0634 320.174 52.2552 319.628 55.0093 319.628C57.6372 319.628 59.7601 320.179 61.3782 321.281C62.9962 322.373 63.8052 323.8 63.8052 325.564V337.45H56.92V335.12H56.7823C56.3003 335.939 55.5486 336.574 54.5273 337.025C53.5175 337.477 52.4331 337.702 51.274 337.702Z" fill="#28282A"/>
<path d="M66.1462 325.469C66.1462 323.653 66.938 322.226 68.5217 321.187C70.1053 320.148 72.2799 319.628 75.0454 319.628C77.8225 319.628 79.9914 320.164 81.552 321.234C83.1242 322.305 83.9102 323.79 83.9102 325.69H77.5069C77.5069 325.123 77.2774 324.677 76.8184 324.351C76.3709 324.016 75.7627 323.848 74.9938 323.848C74.3627 323.848 73.852 323.958 73.4618 324.178C73.0831 324.388 72.8938 324.677 72.8938 325.044C72.8938 325.59 73.5077 325.968 74.7356 326.178L79.0217 326.949C80.9037 327.285 82.2807 327.841 83.1529 328.618C84.0365 329.384 84.4783 330.429 84.4783 331.751C84.4783 333.63 83.6291 335.126 81.9307 336.238C80.2438 337.34 78.0004 337.891 75.2004 337.891C72.2741 337.891 69.9905 337.351 68.3495 336.27C66.72 335.178 65.8421 333.693 65.7159 331.814H72.5323C72.6012 332.391 72.8766 332.848 73.3586 333.184C73.852 333.509 74.4946 333.672 75.2864 333.672C75.975 333.672 76.5143 333.572 76.9045 333.373C77.2946 333.163 77.4897 332.879 77.4897 332.523C77.4897 332.25 77.352 332.029 77.0766 331.861C76.8012 331.683 76.3422 331.541 75.6995 331.436L72.0331 330.775C70.1167 330.429 68.6536 329.804 67.6438 328.901C66.6454 327.988 66.1462 326.844 66.1462 325.469Z" fill="#28282A"/>
<path d="M93.0849 337.45V320.069H99.9701V323.486H100.108C100.59 322.257 101.324 321.323 102.311 320.683C103.298 320.043 104.509 319.723 105.943 319.723C108.066 319.723 109.696 320.3 110.832 321.455C111.979 322.599 112.553 324.22 112.553 326.319V337.45H105.496V327.752C105.496 326.86 105.266 326.167 104.807 325.674C104.36 325.181 103.7 324.934 102.828 324.934C102.001 324.934 101.347 325.196 100.865 325.721C100.383 326.235 100.142 326.907 100.142 327.736V337.45H93.0849Z" fill="#28282A"/>
<path d="M124.499 324.068C123.696 324.068 123.019 324.309 122.468 324.792C121.917 325.275 121.607 325.889 121.538 326.634H127.46C127.402 325.858 127.098 325.238 126.547 324.777C126.008 324.304 125.325 324.068 124.499 324.068ZM127.666 331.814H133.949C133.651 333.693 132.664 335.178 130.988 336.27C129.313 337.351 127.173 337.891 124.568 337.891C121.458 337.891 119.025 337.094 117.269 335.498C115.514 333.892 114.636 331.678 114.636 328.854C114.636 326.01 115.508 323.764 117.252 322.116C118.996 320.457 121.36 319.628 124.344 319.628C127.293 319.628 129.646 320.426 131.401 322.021C133.157 323.606 134.035 325.726 134.035 328.382V330.13H121.435V330.539C121.435 331.389 121.739 332.092 122.347 332.649C122.955 333.194 123.73 333.467 124.671 333.467C125.394 333.467 126.019 333.32 126.547 333.026C127.087 332.733 127.46 332.328 127.666 331.814Z" fill="#28282A"/>
<path d="M143.709 331.594C144.237 332.244 144.983 332.57 145.947 332.57C146.91 332.57 147.656 332.25 148.184 331.609C148.712 330.959 148.976 330.014 148.976 328.776C148.976 327.537 148.706 326.566 148.167 325.863C147.628 325.149 146.888 324.792 145.947 324.792C145.006 324.792 144.265 325.149 143.726 325.863C143.198 326.566 142.934 327.532 142.934 328.76C142.934 329.998 143.192 330.943 143.709 331.594ZM145.671 344C142.848 344 140.588 343.491 138.889 342.473C137.202 341.465 136.284 340.137 136.135 338.49H142.917C143.02 338.909 143.336 339.251 143.864 339.513C144.392 339.786 145.046 339.922 145.826 339.922C146.847 339.922 147.622 339.702 148.15 339.261C148.678 338.82 148.942 338.222 148.942 337.466V334.128H148.804C148.494 335.052 147.823 335.803 146.79 336.38C145.757 336.947 144.535 337.23 143.124 337.23C140.863 337.23 139.061 336.485 137.719 334.994C136.376 333.493 135.705 331.4 135.705 328.713C135.705 325.921 136.365 323.743 137.684 322.179C139.015 320.604 140.863 319.817 143.227 319.817C144.581 319.817 145.751 320.132 146.738 320.762C147.737 321.381 148.425 322.195 148.804 323.202H148.942V320.069H155.999V337.309C155.999 339.356 155.047 340.982 153.142 342.189C151.248 343.396 148.758 344 145.671 344Z" fill="#28282A"/>
<path d="M158.667 337.45V320.069H165.552V323.486H165.69C166.402 321.04 167.882 319.817 170.131 319.817C170.739 319.817 171.29 319.901 171.784 320.069V325.485C171.164 325.244 170.481 325.123 169.735 325.123C167.061 325.123 165.725 326.346 165.725 328.791V337.45H158.667Z" fill="#28282A"/>
<path d="M181.285 333.389C182.1 333.389 182.806 333.2 183.402 332.822C183.999 332.433 184.298 331.93 184.298 331.31V330.177L181.302 330.366C180.637 330.408 180.12 330.565 179.753 330.838C179.386 331.111 179.202 331.463 179.202 331.893C179.202 332.355 179.392 332.722 179.77 332.995C180.149 333.257 180.654 333.389 181.285 333.389ZM178.652 337.702C176.884 337.702 175.375 337.204 174.125 336.207C172.874 335.199 172.248 333.929 172.248 332.397C172.248 330.738 172.92 329.458 174.262 328.555C175.616 327.642 177.573 327.112 180.132 326.965L184.298 326.729V325.879C184.298 325.312 184.085 324.871 183.661 324.556C183.236 324.241 182.685 324.084 182.008 324.084C181.308 324.084 180.734 324.236 180.287 324.54C179.839 324.845 179.587 325.228 179.529 325.69H173.229C173.321 323.821 174.182 322.347 175.811 321.266C177.441 320.174 179.633 319.628 182.387 319.628C185.015 319.628 187.138 320.179 188.756 321.281C190.374 322.373 191.183 323.8 191.183 325.564V337.45H184.298V335.12H184.16C183.678 335.939 182.926 336.574 181.905 337.025C180.895 337.477 179.811 337.702 178.652 337.702Z" fill="#28282A"/>
<path d="M193.524 325.469C193.524 323.653 194.316 322.226 195.899 321.187C197.483 320.148 199.657 319.628 202.423 319.628C205.2 319.628 207.369 320.164 208.93 321.234C210.502 322.305 211.288 323.79 211.288 325.69H204.885C204.885 325.123 204.655 324.677 204.196 324.351C203.748 324.016 203.14 323.848 202.371 323.848C201.74 323.848 201.23 323.958 200.839 324.178C200.461 324.388 200.271 324.677 200.271 325.044C200.271 325.59 200.885 325.968 202.113 326.178L206.399 326.949C208.281 327.285 209.658 327.841 210.53 328.618C211.414 329.384 211.856 330.429 211.856 331.751C211.856 333.63 211.007 335.126 209.308 336.238C207.621 337.34 205.378 337.891 202.578 337.891C199.652 337.891 197.368 337.351 195.727 336.27C194.098 335.178 193.22 333.693 193.093 331.814H199.91C199.979 332.391 200.254 332.848 200.736 333.184C201.23 333.509 201.872 333.672 202.664 333.672C203.353 333.672 203.892 333.572 204.282 333.373C204.672 333.163 204.867 332.879 204.867 332.523C204.867 332.25 204.73 332.029 204.454 331.861C204.179 331.683 203.72 331.541 203.077 331.436L199.411 330.775C197.494 330.429 196.031 329.804 195.021 328.901C194.023 327.988 193.524 326.844 193.524 325.469Z" fill="#28282A"/>
<path d="M220.462 337.45V320.069H227.52V337.45H220.462ZM226.487 318.243C225.821 318.82 224.99 319.109 223.991 319.109C222.993 319.109 222.155 318.82 221.478 318.243C220.812 317.655 220.48 316.926 220.48 316.054C220.48 315.183 220.812 314.459 221.478 313.882C222.155 313.294 222.993 313 223.991 313C224.99 313 225.821 313.294 226.487 313.882C227.164 314.459 227.503 315.183 227.503 316.054C227.503 316.926 227.164 317.655 226.487 318.243Z" fill="#28282A"/>
<path d="M230.171 337.45V320.069H237.056V323.58H237.194C237.549 322.404 238.221 321.47 239.208 320.778C240.194 320.074 241.336 319.723 242.633 319.723C244.079 319.723 245.261 320.059 246.179 320.73C247.108 321.392 247.688 322.331 247.917 323.549H248.055C248.376 322.394 249.065 321.47 250.121 320.778C251.188 320.074 252.445 319.723 253.89 319.723C255.738 319.723 257.241 320.279 258.4 321.392C259.559 322.494 260.139 323.932 260.139 325.705V337.45H253.081V327.374C253.081 325.726 252.313 324.902 250.775 324.902C250.063 324.902 249.507 325.123 249.105 325.564C248.704 325.994 248.503 326.592 248.503 327.359V337.45H241.807V327.39C241.807 325.732 241.044 324.902 239.517 324.902C238.806 324.902 238.244 325.123 237.831 325.564C237.429 326.005 237.228 326.603 237.228 327.359V337.45H230.171Z" fill="#28282A"/>
<path d="M275.596 319.817C277.983 319.817 279.819 320.589 281.104 322.132C282.39 323.674 283.032 325.884 283.032 328.76C283.032 331.625 282.395 333.835 281.122 335.388C279.848 336.931 278.035 337.702 275.682 337.702C274.294 337.702 273.1 337.419 272.102 336.852C271.104 336.275 270.381 335.472 269.933 334.443H269.795V343.008H262.738V320.069H269.813V323.202H269.933C270.392 322.132 271.109 321.302 272.085 320.715C273.072 320.116 274.242 319.817 275.596 319.817ZM270.587 331.672C271.127 332.376 271.861 332.727 272.791 332.727C273.72 332.727 274.454 332.37 274.994 331.657C275.533 330.943 275.803 329.977 275.803 328.76C275.803 327.553 275.527 326.592 274.977 325.879C274.437 325.154 273.709 324.792 272.791 324.792C271.872 324.792 271.138 325.154 270.587 325.879C270.048 326.592 269.772 327.558 269.761 328.776C269.772 329.993 270.048 330.959 270.587 331.672Z" fill="#28282A"/>
<path d="M294.72 337.891C291.599 337.891 289.155 337.099 287.387 335.514C285.62 333.919 284.736 331.662 284.736 328.744C284.736 325.9 285.632 323.669 287.422 322.053C289.223 320.436 291.656 319.628 294.72 319.628C297.807 319.628 300.246 320.436 302.036 322.053C303.826 323.659 304.721 325.889 304.721 328.744C304.721 331.662 303.837 333.919 302.07 335.514C300.303 337.099 297.853 337.891 294.72 337.891ZM294.72 333.278C295.604 333.278 296.298 332.885 296.803 332.098C297.308 331.31 297.56 330.198 297.56 328.76C297.56 327.353 297.302 326.251 296.786 325.454C296.281 324.645 295.592 324.241 294.72 324.241C293.848 324.241 293.159 324.645 292.655 325.454C292.15 326.251 291.897 327.353 291.897 328.76C291.897 330.208 292.144 331.326 292.637 332.113C293.131 332.89 293.825 333.278 294.72 333.278Z" fill="#28282A"/>
<path d="M306.907 337.45V320.069H313.792V323.486H313.93C314.642 321.04 316.122 319.817 318.371 319.817C318.979 319.817 319.53 319.901 320.023 320.069V325.485C319.404 325.244 318.721 325.123 317.975 325.123C315.301 325.123 313.964 326.346 313.964 328.791V337.45H306.907Z" fill="#28282A"/>
<path d="M323.415 316.259H330.472V320.069H333.811V324.745H330.472V331.169C330.472 332.271 331.183 332.822 332.606 332.822C333.065 332.822 333.467 332.795 333.811 332.743V337.214C332.974 337.372 332.004 337.45 330.902 337.45C328.228 337.45 326.312 337.073 325.153 336.317C323.994 335.561 323.415 334.323 323.415 332.601V324.745H320.901V320.069H323.415V316.259Z" fill="#28282A"/>
<path d="M344.466 333.389C345.281 333.389 345.987 333.2 346.583 332.822C347.18 332.433 347.479 331.93 347.479 331.31V330.177L344.483 330.366C343.818 330.408 343.301 330.565 342.934 330.838C342.567 331.111 342.383 331.463 342.383 331.893C342.383 332.355 342.573 332.722 342.951 332.995C343.33 333.257 343.835 333.389 344.466 333.389ZM341.833 337.702C340.065 337.702 338.556 337.204 337.306 336.207C336.055 335.199 335.429 333.929 335.429 332.397C335.429 330.738 336.101 329.458 337.443 328.555C338.797 327.642 340.754 327.112 343.313 326.965L347.479 326.729V325.879C347.479 325.312 347.266 324.871 346.842 324.556C346.417 324.241 345.866 324.084 345.189 324.084C344.489 324.084 343.915 324.236 343.468 324.54C343.02 324.845 342.768 325.228 342.71 325.69H336.41C336.502 323.821 337.363 322.347 338.992 321.266C340.622 320.174 342.814 319.628 345.568 319.628C348.196 319.628 350.319 320.179 351.937 321.281C353.555 322.373 354.364 323.8 354.364 325.564V337.45H347.479V335.12H347.341C346.859 335.939 346.107 336.574 345.086 337.025C344.076 337.477 342.992 337.702 341.833 337.702Z" fill="#28282A"/>
<path d="M357.032 337.45V320.069H363.917V323.58H364.055C364.411 322.404 365.082 321.47 366.069 320.778C367.056 320.074 368.197 319.723 369.494 319.723C370.94 319.723 372.122 320.059 373.04 320.73C373.97 321.392 374.549 322.331 374.779 323.549H374.916C375.238 322.394 375.926 321.47 376.982 320.778C378.049 320.074 379.306 319.723 380.752 319.723C382.599 319.723 384.102 320.279 385.261 321.392C386.421 322.494 387 323.932 387 325.705V337.45H379.943V327.374C379.943 325.726 379.174 324.902 377.636 324.902C376.925 324.902 376.368 325.123 375.966 325.564C375.565 325.994 375.364 326.592 375.364 327.359V337.45H368.668V327.39C368.668 325.732 367.905 324.902 366.379 324.902C365.667 324.902 365.105 325.123 364.692 325.564C364.29 326.005 364.089 326.603 364.089 327.359V337.45H357.032Z" fill="#28282A"/>
</g>
<g opacity="0.2">
<path d="M4.00663 207.817H-5.46062L-13 182.899H-4.59997L-0.623719 200.875H-0.486013L3.49023 182.899H11.546L4.00663 207.817Z" fill="#28282A"/>
<path d="M13.3878 207.817V188.753H20.4452V207.817H13.3878ZM19.4124 186.75C18.7469 187.383 17.9149 187.7 16.9165 187.7C15.9182 187.7 15.0804 187.383 14.4034 186.75C13.7378 186.105 13.405 185.305 13.405 184.35C13.405 183.394 13.7378 182.6 14.4034 181.967C15.0804 181.322 15.9182 181 16.9165 181C17.9149 181 18.7469 181.322 19.4124 181.967C20.0895 182.6 20.428 183.394 20.428 184.35C20.428 185.305 20.0895 186.105 19.4124 186.75Z" fill="#28282A"/>
<path d="M30.0158 208.093C27.6748 208.093 25.8559 207.23 24.5592 205.503C23.2624 203.765 22.6141 201.341 22.6141 198.233C22.6141 195.171 23.2739 192.782 24.5936 191.067C25.9248 189.34 27.7723 188.477 30.1362 188.477C31.4903 188.477 32.6608 188.822 33.6477 189.513C34.6461 190.192 35.3346 191.084 35.7133 192.189H35.851V182.899H42.9084V207.817H35.851V204.519H35.7133C35.3805 205.543 34.692 206.395 33.6477 207.074C32.6149 207.753 31.4043 208.093 30.0158 208.093ZM35.0764 195.09C34.5371 194.319 33.7969 193.933 32.8559 193.933C31.9149 193.933 31.1748 194.325 30.6354 195.108C30.1076 195.879 29.8436 196.938 29.8436 198.285C29.8436 199.655 30.1076 200.725 30.6354 201.497C31.1633 202.256 31.9035 202.636 32.8559 202.636C33.8084 202.636 34.5486 202.256 35.0764 201.497C35.6158 200.737 35.8854 199.672 35.8854 198.302C35.8854 196.932 35.6158 195.862 35.0764 195.09Z" fill="#28282A"/>
<path d="M53.9077 203.362C54.7224 203.362 55.4282 203.154 56.0249 202.74C56.6216 202.314 56.92 201.761 56.92 201.082V199.839L53.9249 200.046C53.2593 200.092 52.7429 200.265 52.3757 200.564C52.0085 200.864 51.8249 201.249 51.8249 201.721C51.8249 202.228 52.0142 202.631 52.3929 202.93C52.7716 203.218 53.2765 203.362 53.9077 203.362ZM51.274 208.093C49.5068 208.093 47.9978 207.546 46.747 206.453C45.4961 205.347 44.8707 203.954 44.8707 202.274C44.8707 200.455 45.542 199.05 46.8847 198.06C48.2388 197.059 50.1953 196.478 52.7544 196.316L56.92 196.057V195.125C56.92 194.503 56.7077 194.02 56.2831 193.674C55.8585 193.329 55.3077 193.156 54.6306 193.156C53.9306 193.156 53.3568 193.323 52.9093 193.657C52.4617 193.991 52.2093 194.411 52.1519 194.918H45.8519C45.9437 192.869 46.8043 191.251 48.4339 190.066C50.0634 188.868 52.2552 188.27 55.0093 188.27C57.6372 188.27 59.7601 188.874 61.3782 190.083C62.9962 191.28 63.8052 192.846 63.8052 194.78V207.817H56.92V205.261H56.7823C56.3003 206.159 55.5486 206.855 54.5273 207.35C53.5175 207.845 52.4331 208.093 51.274 208.093Z" fill="#28282A"/>
<path d="M66.1462 194.676C66.1462 192.684 66.938 191.119 68.5217 189.979C70.1053 188.84 72.2799 188.27 75.0454 188.27C77.8225 188.27 79.9914 188.857 81.552 190.031C83.1242 191.205 83.9102 192.834 83.9102 194.918H77.5069C77.5069 194.296 77.2774 193.807 76.8184 193.45C76.3709 193.082 75.7627 192.897 74.9938 192.897C74.3627 192.897 73.852 193.018 73.4618 193.26C73.0831 193.49 72.8938 193.807 72.8938 194.21C72.8938 194.808 73.5077 195.223 74.7356 195.453L79.0217 196.299C80.9037 196.668 82.2807 197.278 83.1529 198.13C84.0365 198.97 84.4783 200.115 84.4783 201.566C84.4783 203.626 83.6291 205.267 81.9307 206.487C80.2438 207.696 78.0004 208.3 75.2004 208.3C72.2741 208.3 69.9905 207.707 68.3495 206.522C66.72 205.324 65.8421 203.695 65.7159 201.635H72.5323C72.6012 202.268 72.8766 202.769 73.3586 203.137C73.852 203.494 74.4946 203.672 75.2864 203.672C75.975 203.672 76.5143 203.563 76.9045 203.344C77.2946 203.114 77.4897 202.803 77.4897 202.412C77.4897 202.113 77.352 201.871 77.0766 201.687C76.8012 201.491 76.3422 201.336 75.6995 201.22L72.0331 200.495C70.1167 200.115 68.6536 199.43 67.6438 198.44C66.6454 197.439 66.1462 196.184 66.1462 194.676Z" fill="#28282A"/>
<path d="M93.0849 207.817V188.753H99.9701V192.5H100.108C100.59 191.153 101.324 190.129 102.311 189.427C103.298 188.724 104.509 188.373 105.943 188.373C108.066 188.373 109.696 189.006 110.832 190.273C111.979 191.528 112.553 193.306 112.553 195.608V207.817H105.496V197.18C105.496 196.201 105.266 195.442 104.807 194.9C104.36 194.359 103.7 194.089 102.828 194.089C102.001 194.089 101.347 194.377 100.865 194.952C100.383 195.516 100.142 196.253 100.142 197.163V207.817H93.0849Z" fill="#28282A"/>
<path d="M124.499 193.139C123.696 193.139 123.019 193.404 122.468 193.933C121.917 194.463 121.607 195.136 121.538 195.954H127.46C127.402 195.102 127.098 194.423 126.547 193.916C126.008 193.398 125.325 193.139 124.499 193.139ZM127.666 201.635H133.949C133.651 203.695 132.664 205.324 130.988 206.522C129.313 207.707 127.173 208.3 124.568 208.3C121.458 208.3 119.025 207.425 117.269 205.675C115.514 203.914 114.636 201.485 114.636 198.389C114.636 195.269 115.508 192.805 117.252 190.998C118.996 189.179 121.36 188.27 124.344 188.27C127.293 188.27 129.646 189.145 131.401 190.894C133.157 192.633 134.035 194.958 134.035 197.87V199.787H121.435V200.236C121.435 201.169 121.739 201.94 122.347 202.55C122.955 203.149 123.73 203.448 124.671 203.448C125.394 203.448 126.019 203.287 126.547 202.964C127.087 202.642 127.46 202.199 127.666 201.635Z" fill="#28282A"/>
<path d="M143.709 201.393C144.237 202.107 144.983 202.464 145.947 202.464C146.91 202.464 147.656 202.113 148.184 201.41C148.712 200.697 148.976 199.661 148.976 198.302C148.976 196.944 148.706 195.879 148.167 195.108C147.628 194.325 146.888 193.933 145.947 193.933C145.006 193.933 144.265 194.325 143.726 195.108C143.198 195.879 142.934 196.938 142.934 198.285C142.934 199.643 143.192 200.679 143.709 201.393ZM145.671 215C142.848 215 140.588 214.442 138.889 213.325C137.202 212.22 136.284 210.764 136.135 208.956H142.917C143.02 209.417 143.336 209.791 143.864 210.079C144.392 210.378 145.046 210.528 145.826 210.528C146.847 210.528 147.622 210.286 148.15 209.802C148.678 209.319 148.942 208.663 148.942 207.834V204.173H148.804C148.494 205.186 147.823 206.009 146.79 206.642C145.757 207.264 144.535 207.575 143.124 207.575C140.863 207.575 139.061 206.758 137.719 205.123C136.376 203.477 135.705 201.18 135.705 198.233C135.705 195.171 136.365 192.782 137.684 191.067C139.015 189.34 140.863 188.477 143.227 188.477C144.581 188.477 145.751 188.822 146.738 189.513C147.737 190.192 148.425 191.084 148.804 192.189H148.942V188.753H155.999V207.661C155.999 209.906 155.047 211.69 153.142 213.014C151.248 214.338 148.758 215 145.671 215Z" fill="#28282A"/>
<path d="M158.667 207.817V188.753H165.552V192.5H165.69C166.402 189.818 167.882 188.477 170.131 188.477C170.739 188.477 171.29 188.569 171.784 188.753V194.693C171.164 194.428 170.481 194.296 169.735 194.296C167.061 194.296 165.725 195.637 165.725 198.319V207.817H158.667Z" fill="#28282A"/>
<path d="M181.285 203.362C182.1 203.362 182.806 203.154 183.402 202.74C183.999 202.314 184.298 201.761 184.298 201.082V199.839L181.302 200.046C180.637 200.092 180.12 200.265 179.753 200.564C179.386 200.864 179.202 201.249 179.202 201.721C179.202 202.228 179.392 202.631 179.77 202.93C180.149 203.218 180.654 203.362 181.285 203.362ZM178.652 208.093C176.884 208.093 175.375 207.546 174.125 206.453C172.874 205.347 172.248 203.954 172.248 202.274C172.248 200.455 172.92 199.05 174.262 198.06C175.616 197.059 177.573 196.478 180.132 196.316L184.298 196.057V195.125C184.298 194.503 184.085 194.02 183.661 193.674C183.236 193.329 182.685 193.156 182.008 193.156C181.308 193.156 180.734 193.323 180.287 193.657C179.839 193.991 179.587 194.411 179.529 194.918H173.229C173.321 192.869 174.182 191.251 175.811 190.066C177.441 188.868 179.633 188.27 182.387 188.27C185.015 188.27 187.138 188.874 188.756 190.083C190.374 191.28 191.183 192.846 191.183 194.78V207.817H184.298V205.261H184.16C183.678 206.159 182.926 206.855 181.905 207.35C180.895 207.845 179.811 208.093 178.652 208.093Z" fill="#28282A"/>
<path d="M193.524 194.676C193.524 192.684 194.316 191.119 195.899 189.979C197.483 188.84 199.657 188.27 202.423 188.27C205.2 188.27 207.369 188.857 208.93 190.031C210.502 191.205 211.288 192.834 211.288 194.918H204.885C204.885 194.296 204.655 193.807 204.196 193.45C203.748 193.082 203.14 192.897 202.371 192.897C201.74 192.897 201.23 193.018 200.839 193.26C200.461 193.49 200.271 193.807 200.271 194.21C200.271 194.808 200.885 195.223 202.113 195.453L206.399 196.299C208.281 196.668 209.658 197.278 210.53 198.13C211.414 198.97 211.856 200.115 211.856 201.566C211.856 203.626 211.007 205.267 209.308 206.487C207.621 207.696 205.378 208.3 202.578 208.3C199.652 208.3 197.368 207.707 195.727 206.522C194.098 205.324 193.22 203.695 193.093 201.635H199.91C199.979 202.268 200.254 202.769 200.736 203.137C201.23 203.494 201.872 203.672 202.664 203.672C203.353 203.672 203.892 203.563 204.282 203.344C204.672 203.114 204.867 202.803 204.867 202.412C204.867 202.113 204.73 201.871 204.454 201.687C204.179 201.491 203.72 201.336 203.077 201.22L199.411 200.495C197.494 200.115 196.031 199.43 195.021 198.44C194.023 197.439 193.524 196.184 193.524 194.676Z" fill="#28282A"/>
<path d="M220.462 207.817V188.753H227.52V207.817H220.462ZM226.487 186.75C225.821 187.383 224.99 187.7 223.991 187.7C222.993 187.7 222.155 187.383 221.478 186.75C220.812 186.105 220.48 185.305 220.48 184.35C220.48 183.394 220.812 182.6 221.478 181.967C222.155 181.322 222.993 181 223.991 181C224.99 181 225.821 181.322 226.487 181.967C227.164 182.6 227.503 183.394 227.503 184.35C227.503 185.305 227.164 186.105 226.487 186.75Z" fill="#28282A"/>
<path d="M230.171 207.817V188.753H237.056V192.604H237.194C237.549 191.315 238.221 190.29 239.208 189.53C240.194 188.759 241.336 188.373 242.633 188.373C244.079 188.373 245.261 188.742 246.179 189.478C247.108 190.204 247.688 191.234 247.917 192.569H248.055C248.376 191.303 249.065 190.29 250.121 189.53C251.188 188.759 252.445 188.373 253.89 188.373C255.738 188.373 257.241 188.983 258.4 190.204C259.559 191.412 260.139 192.99 260.139 194.935V207.817H253.081V196.765C253.081 194.958 252.313 194.054 250.775 194.054C250.063 194.054 249.507 194.296 249.105 194.78C248.704 195.252 248.503 195.908 248.503 196.748V207.817H241.807V196.783C241.807 194.964 241.044 194.054 239.517 194.054C238.806 194.054 238.244 194.296 237.831 194.78C237.429 195.263 237.228 195.919 237.228 196.748V207.817H230.171Z" fill="#28282A"/>
<path d="M275.596 188.477C277.983 188.477 279.819 189.323 281.104 191.015C282.39 192.707 283.032 195.131 283.032 198.285C283.032 201.428 282.395 203.851 281.122 205.555C279.848 207.247 278.035 208.093 275.682 208.093C274.294 208.093 273.1 207.782 272.102 207.16C271.104 206.527 270.381 205.647 269.933 204.519H269.795V213.912H262.738V188.753H269.813V192.189H269.933C270.392 191.015 271.109 190.106 272.085 189.461C273.072 188.805 274.242 188.477 275.596 188.477ZM270.587 201.479C271.127 202.251 271.861 202.636 272.791 202.636C273.72 202.636 274.454 202.245 274.994 201.462C275.533 200.679 275.803 199.62 275.803 198.285C275.803 196.961 275.527 195.908 274.977 195.125C274.437 194.331 273.709 193.933 272.791 193.933C271.872 193.933 271.138 194.331 270.587 195.125C270.048 195.908 269.772 196.967 269.761 198.302C269.772 199.638 270.048 200.697 270.587 201.479Z" fill="#28282A"/>
<path d="M294.72 208.3C291.599 208.3 289.155 207.431 287.387 205.693C285.62 203.943 284.736 201.468 284.736 198.268C284.736 195.148 285.632 192.702 287.422 190.929C289.223 189.156 291.656 188.27 294.72 188.27C297.807 188.27 300.246 189.156 302.036 190.929C303.826 192.69 304.721 195.136 304.721 198.268C304.721 201.468 303.837 203.943 302.07 205.693C300.303 207.431 297.853 208.3 294.72 208.3ZM294.72 203.241C295.604 203.241 296.298 202.809 296.803 201.946C297.308 201.082 297.56 199.862 297.56 198.285C297.56 196.742 297.302 195.534 296.786 194.659C296.281 193.772 295.592 193.329 294.72 193.329C293.848 193.329 293.159 193.772 292.655 194.659C292.15 195.534 291.897 196.742 291.897 198.285C291.897 199.874 292.144 201.1 292.637 201.963C293.131 202.815 293.825 203.241 294.72 203.241Z" fill="#28282A"/>
<path d="M306.907 207.817V188.753H313.792V192.5H313.93C314.642 189.818 316.122 188.477 318.371 188.477C318.979 188.477 319.53 188.569 320.023 188.753V194.693C319.404 194.428 318.721 194.296 317.975 194.296C315.301 194.296 313.964 195.637 313.964 198.319V207.817H306.907Z" fill="#28282A"/>
<path d="M323.415 184.574H330.472V188.753H333.811V193.882H330.472V200.927C330.472 202.136 331.183 202.74 332.606 202.74C333.065 202.74 333.467 202.711 333.811 202.654V207.558C332.974 207.73 332.004 207.817 330.902 207.817C328.228 207.817 326.312 207.402 325.153 206.573C323.994 205.745 323.415 204.386 323.415 202.498V193.882H320.901V188.753H323.415V184.574Z" fill="#28282A"/>
<path d="M344.466 203.362C345.281 203.362 345.987 203.154 346.583 202.74C347.18 202.314 347.479 201.761 347.479 201.082V199.839L344.483 200.046C343.818 200.092 343.301 200.265 342.934 200.564C342.567 200.864 342.383 201.249 342.383 201.721C342.383 202.228 342.573 202.631 342.951 202.93C343.33 203.218 343.835 203.362 344.466 203.362ZM341.833 208.093C340.065 208.093 338.556 207.546 337.306 206.453C336.055 205.347 335.429 203.954 335.429 202.274C335.429 200.455 336.101 199.05 337.443 198.06C338.797 197.059 340.754 196.478 343.313 196.316L347.479 196.057V195.125C347.479 194.503 347.266 194.02 346.842 193.674C346.417 193.329 345.866 193.156 345.189 193.156C344.489 193.156 343.915 193.323 343.468 193.657C343.02 193.991 342.768 194.411 342.71 194.918H336.41C336.502 192.869 337.363 191.251 338.992 190.066C340.622 188.868 342.814 188.27 345.568 188.27C348.196 188.27 350.319 188.874 351.937 190.083C353.555 191.28 354.364 192.846 354.364 194.78V207.817H347.479V205.261H347.341C346.859 206.159 346.107 206.855 345.086 207.35C344.076 207.845 342.992 208.093 341.833 208.093Z" fill="#28282A"/>
<path d="M357.032 207.817V188.753H363.917V192.604H364.055C364.411 191.315 365.082 190.29 366.069 189.53C367.056 188.759 368.197 188.373 369.494 188.373C370.94 188.373 372.122 188.742 373.04 189.478C373.97 190.204 374.549 191.234 374.779 192.569H374.916C375.238 191.303 375.926 190.29 376.982 189.53C378.049 188.759 379.306 188.373 380.752 188.373C382.599 188.373 384.102 188.983 385.261 190.204C386.421 191.412 387 192.99 387 194.935V207.817H379.943V196.765C379.943 194.958 379.174 194.054 377.636 194.054C376.925 194.054 376.368 194.296 375.966 194.78C375.565 195.252 375.364 195.908 375.364 196.748V207.817H368.668V196.783C368.668 194.964 367.905 194.054 366.379 194.054C365.667 194.054 365.105 194.296 364.692 194.78C364.29 195.263 364.089 195.919 364.089 196.748V207.817H357.032Z" fill="#28282A"/>
</g>
<g opacity="0.5">
<path d="M4.00663 306.605H-5.46062L-13 280.955H-4.59997L-0.623719 299.46H-0.486013L3.49023 280.955H11.546L4.00663 306.605Z" fill="#28282A"/>
<path d="M13.3878 306.605V286.981H20.4452V306.605H13.3878ZM19.4124 284.919C18.7469 285.571 17.9149 285.897 16.9165 285.897C15.9182 285.897 15.0804 285.571 14.4034 284.919C13.7378 284.256 13.405 283.432 13.405 282.448C13.405 281.465 13.7378 280.647 14.4034 279.995C15.0804 279.332 15.9182 279 16.9165 279C17.9149 279 18.7469 279.332 19.4124 279.995C20.0895 280.647 20.428 281.465 20.428 282.448C20.428 283.432 20.0895 284.256 19.4124 284.919Z" fill="#28282A"/>
<path d="M30.0158 306.89C27.6748 306.89 25.8559 306.001 24.5592 304.223C23.2624 302.434 22.6141 299.94 22.6141 296.74C22.6141 293.588 23.2739 291.129 24.5936 289.363C25.9248 287.586 27.7723 286.697 30.1362 286.697C31.4903 286.697 32.6608 287.052 33.6477 287.763C34.6461 288.463 35.3346 289.381 35.7133 290.519H35.851V280.955H42.9084V306.605H35.851V303.21H35.7133C35.3805 304.265 34.692 305.142 33.6477 305.841C32.6149 306.54 31.4043 306.89 30.0158 306.89ZM35.0764 293.505C34.5371 292.711 33.7969 292.314 32.8559 292.314C31.9149 292.314 31.1748 292.717 30.6354 293.523C30.1076 294.317 29.8436 295.407 29.8436 296.793C29.8436 298.203 30.1076 299.306 30.6354 300.1C31.1633 300.882 31.9035 301.273 32.8559 301.273C33.8084 301.273 34.5486 300.882 35.0764 300.1C35.6158 299.317 35.8854 298.221 35.8854 296.811C35.8854 295.401 35.6158 294.299 35.0764 293.505Z" fill="#28282A"/>
<path d="M53.9077 302.019C54.7224 302.019 55.4282 301.806 56.0249 301.379C56.6216 300.941 56.92 300.372 56.92 299.673V298.393L53.9249 298.606C53.2593 298.654 52.7429 298.832 52.3757 299.14C52.0085 299.448 51.8249 299.845 51.8249 300.331C51.8249 300.852 52.0142 301.267 52.3929 301.575C52.7716 301.871 53.2765 302.019 53.9077 302.019ZM51.274 306.89C49.5068 306.89 47.9978 306.327 46.747 305.201C45.4961 304.063 44.8707 302.63 44.8707 300.899C44.8707 299.027 45.542 297.581 46.8847 296.562C48.2388 295.531 50.1953 294.933 52.7544 294.767L56.92 294.5V293.54C56.92 292.9 56.7077 292.403 56.2831 292.047C55.8585 291.692 55.3077 291.514 54.6306 291.514C53.9306 291.514 53.3568 291.686 52.9093 292.029C52.4617 292.373 52.2093 292.806 52.1519 293.327H45.8519C45.9437 291.218 46.8043 289.553 48.4339 288.332C50.0634 287.1 52.2552 286.483 55.0093 286.483C57.6372 286.483 59.7601 287.106 61.3782 288.35C62.9962 289.582 63.8052 291.194 63.8052 293.185V306.605H56.92V303.975H56.7823C56.3003 304.899 55.5486 305.616 54.5273 306.125C53.5175 306.635 52.4331 306.89 51.274 306.89Z" fill="#28282A"/>
<path d="M66.1462 293.078C66.1462 291.028 66.938 289.416 68.5217 288.243C70.1053 287.07 72.2799 286.483 75.0454 286.483C77.8225 286.483 79.9914 287.088 81.552 288.297C83.1242 289.505 83.9102 291.182 83.9102 293.327H77.5069C77.5069 292.687 77.2774 292.184 76.8184 291.816C76.3709 291.437 75.7627 291.247 74.9938 291.247C74.3627 291.247 73.852 291.372 73.4618 291.621C73.0831 291.858 72.8938 292.184 72.8938 292.598C72.8938 293.214 73.5077 293.641 74.7356 293.878L79.0217 294.749C80.9037 295.128 82.2807 295.756 83.1529 296.633C84.0365 297.498 84.4783 298.678 84.4783 300.171C84.4783 302.292 83.6291 303.981 81.9307 305.237C80.2438 306.481 78.0004 307.103 75.2004 307.103C72.2741 307.103 69.9905 306.493 68.3495 305.272C66.72 304.04 65.8421 302.363 65.7159 300.242H72.5323C72.6012 300.894 72.8766 301.409 73.3586 301.788C73.852 302.156 74.4946 302.339 75.2864 302.339C75.975 302.339 76.5143 302.227 76.9045 302.002C77.2946 301.765 77.4897 301.445 77.4897 301.042C77.4897 300.734 77.352 300.485 77.0766 300.295C76.8012 300.094 76.3422 299.934 75.6995 299.815L72.0331 299.069C70.1167 298.678 68.6536 297.972 67.6438 296.953C66.6454 295.922 66.1462 294.631 66.1462 293.078Z" fill="#28282A"/>
<path d="M93.0849 306.605V286.981H99.9701V290.838H100.108C100.59 289.452 101.324 288.397 102.311 287.674C103.298 286.952 104.509 286.59 105.943 286.59C108.066 286.59 109.696 287.242 110.832 288.545C111.979 289.837 112.553 291.668 112.553 294.038V306.605H105.496V295.656C105.496 294.648 105.266 293.866 104.807 293.309C104.36 292.752 103.7 292.474 102.828 292.474C102.001 292.474 101.347 292.77 100.865 293.363C100.383 293.943 100.142 294.702 100.142 295.638V306.605H93.0849Z" fill="#28282A"/>
<path d="M124.499 291.496C123.696 291.496 123.019 291.769 122.468 292.314C121.917 292.859 121.607 293.552 121.538 294.394H127.46C127.402 293.517 127.098 292.818 126.547 292.296C126.008 291.763 125.325 291.496 124.499 291.496ZM127.666 300.242H133.949C133.651 302.363 132.664 304.04 130.988 305.272C129.313 306.493 127.173 307.103 124.568 307.103C121.458 307.103 119.025 306.202 117.269 304.401C115.514 302.588 114.636 300.088 114.636 296.9C114.636 293.689 115.508 291.153 117.252 289.292C118.996 287.42 121.36 286.483 124.344 286.483C127.293 286.483 129.646 287.384 131.401 289.185C133.157 290.975 134.035 293.369 134.035 296.367V298.34H121.435V298.802C121.435 299.762 121.739 300.556 122.347 301.184C122.955 301.8 123.73 302.108 124.671 302.108C125.394 302.108 126.019 301.942 126.547 301.61C127.087 301.279 127.46 300.822 127.666 300.242Z" fill="#28282A"/>
<path d="M143.709 299.993C144.237 300.728 144.983 301.095 145.947 301.095C146.91 301.095 147.656 300.734 148.184 300.011C148.712 299.276 148.976 298.209 148.976 296.811C148.976 295.413 148.706 294.317 148.167 293.523C147.628 292.717 146.888 292.314 145.947 292.314C145.006 292.314 144.265 292.717 143.726 293.523C143.198 294.317 142.934 295.407 142.934 296.793C142.934 298.192 143.192 299.258 143.709 299.993ZM145.671 314C142.848 314 140.588 313.425 138.889 312.276C137.202 311.138 136.284 309.639 136.135 307.779H142.917C143.02 308.253 143.336 308.638 143.864 308.934C144.392 309.242 145.046 309.396 145.826 309.396C146.847 309.396 147.622 309.147 148.15 308.65C148.678 308.152 148.942 307.476 148.942 306.623V302.855H148.804C148.494 303.898 147.823 304.745 146.79 305.397C145.757 306.037 144.535 306.357 143.124 306.357C140.863 306.357 139.061 305.515 137.719 303.832C136.376 302.138 135.705 299.774 135.705 296.74C135.705 293.588 136.365 291.129 137.684 289.363C139.015 287.586 140.863 286.697 143.227 286.697C144.581 286.697 145.751 287.052 146.738 287.763C147.737 288.463 148.425 289.381 148.804 290.519H148.942V286.981H155.999V306.445C155.999 308.756 155.047 310.593 153.142 311.956C151.248 313.319 148.758 314 145.671 314Z" fill="#28282A"/>
<path d="M158.667 306.605V286.981H165.552V290.838H165.69C166.402 288.077 167.882 286.697 170.131 286.697C170.739 286.697 171.29 286.792 171.784 286.981V293.096C171.164 292.823 170.481 292.687 169.735 292.687C167.061 292.687 165.725 294.068 165.725 296.829V306.605H158.667Z" fill="#28282A"/>
<path d="M181.285 302.019C182.1 302.019 182.806 301.806 183.402 301.379C183.999 300.941 184.298 300.372 184.298 299.673V298.393L181.302 298.606C180.637 298.654 180.12 298.832 179.753 299.14C179.386 299.448 179.202 299.845 179.202 300.331C179.202 300.852 179.392 301.267 179.77 301.575C180.149 301.871 180.654 302.019 181.285 302.019ZM178.652 306.89C176.884 306.89 175.375 306.327 174.125 305.201C172.874 304.063 172.248 302.63 172.248 300.899C172.248 299.027 172.92 297.581 174.262 296.562C175.616 295.531 177.573 294.933 180.132 294.767L184.298 294.5V293.54C184.298 292.9 184.085 292.403 183.661 292.047C183.236 291.692 182.685 291.514 182.008 291.514C181.308 291.514 180.734 291.686 180.287 292.029C179.839 292.373 179.587 292.806 179.529 293.327H173.229C173.321 291.218 174.182 289.553 175.811 288.332C177.441 287.1 179.633 286.483 182.387 286.483C185.015 286.483 187.138 287.106 188.756 288.35C190.374 289.582 191.183 291.194 191.183 293.185V306.605H184.298V303.975H184.16C183.678 304.899 182.926 305.616 181.905 306.125C180.895 306.635 179.811 306.89 178.652 306.89Z" fill="#28282A"/>
<path d="M193.524 293.078C193.524 291.028 194.316 289.416 195.899 288.243C197.483 287.07 199.657 286.483 202.423 286.483C205.2 286.483 207.369 287.088 208.93 288.297C210.502 289.505 211.288 291.182 211.288 293.327H204.885C204.885 292.687 204.655 292.184 204.196 291.816C203.748 291.437 203.14 291.247 202.371 291.247C201.74 291.247 201.23 291.372 200.839 291.621C200.461 291.858 200.271 292.184 200.271 292.598C200.271 293.214 200.885 293.641 202.113 293.878L206.399 294.749C208.281 295.128 209.658 295.756 210.53 296.633C211.414 297.498 211.856 298.678 211.856 300.171C211.856 302.292 211.007 303.981 209.308 305.237C207.621 306.481 205.378 307.103 202.578 307.103C199.652 307.103 197.368 306.493 195.727 305.272C194.098 304.04 193.22 302.363 193.093 300.242H199.91C199.979 300.894 200.254 301.409 200.736 301.788C201.23 302.156 201.872 302.339 202.664 302.339C203.353 302.339 203.892 302.227 204.282 302.002C204.672 301.765 204.867 301.445 204.867 301.042C204.867 300.734 204.73 300.485 204.454 300.295C204.179 300.094 203.72 299.934 203.077 299.815L199.411 299.069C197.494 298.678 196.031 297.972 195.021 296.953C194.023 295.922 193.524 294.631 193.524 293.078Z" fill="#28282A"/>
<path d="M220.462 306.605V286.981H227.52V306.605H220.462ZM226.487 284.919C225.821 285.571 224.99 285.897 223.991 285.897C222.993 285.897 222.155 285.571 221.478 284.919C220.812 284.256 220.48 283.432 220.48 282.448C220.48 281.465 220.812 280.647 221.478 279.995C222.155 279.332 222.993 279 223.991 279C224.99 279 225.821 279.332 226.487 279.995C227.164 280.647 227.503 281.465 227.503 282.448C227.503 283.432 227.164 284.256 226.487 284.919Z" fill="#28282A"/>
<path d="M230.171 306.605V286.981H237.056V290.945H237.194C237.549 289.618 238.221 288.563 239.208 287.781C240.194 286.987 241.336 286.59 242.633 286.59C244.079 286.59 245.261 286.969 246.179 287.728C247.108 288.474 247.688 289.535 247.917 290.91H248.055C248.376 289.606 249.065 288.563 250.121 287.781C251.188 286.987 252.445 286.59 253.89 286.59C255.738 286.59 257.241 287.218 258.4 288.474C259.559 289.719 260.139 291.342 260.139 293.345V306.605H253.081V295.229C253.081 293.369 252.313 292.438 250.775 292.438C250.063 292.438 249.507 292.687 249.105 293.185C248.704 293.671 248.503 294.346 248.503 295.211V306.605H241.807V295.247C241.807 293.374 241.044 292.438 239.517 292.438C238.806 292.438 238.244 292.687 237.831 293.185C237.429 293.683 237.228 294.358 237.228 295.211V306.605H230.171Z" fill="#28282A"/>
<path d="M275.596 286.697C277.983 286.697 279.819 287.568 281.104 289.31C282.39 291.052 283.032 293.546 283.032 296.793C283.032 300.028 282.395 302.523 281.122 304.277C279.848 306.019 278.035 306.89 275.682 306.89C274.294 306.89 273.1 306.57 272.102 305.93C271.104 305.278 270.381 304.372 269.933 303.21H269.795V312.88H262.738V286.981H269.813V290.519H269.933C270.392 289.31 271.109 288.374 272.085 287.71C273.072 287.035 274.242 286.697 275.596 286.697ZM270.587 300.082C271.127 300.876 271.861 301.273 272.791 301.273C273.72 301.273 274.454 300.87 274.994 300.064C275.533 299.258 275.803 298.168 275.803 296.793C275.803 295.431 275.527 294.346 274.977 293.54C274.437 292.723 273.709 292.314 272.791 292.314C271.872 292.314 271.138 292.723 270.587 293.54C270.048 294.346 269.772 295.436 269.761 296.811C269.772 298.186 270.048 299.276 270.587 300.082Z" fill="#28282A"/>
<path d="M294.72 307.103C291.599 307.103 289.155 306.208 287.387 304.419C285.62 302.618 284.736 300.07 284.736 296.776C284.736 293.564 285.632 291.046 287.422 289.221C289.223 287.396 291.656 286.483 294.72 286.483C297.807 286.483 300.246 287.396 302.036 289.221C303.826 291.034 304.721 293.552 304.721 296.776C304.721 300.07 303.837 302.618 302.07 304.419C300.303 306.208 297.853 307.103 294.72 307.103ZM294.72 301.895C295.604 301.895 296.298 301.45 296.803 300.562C297.308 299.673 297.56 298.417 297.56 296.793C297.56 295.205 297.302 293.961 296.786 293.06C296.281 292.148 295.592 291.692 294.72 291.692C293.848 291.692 293.159 292.148 292.655 293.06C292.15 293.961 291.897 295.205 291.897 296.793C291.897 298.429 292.144 299.691 292.637 300.579C293.131 301.456 293.825 301.895 294.72 301.895Z" fill="#28282A"/>
<path d="M306.907 306.605V286.981H313.792V290.838H313.93C314.642 288.077 316.122 286.697 318.371 286.697C318.979 286.697 319.53 286.792 320.023 286.981V293.096C319.404 292.823 318.721 292.687 317.975 292.687C315.301 292.687 313.964 294.068 313.964 296.829V306.605H306.907Z" fill="#28282A"/>
<path d="M323.415 282.68H330.472V286.981H333.811V292.261H330.472V299.513C330.472 300.757 331.183 301.379 332.606 301.379C333.065 301.379 333.467 301.35 333.811 301.291V306.339C332.974 306.517 332.004 306.605 330.902 306.605C328.228 306.605 326.312 306.179 325.153 305.326C323.994 304.472 323.415 303.074 323.415 301.131V292.261H320.901V286.981H323.415V282.68Z" fill="#28282A"/>
<path d="M344.466 302.019C345.281 302.019 345.987 301.806 346.583 301.379C347.18 300.941 347.479 300.372 347.479 299.673V298.393L344.483 298.606C343.818 298.654 343.301 298.832 342.934 299.14C342.567 299.448 342.383 299.845 342.383 300.331C342.383 300.852 342.573 301.267 342.951 301.575C343.33 301.871 343.835 302.019 344.466 302.019ZM341.833 306.89C340.065 306.89 338.556 306.327 337.306 305.201C336.055 304.063 335.429 302.63 335.429 300.899C335.429 299.027 336.101 297.581 337.443 296.562C338.797 295.531 340.754 294.933 343.313 294.767L347.479 294.5V293.54C347.479 292.9 347.266 292.403 346.842 292.047C346.417 291.692 345.866 291.514 345.189 291.514C344.489 291.514 343.915 291.686 343.468 292.029C343.02 292.373 342.768 292.806 342.71 293.327H336.41C336.502 291.218 337.363 289.553 338.992 288.332C340.622 287.1 342.814 286.483 345.568 286.483C348.196 286.483 350.319 287.106 351.937 288.35C353.555 289.582 354.364 291.194 354.364 293.185V306.605H347.479V303.975H347.341C346.859 304.899 346.107 305.616 345.086 306.125C344.076 306.635 342.992 306.89 341.833 306.89Z" fill="#28282A"/>
<path d="M357.032 306.605V286.981H363.917V290.945H364.055C364.411 289.618 365.082 288.563 366.069 287.781C367.056 286.987 368.197 286.59 369.494 286.59C370.94 286.59 372.122 286.969 373.04 287.728C373.97 288.474 374.549 289.535 374.779 290.91H374.916C375.238 289.606 375.926 288.563 376.982 287.781C378.049 286.987 379.306 286.59 380.752 286.59C382.599 286.59 384.102 287.218 385.261 288.474C386.421 289.719 387 291.342 387 293.345V306.605H379.943V295.229C379.943 293.369 379.174 292.438 377.636 292.438C376.925 292.438 376.368 292.687 375.966 293.185C375.565 293.671 375.364 294.346 375.364 295.211V306.605H368.668V295.247C368.668 293.374 367.905 292.438 366.379 292.438C365.667 292.438 365.105 292.687 364.692 293.185C364.29 293.683 364.089 294.358 364.089 295.211V306.605H357.032Z" fill="#28282A"/>
</g>
<g opacity="0.05">
<path d="M4.00663 373.394H-5.46062L-13 347.011H-4.59997L-0.623719 366.044H-0.486013L3.49023 347.011H11.546L4.00663 373.394Z" fill="#28282A"/>
<path d="M13.3878 373.394V353.209H20.4452V373.394H13.3878ZM19.4124 351.088C18.7469 351.759 17.9149 352.094 16.9165 352.094C15.9182 352.094 15.0804 351.759 14.4034 351.088C13.7378 350.406 13.405 349.559 13.405 348.547C13.405 347.535 13.7378 346.694 14.4034 346.024C15.0804 345.341 15.9182 345 16.9165 345C17.9149 345 18.7469 345.341 19.4124 346.024C20.0895 346.694 20.428 347.535 20.428 348.547C20.428 349.559 20.0895 350.406 19.4124 351.088Z" fill="#28282A"/>
<path d="M30.0158 373.687C27.6748 373.687 25.8559 372.772 24.5592 370.944C23.2624 369.104 22.6141 366.538 22.6141 363.247C22.6141 360.005 23.2739 357.475 24.5936 355.659C25.9248 353.831 27.7723 352.917 30.1362 352.917C31.4903 352.917 32.6608 353.282 33.6477 354.014C34.6461 354.733 35.3346 355.678 35.7133 356.848H35.851V347.011H42.9084V373.394H35.851V369.902H35.7133C35.3805 370.987 34.692 371.889 33.6477 372.608C32.6149 373.327 31.4043 373.687 30.0158 373.687ZM35.0764 359.919C34.5371 359.103 33.7969 358.694 32.8559 358.694C31.9149 358.694 31.1748 359.109 30.6354 359.938C30.1076 360.754 29.8436 361.876 29.8436 363.302C29.8436 364.752 30.1076 365.886 30.6354 366.702C31.1633 367.507 31.9035 367.909 32.8559 367.909C33.8084 367.909 34.5486 367.507 35.0764 366.702C35.6158 365.898 35.8854 364.77 35.8854 363.32C35.8854 361.869 35.6158 360.736 35.0764 359.919Z" fill="#28282A"/>
<path d="M53.9077 368.677C54.7224 368.677 55.4282 368.458 56.0249 368.019C56.6216 367.568 56.92 366.983 56.92 366.264V364.947L53.9249 365.167C53.2593 365.215 52.7429 365.398 52.3757 365.715C52.0085 366.032 51.8249 366.44 51.8249 366.94C51.8249 367.476 52.0142 367.903 52.3929 368.22C52.7716 368.525 53.2765 368.677 53.9077 368.677ZM51.274 373.687C49.5068 373.687 47.9978 373.108 46.747 371.95C45.4961 370.78 44.8707 369.305 44.8707 367.525C44.8707 365.599 45.542 364.112 46.8847 363.064C48.2388 362.004 50.1953 361.388 52.7544 361.217L56.92 360.943V359.956C56.92 359.298 56.7077 358.786 56.2831 358.42C55.8585 358.054 55.3077 357.872 54.6306 357.872C53.9306 357.872 53.3568 358.048 52.9093 358.402C52.4617 358.755 52.2093 359.2 52.1519 359.736H45.8519C45.9437 357.567 46.8043 355.854 48.4339 354.599C50.0634 353.331 52.2552 352.697 55.0093 352.697C57.6372 352.697 59.7601 353.337 61.3782 354.617C62.9962 355.885 63.8052 357.542 63.8052 359.59V373.394H56.92V370.688H56.7823C56.3003 371.639 55.5486 372.376 54.5273 372.9C53.5175 373.425 52.4331 373.687 51.274 373.687Z" fill="#28282A"/>
<path d="M66.1462 359.48C66.1462 357.372 66.938 355.714 68.5217 354.507C70.1053 353.301 72.2799 352.697 75.0454 352.697C77.8225 352.697 79.9914 353.319 81.552 354.562C83.1242 355.805 83.9102 357.53 83.9102 359.736H77.5069C77.5069 359.078 77.2774 358.56 76.8184 358.182C76.3709 357.792 75.7627 357.597 74.9938 357.597C74.3627 357.597 73.852 357.725 73.4618 357.981C73.0831 358.225 72.8938 358.56 72.8938 358.987C72.8938 359.621 73.5077 360.059 74.7356 360.303L79.0217 361.199C80.9037 361.589 82.2807 362.235 83.1529 363.137C84.0365 364.027 84.4783 365.24 84.4783 366.776C84.4783 368.957 83.6291 370.694 81.9307 371.986C80.2438 373.266 78.0004 373.906 75.2004 373.906C72.2741 373.906 69.9905 373.278 68.3495 372.023C66.72 370.755 65.8421 369.03 65.7159 366.849H72.5323C72.6012 367.519 72.8766 368.049 73.3586 368.439C73.852 368.817 74.4946 369.006 75.2864 369.006C75.975 369.006 76.5143 368.89 76.9045 368.659C77.2946 368.415 77.4897 368.086 77.4897 367.671C77.4897 367.354 77.352 367.099 77.0766 366.904C76.8012 366.696 76.3422 366.532 75.6995 366.41L72.0331 365.642C70.1167 365.24 68.6536 364.514 67.6438 363.466C66.6454 362.406 66.1462 361.077 66.1462 359.48Z" fill="#28282A"/>
<path d="M93.0849 373.394V353.209H99.9701V357.177H100.108C100.59 355.751 101.324 354.666 102.311 353.922C103.298 353.179 104.509 352.807 105.943 352.807C108.066 352.807 109.696 353.477 110.832 354.818C111.979 356.147 112.553 358.03 112.553 360.468V373.394H105.496V362.132C105.496 361.095 105.266 360.291 104.807 359.718C104.36 359.145 103.7 358.859 102.828 358.859C102.001 358.859 101.347 359.164 100.865 359.773C100.383 360.37 100.142 361.15 100.142 362.113V373.394H93.0849Z" fill="#28282A"/>
<path d="M124.499 357.853C123.696 357.853 123.019 358.134 122.468 358.694C121.917 359.255 121.607 359.968 121.538 360.833H127.46C127.402 359.931 127.098 359.212 126.547 358.676C126.008 358.127 125.325 357.853 124.499 357.853ZM127.666 366.849H133.949C133.651 369.03 132.664 370.755 130.988 372.023C129.313 373.278 127.173 373.906 124.568 373.906C121.458 373.906 119.025 372.98 117.269 371.127C115.514 369.262 114.636 366.69 114.636 363.411C114.636 360.108 115.508 357.5 117.252 355.586C118.996 353.66 121.36 352.697 124.344 352.697C127.293 352.697 129.646 353.624 131.401 355.476C133.157 357.317 134.035 359.779 134.035 362.863V364.892H121.435V365.368C121.435 366.355 121.739 367.172 122.347 367.818C122.955 368.451 123.73 368.768 124.671 368.768C125.394 368.768 126.019 368.598 126.547 368.256C127.087 367.915 127.46 367.446 127.666 366.849Z" fill="#28282A"/>
<path d="M143.709 366.593C144.237 367.348 144.983 367.726 145.947 367.726C146.91 367.726 147.656 367.354 148.184 366.611C148.712 365.855 148.976 364.758 148.976 363.32C148.976 361.882 148.706 360.754 148.167 359.938C147.628 359.109 146.888 358.694 145.947 358.694C145.006 358.694 144.265 359.109 143.726 359.938C143.198 360.754 142.934 361.876 142.934 363.302C142.934 364.74 143.192 365.837 143.709 366.593ZM145.671 381C142.848 381 140.588 380.409 138.889 379.227C137.202 378.056 136.284 376.514 136.135 374.601H142.917C143.02 375.088 143.336 375.485 143.864 375.789C144.392 376.106 145.046 376.265 145.826 376.265C146.847 376.265 147.622 376.009 148.15 375.497C148.678 374.985 148.942 374.29 148.942 373.412V369.536H148.804C148.494 370.609 147.823 371.48 146.79 372.151C145.757 372.809 144.535 373.138 143.124 373.138C140.863 373.138 139.061 372.273 137.719 370.542C136.376 368.799 135.705 366.367 135.705 363.247C135.705 360.005 136.365 357.475 137.684 355.659C139.015 353.831 140.863 352.917 143.227 352.917C144.581 352.917 145.751 353.282 146.738 354.014C147.737 354.733 148.425 355.678 148.804 356.848H148.942V353.209H155.999V373.23C155.999 375.606 155.047 377.496 153.142 378.897C151.248 380.299 148.758 381 145.671 381Z" fill="#28282A"/>
<path d="M158.667 373.394V353.209H165.552V357.177H165.69C166.402 354.337 167.882 352.917 170.131 352.917C170.739 352.917 171.29 353.014 171.784 353.209V359.499C171.164 359.218 170.481 359.078 169.735 359.078C167.061 359.078 165.725 360.498 165.725 363.338V373.394H158.667Z" fill="#28282A"/>
<path d="M181.285 368.677C182.1 368.677 182.806 368.458 183.402 368.019C183.999 367.568 184.298 366.983 184.298 366.264V364.947L181.302 365.167C180.637 365.215 180.12 365.398 179.753 365.715C179.386 366.032 179.202 366.44 179.202 366.94C179.202 367.476 179.392 367.903 179.77 368.22C180.149 368.525 180.654 368.677 181.285 368.677ZM178.652 373.687C176.884 373.687 175.375 373.108 174.125 371.95C172.874 370.78 172.248 369.305 172.248 367.525C172.248 365.599 172.92 364.112 174.262 363.064C175.616 362.004 177.573 361.388 180.132 361.217L184.298 360.943V359.956C184.298 359.298 184.085 358.786 183.661 358.42C183.236 358.054 182.685 357.872 182.008 357.872C181.308 357.872 180.734 358.048 180.287 358.402C179.839 358.755 179.587 359.2 179.529 359.736H173.229C173.321 357.567 174.182 355.854 175.811 354.599C177.441 353.331 179.633 352.697 182.387 352.697C185.015 352.697 187.138 353.337 188.756 354.617C190.374 355.885 191.183 357.542 191.183 359.59V373.394H184.298V370.688H184.16C183.678 371.639 182.926 372.376 181.905 372.9C180.895 373.425 179.811 373.687 178.652 373.687Z" fill="#28282A"/>
<path d="M193.524 359.48C193.524 357.372 194.316 355.714 195.899 354.507C197.483 353.301 199.657 352.697 202.423 352.697C205.2 352.697 207.369 353.319 208.93 354.562C210.502 355.805 211.288 357.53 211.288 359.736H204.885C204.885 359.078 204.655 358.56 204.196 358.182C203.748 357.792 203.14 357.597 202.371 357.597C201.74 357.597 201.23 357.725 200.839 357.981C200.461 358.225 200.271 358.56 200.271 358.987C200.271 359.621 200.885 360.059 202.113 360.303L206.399 361.199C208.281 361.589 209.658 362.235 210.53 363.137C211.414 364.027 211.856 365.24 211.856 366.776C211.856 368.957 211.007 370.694 209.308 371.986C207.621 373.266 205.378 373.906 202.578 373.906C199.652 373.906 197.368 373.278 195.727 372.023C194.098 370.755 193.22 369.03 193.093 366.849H199.91C199.979 367.519 200.254 368.049 200.736 368.439C201.23 368.817 201.872 369.006 202.664 369.006C203.353 369.006 203.892 368.89 204.282 368.659C204.672 368.415 204.867 368.086 204.867 367.671C204.867 367.354 204.73 367.099 204.454 366.904C204.179 366.696 203.72 366.532 203.077 366.41L199.411 365.642C197.494 365.24 196.031 364.514 195.021 363.466C194.023 362.406 193.524 361.077 193.524 359.48Z" fill="#28282A"/>
<path d="M220.462 373.394V353.209H227.52V373.394H220.462ZM226.487 351.088C225.821 351.759 224.99 352.094 223.991 352.094C222.993 352.094 222.155 351.759 221.478 351.088C220.812 350.406 220.48 349.559 220.48 348.547C220.48 347.535 220.812 346.694 221.478 346.024C222.155 345.341 222.993 345 223.991 345C224.99 345 225.821 345.341 226.487 346.024C227.164 346.694 227.503 347.535 227.503 348.547C227.503 349.559 227.164 350.406 226.487 351.088Z" fill="#28282A"/>
<path d="M230.171 373.394V353.209H237.056V357.286H237.194C237.549 355.921 238.221 354.836 239.208 354.032C240.194 353.215 241.336 352.807 242.633 352.807C244.079 352.807 245.261 353.197 246.179 353.977C247.108 354.745 247.688 355.836 247.917 357.25H248.055C248.376 355.909 249.065 354.836 250.121 354.032C251.188 353.215 252.445 352.807 253.89 352.807C255.738 352.807 257.241 353.453 258.4 354.745C259.559 356.025 260.139 357.695 260.139 359.755V373.394H253.081V361.693C253.081 359.779 252.313 358.822 250.775 358.822C250.063 358.822 249.507 359.078 249.105 359.59C248.704 360.09 248.503 360.785 248.503 361.674V373.394H241.807V361.711C241.807 359.785 241.044 358.822 239.517 358.822C238.806 358.822 238.244 359.078 237.831 359.59C237.429 360.102 237.228 360.797 237.228 361.674V373.394H230.171Z" fill="#28282A"/>
<path d="M275.596 352.917C277.983 352.917 279.819 353.813 281.104 355.604C282.39 357.396 283.032 359.962 283.032 363.302C283.032 366.629 282.395 369.195 281.122 370.999C279.848 372.791 278.035 373.687 275.682 373.687C274.294 373.687 273.1 373.358 272.102 372.699C271.104 372.029 270.381 371.096 269.933 369.902H269.795V379.848H262.738V353.209H269.813V356.848H269.933C270.392 355.604 271.109 354.641 272.085 353.959C273.072 353.264 274.242 352.917 275.596 352.917ZM270.587 366.684C271.127 367.501 271.861 367.909 272.791 367.909C273.72 367.909 274.454 367.495 274.994 366.666C275.533 365.837 275.803 364.716 275.803 363.302C275.803 361.9 275.527 360.785 274.977 359.956C274.437 359.115 273.709 358.694 272.791 358.694C271.872 358.694 271.138 359.115 270.587 359.956C270.048 360.785 269.772 361.906 269.761 363.32C269.772 364.734 270.048 365.855 270.587 366.684Z" fill="#28282A"/>
<path d="M294.72 373.906C291.599 373.906 289.155 372.986 287.387 371.145C285.62 369.293 284.736 366.672 284.736 363.283C284.736 359.98 285.632 357.39 287.422 355.513C289.223 353.636 291.656 352.697 294.72 352.697C297.807 352.697 300.246 353.636 302.036 355.513C303.826 357.378 304.721 359.968 304.721 363.283C304.721 366.672 303.837 369.293 302.07 371.145C300.303 372.986 297.853 373.906 294.72 373.906ZM294.72 368.549C295.604 368.549 296.298 368.092 296.803 367.178C297.308 366.264 297.56 364.972 297.56 363.302C297.56 361.668 297.302 360.389 296.786 359.462C296.281 358.524 295.592 358.054 294.72 358.054C293.848 358.054 293.159 358.524 292.655 359.462C292.15 360.389 291.897 361.668 291.897 363.302C291.897 364.984 292.144 366.282 292.637 367.196C293.131 368.098 293.825 368.549 294.72 368.549Z" fill="#28282A"/>
<path d="M306.907 373.394V353.209H313.792V357.177H313.93C314.642 354.337 316.122 352.917 318.371 352.917C318.979 352.917 319.53 353.014 320.023 353.209V359.499C319.404 359.218 318.721 359.078 317.975 359.078C315.301 359.078 313.964 360.498 313.964 363.338V373.394H306.907Z" fill="#28282A"/>
<path d="M323.415 348.785H330.472V353.209H333.811V358.639H330.472V366.099C330.472 367.379 331.183 368.019 332.606 368.019C333.065 368.019 333.467 367.988 333.811 367.927V373.12C332.974 373.303 332.004 373.394 330.902 373.394C328.228 373.394 326.312 372.955 325.153 372.078C323.994 371.2 323.415 369.762 323.415 367.763V358.639H320.901V353.209H323.415V348.785Z" fill="#28282A"/>
<path d="M344.466 368.677C345.281 368.677 345.987 368.458 346.583 368.019C347.18 367.568 347.479 366.983 347.479 366.264V364.947L344.483 365.167C343.818 365.215 343.301 365.398 342.934 365.715C342.567 366.032 342.383 366.44 342.383 366.94C342.383 367.476 342.573 367.903 342.951 368.22C343.33 368.525 343.835 368.677 344.466 368.677ZM341.833 373.687C340.065 373.687 338.556 373.108 337.306 371.95C336.055 370.78 335.429 369.305 335.429 367.525C335.429 365.599 336.101 364.112 337.443 363.064C338.797 362.004 340.754 361.388 343.313 361.217L347.479 360.943V359.956C347.479 359.298 347.266 358.786 346.842 358.42C346.417 358.054 345.866 357.872 345.189 357.872C344.489 357.872 343.915 358.048 343.468 358.402C343.02 358.755 342.768 359.2 342.71 359.736H336.41C336.502 357.567 337.363 355.854 338.992 354.599C340.622 353.331 342.814 352.697 345.568 352.697C348.196 352.697 350.319 353.337 351.937 354.617C353.555 355.885 354.364 357.542 354.364 359.59V373.394H347.479V370.688H347.341C346.859 371.639 346.107 372.376 345.086 372.9C344.076 373.425 342.992 373.687 341.833 373.687Z" fill="#28282A"/>
<path d="M357.032 373.394V353.209H363.917V357.286H364.055C364.411 355.921 365.082 354.836 366.069 354.032C367.056 353.215 368.197 352.807 369.494 352.807C370.94 352.807 372.122 353.197 373.04 353.977C373.97 354.745 374.549 355.836 374.779 357.25H374.916C375.238 355.909 375.926 354.836 376.982 354.032C378.049 353.215 379.306 352.807 380.752 352.807C382.599 352.807 384.102 353.453 385.261 354.745C386.421 356.025 387 357.695 387 359.755V373.394H379.943V361.693C379.943 359.779 379.174 358.822 377.636 358.822C376.925 358.822 376.368 359.078 375.966 359.59C375.565 360.09 375.364 360.785 375.364 361.674V373.394H368.668V361.711C368.668 359.785 367.905 358.822 366.379 358.822C365.667 358.822 365.105 359.078 364.692 359.59C364.29 360.102 364.089 360.797 364.089 361.674V373.394H357.032Z" fill="#28282A"/>
</g>
<path d="M4.00663 273.239H-5.46062L-13 249.788H-4.59997L-0.623719 266.706H-0.486013L3.49023 249.788H11.546L4.00663 273.239Z" fill="#28282A"/>
<path d="M13.3878 273.239V255.297H20.4452V273.239H13.3878ZM19.4124 253.412C18.7469 254.008 17.9149 254.306 16.9165 254.306C15.9182 254.306 15.0804 254.008 14.4034 253.412C13.7378 252.805 13.405 252.052 13.405 251.153C13.405 250.254 13.7378 249.506 14.4034 248.91C15.0804 248.303 15.9182 248 16.9165 248C17.9149 248 18.7469 248.303 19.4124 248.91C20.0895 249.506 20.428 250.254 20.428 251.153C20.428 252.052 20.0895 252.805 19.4124 253.412Z" fill="#28282A"/>
<path d="M30.0158 273.499C27.6748 273.499 25.8559 272.687 24.5592 271.061C23.2624 269.425 22.6141 267.145 22.6141 264.219C22.6141 261.337 23.2739 259.089 24.5936 257.475C25.9248 255.85 27.7723 255.037 30.1362 255.037C31.4903 255.037 32.6608 255.362 33.6477 256.012C34.6461 256.651 35.3346 257.491 35.7133 258.531H35.851V249.788H42.9084V273.239H35.851V270.135H35.7133C35.3805 271.099 34.692 271.901 33.6477 272.54C32.6149 273.18 31.4043 273.499 30.0158 273.499ZM35.0764 261.262C34.5371 260.536 33.7969 260.173 32.8559 260.173C31.9149 260.173 31.1748 260.541 30.6354 261.278C30.1076 262.004 29.8436 263.001 29.8436 264.268C29.8436 265.557 30.1076 266.565 30.6354 267.291C31.1633 268.006 31.9035 268.364 32.8559 268.364C33.8084 268.364 34.5486 268.006 35.0764 267.291C35.6158 266.576 35.8854 265.574 35.8854 264.284C35.8854 262.995 35.6158 261.987 35.0764 261.262Z" fill="#28282A"/>
<path d="M53.9077 269.046C54.7224 269.046 55.4282 268.851 56.0249 268.461C56.6216 268.06 56.92 267.54 56.92 266.901V265.731L53.9249 265.926C53.2593 265.969 52.7429 266.132 52.3757 266.413C52.0085 266.695 51.8249 267.058 51.8249 267.502C51.8249 267.979 52.0142 268.358 52.3929 268.64C52.7716 268.911 53.2765 269.046 53.9077 269.046ZM51.274 273.499C49.5068 273.499 47.9978 272.985 46.747 271.955C45.4961 270.915 44.8707 269.604 44.8707 268.022C44.8707 266.31 45.542 264.989 46.8847 264.057C48.2388 263.114 50.1953 262.567 52.7544 262.415L56.92 262.172V261.294C56.92 260.709 56.7077 260.254 56.2831 259.929C55.8585 259.604 55.3077 259.441 54.6306 259.441C53.9306 259.441 53.3568 259.598 52.9093 259.913C52.4617 260.227 52.2093 260.622 52.1519 261.099H45.8519C45.9437 259.17 46.8043 257.648 48.4339 256.532C50.0634 255.405 52.2552 254.842 55.0093 254.842C57.6372 254.842 59.7601 255.411 61.3782 256.549C62.9962 257.675 63.8052 259.149 63.8052 260.969V273.239H56.92V270.834H56.7823C56.3003 271.679 55.5486 272.335 54.5273 272.8C53.5175 273.266 52.4331 273.499 51.274 273.499Z" fill="#28282A"/>
<path d="M66.1462 260.872C66.1462 258.997 66.938 257.524 68.5217 256.451C70.1053 255.378 72.2799 254.842 75.0454 254.842C77.8225 254.842 79.9914 255.395 81.552 256.5C83.1242 257.605 83.9102 259.138 83.9102 261.099H77.5069C77.5069 260.514 77.2774 260.053 76.8184 259.718C76.3709 259.371 75.7627 259.198 74.9938 259.198C74.3627 259.198 73.852 259.311 73.4618 259.539C73.0831 259.756 72.8938 260.053 72.8938 260.433C72.8938 260.996 73.5077 261.386 74.7356 261.603L79.0217 262.399C80.9037 262.746 82.2807 263.32 83.1529 264.122C84.0365 264.913 84.4783 265.991 84.4783 267.356C84.4783 269.295 83.6291 270.839 81.9307 271.988C80.2438 273.125 78.0004 273.694 75.2004 273.694C72.2741 273.694 69.9905 273.136 68.3495 272.02C66.72 270.894 65.8421 269.36 65.7159 267.421H72.5323C72.6012 268.017 72.8766 268.488 73.3586 268.835C73.852 269.171 74.4946 269.339 75.2864 269.339C75.975 269.339 76.5143 269.236 76.9045 269.03C77.2946 268.813 77.4897 268.521 77.4897 268.152C77.4897 267.871 77.352 267.643 77.0766 267.47C76.8012 267.286 76.3422 267.139 75.6995 267.031L72.0331 266.348C70.1167 265.991 68.6536 265.346 67.6438 264.414C66.6454 263.472 66.1462 262.291 66.1462 260.872Z" fill="#28282A"/>
<path d="M93.0849 273.239V255.297H99.9701V258.824H100.108C100.59 257.556 101.324 256.592 102.311 255.931C103.298 255.27 104.509 254.94 105.943 254.94C108.066 254.94 109.696 255.535 110.832 256.727C111.979 257.908 112.553 259.582 112.553 261.749V273.239H105.496V263.228C105.496 262.307 105.266 261.592 104.807 261.083C104.36 260.574 103.7 260.319 102.828 260.319C102.001 260.319 101.347 260.59 100.865 261.132C100.383 261.662 100.142 262.356 100.142 263.212V273.239H93.0849Z" fill="#28282A"/>
<path d="M124.499 259.425C123.696 259.425 123.019 259.674 122.468 260.173C121.917 260.671 121.607 261.305 121.538 262.074H127.46C127.402 261.272 127.098 260.633 126.547 260.156C126.008 259.669 125.325 259.425 124.499 259.425ZM127.666 267.421H133.949C133.651 269.36 132.664 270.894 130.988 272.02C129.313 273.136 127.173 273.694 124.568 273.694C121.458 273.694 119.025 272.871 117.269 271.224C115.514 269.566 114.636 267.28 114.636 264.366C114.636 261.429 115.508 259.111 117.252 257.41C118.996 255.698 121.36 254.842 124.344 254.842C127.293 254.842 129.646 255.665 131.401 257.312C133.157 258.948 134.035 261.137 134.035 263.878V265.682H121.435V266.105C121.435 266.982 121.739 267.708 122.347 268.282C122.955 268.846 123.73 269.127 124.671 269.127C125.394 269.127 126.019 268.976 126.547 268.672C127.087 268.369 127.46 267.952 127.666 267.421Z" fill="#28282A"/>
<path d="M143.709 267.193C144.237 267.865 144.983 268.201 145.947 268.201C146.91 268.201 147.656 267.871 148.184 267.21C148.712 266.538 148.976 265.563 148.976 264.284C148.976 263.006 148.706 262.004 148.167 261.278C147.628 260.541 146.888 260.173 145.947 260.173C145.006 260.173 144.265 260.541 143.726 261.278C143.198 262.004 142.934 263.001 142.934 264.268C142.934 265.547 143.192 266.522 143.709 267.193ZM145.671 280C142.848 280 140.588 279.475 138.889 278.424C137.202 277.383 136.284 276.013 136.135 274.312H142.917C143.02 274.745 143.336 275.097 143.864 275.368C144.392 275.65 145.046 275.791 145.826 275.791C146.847 275.791 147.622 275.563 148.15 275.108C148.678 274.653 148.942 274.036 148.942 273.255V269.81H148.804C148.494 270.764 147.823 271.538 146.79 272.134C145.757 272.719 144.535 273.012 143.124 273.012C140.863 273.012 139.061 272.242 137.719 270.704C136.376 269.155 135.705 266.993 135.705 264.219C135.705 261.337 136.365 259.089 137.684 257.475C139.015 255.85 140.863 255.037 143.227 255.037C144.581 255.037 145.751 255.362 146.738 256.012C147.737 256.651 148.425 257.491 148.804 258.531H148.942V255.297H155.999V273.093C155.999 275.206 155.047 276.885 153.142 278.131C151.248 279.377 148.758 280 145.671 280Z" fill="#28282A"/>
<path d="M158.667 273.239V255.297H165.552V258.824H165.69C166.402 256.299 167.882 255.037 170.131 255.037C170.739 255.037 171.29 255.124 171.784 255.297V260.888C171.164 260.639 170.481 260.514 169.735 260.514C167.061 260.514 165.725 261.776 165.725 264.301V273.239H158.667Z" fill="#28282A"/>
<path d="M181.285 269.046C182.1 269.046 182.806 268.851 183.402 268.461C183.999 268.06 184.298 267.54 184.298 266.901V265.731L181.302 265.926C180.637 265.969 180.12 266.132 179.753 266.413C179.386 266.695 179.202 267.058 179.202 267.502C179.202 267.979 179.392 268.358 179.77 268.64C180.149 268.911 180.654 269.046 181.285 269.046ZM178.652 273.499C176.884 273.499 175.375 272.985 174.125 271.955C172.874 270.915 172.248 269.604 172.248 268.022C172.248 266.31 172.92 264.989 174.262 264.057C175.616 263.114 177.573 262.567 180.132 262.415L184.298 262.172V261.294C184.298 260.709 184.085 260.254 183.661 259.929C183.236 259.604 182.685 259.441 182.008 259.441C181.308 259.441 180.734 259.598 180.287 259.913C179.839 260.227 179.587 260.622 179.529 261.099H173.229C173.321 259.17 174.182 257.648 175.811 256.532C177.441 255.405 179.633 254.842 182.387 254.842C185.015 254.842 187.138 255.411 188.756 256.549C190.374 257.675 191.183 259.149 191.183 260.969V273.239H184.298V270.834H184.16C183.678 271.679 182.926 272.335 181.905 272.8C180.895 273.266 179.811 273.499 178.652 273.499Z" fill="#28282A"/>
<path d="M193.524 260.872C193.524 258.997 194.316 257.524 195.899 256.451C197.483 255.378 199.657 254.842 202.423 254.842C205.2 254.842 207.369 255.395 208.93 256.5C210.502 257.605 211.288 259.138 211.288 261.099H204.885C204.885 260.514 204.655 260.053 204.196 259.718C203.748 259.371 203.14 259.198 202.371 259.198C201.74 259.198 201.23 259.311 200.839 259.539C200.461 259.756 200.271 260.053 200.271 260.433C200.271 260.996 200.885 261.386 202.113 261.603L206.399 262.399C208.281 262.746 209.658 263.32 210.53 264.122C211.414 264.913 211.856 265.991 211.856 267.356C211.856 269.295 211.007 270.839 209.308 271.988C207.621 273.125 205.378 273.694 202.578 273.694C199.652 273.694 197.368 273.136 195.727 272.02C194.098 270.894 193.22 269.36 193.093 267.421H199.91C199.979 268.017 200.254 268.488 200.736 268.835C201.23 269.171 201.872 269.339 202.664 269.339C203.353 269.339 203.892 269.236 204.282 269.03C204.672 268.813 204.867 268.521 204.867 268.152C204.867 267.871 204.73 267.643 204.454 267.47C204.179 267.286 203.72 267.139 203.077 267.031L199.411 266.348C197.494 265.991 196.031 265.346 195.021 264.414C194.023 263.472 193.524 262.291 193.524 260.872Z" fill="#28282A"/>
<path d="M220.462 273.239V255.297H227.52V273.239H220.462ZM226.487 253.412C225.821 254.008 224.99 254.306 223.991 254.306C222.993 254.306 222.155 254.008 221.478 253.412C220.812 252.805 220.48 252.052 220.48 251.153C220.48 250.254 220.812 249.506 221.478 248.91C222.155 248.303 222.993 248 223.991 248C224.99 248 225.821 248.303 226.487 248.91C227.164 249.506 227.503 250.254 227.503 251.153C227.503 252.052 227.164 252.805 226.487 253.412Z" fill="#28282A"/>
<path d="M230.171 273.239V255.297H237.056V258.921H237.194C237.549 257.708 238.221 256.744 239.208 256.028C240.194 255.303 241.336 254.94 242.633 254.94C244.079 254.94 245.261 255.286 246.179 255.98C247.108 256.662 247.688 257.632 247.917 258.889H248.055C248.376 257.697 249.065 256.744 250.121 256.028C251.188 255.303 252.445 254.94 253.89 254.94C255.738 254.94 257.241 255.514 258.4 256.662C259.559 257.8 260.139 259.284 260.139 261.115V273.239H253.081V262.838C253.081 261.137 252.313 260.286 250.775 260.286C250.063 260.286 249.507 260.514 249.105 260.969C248.704 261.413 248.503 262.031 248.503 262.822V273.239H241.807V262.854C241.807 261.142 241.044 260.286 239.517 260.286C238.806 260.286 238.244 260.514 237.831 260.969C237.429 261.424 237.228 262.042 237.228 262.822V273.239H230.171Z" fill="#28282A"/>
<path d="M275.596 255.037C277.983 255.037 279.819 255.833 281.104 257.426C282.39 259.019 283.032 261.299 283.032 264.268C283.032 267.226 282.395 269.507 281.122 271.11C279.848 272.703 278.035 273.499 275.682 273.499C274.294 273.499 273.1 273.207 272.102 272.622C271.104 272.026 270.381 271.197 269.933 270.135H269.795V278.976H262.738V255.297H269.813V258.531H269.933C270.392 257.426 271.109 256.57 272.085 255.963C273.072 255.346 274.242 255.037 275.596 255.037ZM270.587 267.275C271.127 268.001 271.861 268.364 272.791 268.364C273.72 268.364 274.454 267.995 274.994 267.259C275.533 266.522 275.803 265.525 275.803 264.268C275.803 263.022 275.527 262.031 274.977 261.294C274.437 260.546 273.709 260.173 272.791 260.173C271.872 260.173 271.138 260.546 270.587 261.294C270.048 262.031 269.772 263.028 269.761 264.284C269.772 265.541 270.048 266.538 270.587 267.275Z" fill="#28282A"/>
<path d="M294.72 273.694C291.599 273.694 289.155 272.876 287.387 271.24C285.62 269.593 284.736 267.264 284.736 264.252C284.736 261.316 285.632 259.013 287.422 257.345C289.223 255.676 291.656 254.842 294.72 254.842C297.807 254.842 300.246 255.676 302.036 257.345C303.826 259.003 304.721 261.305 304.721 264.252C304.721 267.264 303.837 269.593 302.07 271.24C300.303 272.876 297.853 273.694 294.72 273.694ZM294.72 268.932C295.604 268.932 296.298 268.526 296.803 267.714C297.308 266.901 297.56 265.752 297.56 264.268C297.56 262.816 297.302 261.679 296.786 260.855C296.281 260.021 295.592 259.604 294.72 259.604C293.848 259.604 293.159 260.021 292.655 260.855C292.15 261.679 291.897 262.816 291.897 264.268C291.897 265.763 292.144 266.917 292.637 267.73C293.131 268.532 293.825 268.932 294.72 268.932Z" fill="#28282A"/>
<path d="M306.907 273.239V255.297H313.792V258.824H313.93C314.642 256.299 316.122 255.037 318.371 255.037C318.979 255.037 319.53 255.124 320.023 255.297V260.888C319.404 260.639 318.721 260.514 317.975 260.514C315.301 260.514 313.964 261.776 313.964 264.301V273.239H306.907Z" fill="#28282A"/>
<path d="M323.415 251.364H330.472V255.297H333.811V260.124H330.472V266.755C330.472 267.892 331.183 268.461 332.606 268.461C333.065 268.461 333.467 268.434 333.811 268.38V272.995C332.974 273.158 332.004 273.239 330.902 273.239C328.228 273.239 326.312 272.849 325.153 272.069C323.994 271.289 323.415 270.01 323.415 268.234V260.124H320.901V255.297H323.415V251.364Z" fill="#28282A"/>
<path d="M344.466 269.046C345.281 269.046 345.987 268.851 346.583 268.461C347.18 268.06 347.479 267.54 347.479 266.901V265.731L344.483 265.926C343.818 265.969 343.301 266.132 342.934 266.413C342.567 266.695 342.383 267.058 342.383 267.502C342.383 267.979 342.573 268.358 342.951 268.64C343.33 268.911 343.835 269.046 344.466 269.046ZM341.833 273.499C340.065 273.499 338.556 272.985 337.306 271.955C336.055 270.915 335.429 269.604 335.429 268.022C335.429 266.31 336.101 264.989 337.443 264.057C338.797 263.114 340.754 262.567 343.313 262.415L347.479 262.172V261.294C347.479 260.709 347.266 260.254 346.842 259.929C346.417 259.604 345.866 259.441 345.189 259.441C344.489 259.441 343.915 259.598 343.468 259.913C343.02 260.227 342.768 260.622 342.71 261.099H336.41C336.502 259.17 337.363 257.648 338.992 256.532C340.622 255.405 342.814 254.842 345.568 254.842C348.196 254.842 350.319 255.411 351.937 256.549C353.555 257.675 354.364 259.149 354.364 260.969V273.239H347.479V270.834H347.341C346.859 271.679 346.107 272.335 345.086 272.8C344.076 273.266 342.992 273.499 341.833 273.499Z" fill="#28282A"/>
<path d="M357.032 273.239V255.297H363.917V258.921H364.055C364.411 257.708 365.082 256.744 366.069 256.028C367.056 255.303 368.197 254.94 369.494 254.94C370.94 254.94 372.122 255.286 373.04 255.98C373.97 256.662 374.549 257.632 374.779 258.889H374.916C375.238 257.697 375.926 256.744 376.982 256.028C378.049 255.303 379.306 254.94 380.752 254.94C382.599 254.94 384.102 255.514 385.261 256.662C386.421 257.8 387 259.284 387 261.115V273.239H379.943V262.838C379.943 261.137 379.174 260.286 377.636 260.286C376.925 260.286 376.368 260.514 375.966 260.969C375.565 261.413 375.364 262.031 375.364 262.822V273.239H368.668V262.854C368.668 261.142 367.905 260.286 366.379 260.286C365.667 260.286 365.105 260.514 364.692 260.969C364.29 261.424 364.089 262.042 364.089 262.822V273.239H357.032Z" fill="#28282A"/>
</svg>
